<svg width="159" height="195" viewBox="0 0 159 195" fill="none" xmlns="http://www.w3.org/2000/svg">
<path fill-rule="evenodd" clip-rule="evenodd" d="M79.51 0.39568C123.243 0.39568 158.709 35.8624 158.709 79.5943C158.709 123.328 123.243 158.794 79.51 158.794C35.7767 158.794 0.310547 123.328 0.310547 79.5943C0.310547 35.8624 35.7767 0.39568 79.51 0.39568Z" fill="#0D1C3F"/>
<path fill-rule="evenodd" clip-rule="evenodd" d="M79.5101 5.21563C120.476 5.21563 153.888 38.6276 153.888 79.5943C153.888 120.561 120.476 153.974 79.5101 153.974C38.5434 153.974 5.13086 120.561 5.13086 79.5943C5.13086 38.6276 38.5434 5.21563 79.5101 5.21563ZM79.5101 7.81296C119.046 7.81296 151.292 40.0583 151.292 79.5943C151.292 119.132 119.046 151.377 79.5101 151.377C39.9737 151.377 7.72779 119.132 7.72779 79.5943C7.72779 40.0583 39.9737 7.81296 79.5101 7.81296Z" fill="white"/>
<path fill-rule="evenodd" clip-rule="evenodd" d="M0.392578 193.759V166.423H5.91071V193.759H0.392578ZM29.1483 193.759H23.9098V183.653C23.9098 181.514 23.7951 180.133 23.5727 179.503C23.3498 178.879 22.9811 178.388 22.4779 178.038C21.9754 177.695 21.3702 177.517 20.6639 177.517C19.754 177.517 18.9388 177.765 18.2202 178.261C17.5008 178.764 17.0044 179.42 16.7368 180.241C16.4696 181.062 16.3363 182.576 16.3363 184.791V193.759H11.0978V173.959H15.9602V176.868C17.692 174.627 19.8686 173.507 22.4904 173.507C23.6426 173.507 24.7055 173.717 25.6607 174.131C26.615 174.551 27.3404 175.079 27.8306 175.728C28.3207 176.377 28.6644 177.11 28.8555 177.931C29.0524 178.751 29.1483 179.923 29.1483 181.45V193.759ZM52.6211 193.759H47.7587V190.851C46.9503 191.984 45.9956 192.824 44.8946 193.377C43.7931 193.931 42.6858 194.205 41.5654 194.205C39.2874 194.205 37.3394 193.288 35.7164 191.456C34.0998 189.622 33.2852 187.064 33.2852 183.786C33.2852 180.425 34.0743 177.873 35.653 176.129C37.2311 174.385 39.23 173.507 41.642 173.507C43.8508 173.507 45.7664 174.43 47.3831 176.269V166.423H52.6211V193.759ZM38.6378 183.43C38.6378 185.543 38.9311 187.07 39.5164 188.019C40.3566 189.381 41.5399 190.068 43.055 190.068C44.2644 190.068 45.2888 189.553 46.1358 188.528C46.9754 187.503 47.4024 185.969 47.4024 183.932C47.4024 181.66 46.9883 180.018 46.1738 179.019C45.3524 178.02 44.3024 177.517 43.017 177.517C41.7759 177.517 40.7383 178.013 39.8978 179C39.0582 179.986 38.6378 181.463 38.6378 183.43ZM57.7894 171.273V166.423H63.0274V171.273H57.7894ZM57.7894 193.759V173.959H63.0274V193.759H57.7894ZM72.3134 179.999L67.5592 179.14C68.0935 177.224 69.0102 175.811 70.315 174.888C71.6259 173.971 73.5612 173.507 76.132 173.507C78.4743 173.507 80.2123 173.787 81.3576 174.341C82.4972 174.894 83.3055 175.595 83.7702 176.447C84.2347 177.3 84.4702 178.859 84.4702 181.138L84.4128 187.255C84.4128 188.993 84.4956 190.278 84.667 191.106C84.8326 191.926 85.1508 192.818 85.6098 193.759H80.4222C80.2883 193.41 80.1164 192.894 79.9196 192.213C79.8368 191.901 79.7727 191.697 79.7347 191.595C78.8374 192.467 77.8826 193.117 76.8644 193.556C75.8456 193.988 74.7576 194.205 73.5992 194.205C71.5623 194.205 69.9524 193.651 68.7811 192.55C67.604 191.443 67.018 190.043 67.018 188.349C67.018 187.236 67.2852 186.236 67.8202 185.358C68.355 184.48 69.106 183.811 70.067 183.347C71.0279 182.882 72.4222 182.475 74.2358 182.124C76.6795 181.667 78.3795 181.234 79.3211 180.839V180.317C79.3211 179.305 79.0727 178.592 78.5764 178.159C78.08 177.733 77.144 177.517 75.7628 177.517C74.8274 177.517 74.1019 177.701 73.58 178.07C73.0582 178.433 72.6383 179.076 72.3134 179.999ZM79.3211 184.25C78.653 184.473 77.5899 184.741 76.132 185.053C74.6811 185.364 73.7331 185.67 73.2811 185.963C72.5998 186.453 72.2566 187.064 72.2566 187.808C72.2566 188.547 72.53 189.177 73.0774 189.712C73.6248 190.246 74.3186 190.513 75.165 190.513C76.1128 190.513 77.0107 190.201 77.8702 189.584C78.506 189.113 78.9202 188.534 79.1175 187.847C79.2571 187.401 79.3211 186.548 79.3211 185.295V184.25ZM107.651 193.759H102.412V183.653C102.412 181.514 102.297 180.133 102.075 179.503C101.852 178.879 101.483 178.388 100.98 178.038C100.477 177.695 99.8727 177.517 99.1664 177.517C98.256 177.517 97.4415 177.765 96.7222 178.261C96.003 178.764 95.5066 179.42 95.2394 180.241C94.9716 181.062 94.8383 182.576 94.8383 184.791V193.759H89.5998V173.959H94.4628V176.868C96.1935 174.627 98.3707 173.507 100.993 173.507C102.145 173.507 103.208 173.717 104.163 174.131C105.117 174.551 105.843 175.079 106.332 175.728C106.823 176.377 107.167 177.11 107.357 177.931C107.555 178.751 107.651 179.923 107.651 181.45V193.759Z" fill="#0D1C3F"/>
<path fill-rule="evenodd" clip-rule="evenodd" d="M112.363 180.259C112.363 177.471 112.777 175.136 113.61 173.246C114.234 171.858 115.081 170.604 116.155 169.497C117.231 168.396 118.41 167.575 119.689 167.04C121.394 166.315 123.354 165.958 125.582 165.958C129.611 165.958 132.831 167.206 135.25 169.707C137.669 172.202 138.878 175.677 138.878 180.126C138.878 184.543 137.675 187.993 135.275 190.488C132.877 192.977 129.669 194.224 125.658 194.224C121.591 194.224 118.358 192.982 115.958 190.507C113.559 188.025 112.363 184.607 112.363 180.259ZM118.046 180.075C118.046 183.168 118.766 185.517 120.191 187.115C121.623 188.712 123.437 189.508 125.639 189.508C127.835 189.508 129.643 188.718 131.055 187.127C132.462 185.542 133.169 183.168 133.169 179.999C133.169 176.867 132.482 174.531 131.113 172.985C129.738 171.444 127.911 170.674 125.639 170.674C123.361 170.674 121.527 171.457 120.134 173.016C118.746 174.576 118.046 176.925 118.046 180.075ZM143.149 171.273V166.423H148.386V171.273H143.149ZM143.149 193.759V173.958H148.386V193.759H143.149ZM153.758 193.759V166.423H158.997V193.759H153.758Z" fill="#0D1C3F"/>
<path fill-rule="evenodd" clip-rule="evenodd" d="M79.5108 10.1337C111.664 10.1337 138.826 32.1764 146.68 61.919H12.3416C20.1947 32.1764 47.3577 10.1337 79.5108 10.1337ZM146.777 96.8977C139.054 126.83 111.798 149.057 79.5108 149.057C47.2233 149.057 19.9676 126.83 12.2441 96.8977H146.777Z" fill="#F25C19"/>
<path fill-rule="evenodd" clip-rule="evenodd" d="M23.0583 64C24.039 64 24.8354 64.796 24.8354 65.7773C24.8354 66.7573 24.039 67.5547 23.0583 67.5547C22.0775 67.5547 21.2812 66.7573 21.2812 65.7773C21.2812 64.796 22.0775 64 23.0583 64Z" fill="white"/>
<path fill-rule="evenodd" clip-rule="evenodd" d="M81.4838 73.5692L83.4463 75.5812C84.2531 74.4838 85.2868 73.7665 86.8239 73.8892C88.254 73.9812 88.7712 74.9252 88.3759 76.7238C87.5952 77.8638 86.4316 77.9318 85.0436 77.3638V80.9305C87.1431 81.0225 88.2083 81.8452 88.2384 83.3998C88.4067 85.2598 86.9911 86.2052 85.3635 86.2345C83.7198 85.6092 82.8676 84.6798 82.8072 83.4465L79.9316 85.0918C80.6422 86.7611 81.6379 88.2692 83.8114 89.2078C86.7936 89.9998 89.228 89.4505 91.114 87.5612C92.7384 84.2972 92.0307 81.1158 89.2884 80.0625C90.2166 79.4825 90.9922 78.7505 91.4338 77.6852C92.1374 75.4705 91.9624 73.0092 90.4302 71.5572C86.715 68.7305 82.5348 70.9092 81.4838 73.5692Z" fill="white"/>
<path fill-rule="evenodd" clip-rule="evenodd" d="M107.09 66.6743C105.81 68.4156 103.675 69.5596 101.265 69.5596C98.9344 69.5596 96.8626 68.4902 95.5703 66.8462L97.4756 64.9969C98.3115 65.9569 99.699 66.5862 101.265 66.5862C102.929 66.5862 104.389 65.8756 105.203 64.8156L107.09 66.6743Z" fill="white"/>
<path fill-rule="evenodd" clip-rule="evenodd" d="M74.5932 72.8611V77.8824H66.639V77.8864C65.4177 77.9691 64.4412 79.3091 64.4412 80.9384C64.4412 82.6224 65.4822 83.9944 66.7588 83.9944C67.9912 83.9944 69.003 82.7157 69.0724 81.1144H74.5932V88.5011H78.1953V72.8611H79.888V69.7971H44.6005C44.1041 66.6624 40.6666 64.2251 36.514 64.2251C32.363 64.2251 28.9245 66.6624 28.4281 69.7971H12.6406V72.8611H21.0672V74.2717L16.1172 74.3624C12.136 74.8224 11.627 82.2397 15.7254 83.0651L19.5265 83.1637C22.9754 83.6944 22.3197 87.4717 20.3656 87.6144L18.6369 87.6931L18.1917 87.7131C17.5516 87.9104 17.2729 87.5811 17.2068 87.3157C17.339 84.3344 15.1338 84.3517 13.653 85.1451C11.5473 86.5731 13.1598 89.8277 15.7754 89.6411L16.1208 90.2837L18.8354 94.6357L21.2046 93.2024L19.0817 89.7411L22.2412 89.4931C25.9432 89.1931 27.3088 81.8651 22.3896 80.5437H18.2426C15.7177 80.4771 15.5036 77.6904 18.2921 77.8224H24.5661L24.5702 77.5877H24.6234V72.8611H28.1869V87.6037H31.7896V72.8611H42.301V74.2717L37.3505 74.3624C33.3697 74.8224 32.8609 82.2397 36.9593 83.0651C38.1797 83.3731 39.3994 83.5997 40.6188 83.5317C41.6161 83.6851 42.4109 83.7424 42.7901 84.2717H42.801C42.836 84.2997 42.8932 84.3411 42.8953 84.3517C43.0172 84.9597 43.0104 85.5291 42.7964 85.8824C42.7636 85.9357 42.7385 85.9731 42.7245 85.9864L42.7172 85.9944C42.7093 86.0037 42.7005 86.0131 42.6901 86.0211C42.0281 86.3211 41.4088 86.4557 40.7932 86.4837C40.1021 86.5157 39.4021 86.4264 38.6557 86.2797C38.1281 86.1184 37.6292 85.9344 37.224 85.7251C36.8937 85.5544 36.6297 85.3784 36.4812 85.2051L33.624 87.6224C34.1156 88.2011 34.7713 88.6704 35.5098 89.0517C36.1677 89.3904 36.8822 89.6611 37.5912 89.8757L37.7598 89.9117C38.8688 90.1397 39.9073 90.2824 40.9546 90.2357C42.0869 90.1837 43.2166 89.9264 44.4218 89.3491L44.6046 89.2464L44.614 89.2411L44.636 89.2264C44.9213 89.0437 45.1802 88.8304 45.4109 88.5904C45.6526 88.3397 45.85 88.0851 46.0052 87.8304C47.3609 85.5997 47.1125 81.8571 43.588 80.8237L39.4765 80.5437C36.951 80.4771 36.7374 77.6904 39.526 77.8224H45.8L45.8041 77.5877H45.8573V72.8611H50.436C52.9177 76.1344 51.539 78.1824 48.0584 78.8051C47.6114 84.5491 54.2765 88.0424 58.839 84.2357V88.5011H62.4417V72.8611H74.5932ZM58.839 72.8611H54.5526C55.3645 77.2277 54.1828 79.4717 51.8724 80.5131C52.8838 82.3851 54.8406 83.0411 56.775 82.1344C57.5 81.7957 58.1458 81.0544 58.839 80.3157V72.8611ZM31.9926 69.7971H41.036C40.5494 68.3091 38.7068 67.1971 36.5145 67.1971C34.3234 67.1971 32.4792 68.3091 31.9926 69.7971Z" fill="white"/>
<path fill-rule="evenodd" clip-rule="evenodd" d="M96.1362 73.9558V78.3638H92.8086V80.9744H96.1362V88.9758H99.4799V73.9558H102.793V88.9758H106.137V73.9558H111.577C113.053 76.7598 111.622 78.5264 108.522 79.1064C108.075 85.1278 114.741 88.7904 119.302 84.7998V89.2718H122.905V73.9558H140.458V78.0424L137.365 79.7344C136.201 77.9478 134.201 76.7664 131.937 76.7664C128.355 76.7664 125.437 79.7224 125.437 83.3478C125.437 86.4638 127.595 89.0851 130.477 89.7598L133.141 86.5891C132.883 86.6531 132.614 86.6891 132.337 86.6891C130.482 86.6891 128.97 85.1571 128.97 83.2798C128.97 81.4024 130.482 79.8718 132.337 79.8718C133.365 79.8718 134.286 80.3411 134.906 81.0811L132.395 82.4531L133.701 85.0704L140.458 81.3091V88.8931H144.061V73.9558H146.379V70.8704H93.4122V73.9558H96.1362ZM119.302 73.9558H115.174C115.626 77.8291 114.458 79.8958 112.337 80.8971C113.347 82.8598 115.305 83.5478 117.239 82.5971C117.963 82.2424 118.61 81.4651 119.302 80.6904V73.9558Z" fill="white"/>
</svg>
