<?xml version="1.0" encoding="UTF-8"?>
<svg id="Layer_2" data-name="Layer 2" xmlns="http://www.w3.org/2000/svg" viewBox="0 0 10.12 12.65">
  <defs>
    <style>
      .cls-1 {
        fill: #e95c28;
      }
    </style>
  </defs>
  <g id="Layer_1-2" data-name="Layer 1">
    <path class="cls-1" d="m2.74,3.37c0-.71,0-1.41,0-2.1,0-.19.05-.36.17-.51.13-.16.24-.32.36-.48C3.41.09,3.6,0,3.83,0c.96,0,1.92,0,2.89,0,.23,0,.42.09.56.27.13.17.26.34.39.52.1.13.15.28.15.44,0,.71,0,1.41,0,2.14.05,0,.1,0,.14,0,.5,0,1,0,1.5,0,.41,0,.67.26.67.68,0,2.64,0,5.28,0,7.92,0,.42-.26.68-.69.68-2.92,0-5.83,0-8.75,0-.42,0-.68-.26-.69-.68,0-.86,0-1.72,0-2.58,0-.27.1-.49.35-.61.08-.04.07-.1.07-.16,0-1.52,0-3.03,0-4.55,0-.16.03-.31.13-.43.13-.17.31-.26.52-.26.51,0,1.01,0,1.52,0,.05,0,.09,0,.16,0Zm.72,4.41c-.06.03-.1.05-.15.07-.91.42-1.81.85-2.72,1.27-.12.06-.18.14-.18.28,0,.85,0,1.7,0,2.56,0,.21.07.28.27.28,2.91,0,5.82,0,8.74,0,.2,0,.27-.07.27-.27,0-2.63,0-5.26,0-7.89,0-.2-.07-.27-.27-.27-.51,0-1.02,0-1.53,0-.03,0-.06,0-.1,0,0,.21,0,.42,0,.63,0,.36-.28.63-.64.63-.11,0-.22,0-.33,0-.47,0-.72-.25-.72-.73,0-.18,0-.36,0-.53h-1.69c0,.22,0,.43,0,.64,0,.35-.28.61-.62.62-.12,0-.24,0-.36,0-.46,0-.71-.25-.71-.71,0-.18,0-.37,0-.55-.55,0-1.08,0-1.61,0-.22,0-.29.07-.29.29,0,1.44,0,2.87,0,4.31,0,.04,0,.08,0,.14.82-.38,1.62-.76,2.43-1.13.06.13.12.25.18.38ZM4.01.43c-.3-.03-.31-.02-.47.2-.09.13-.2.25-.28.38-.05.08-.09.17-.09.26,0,.36,0,.71,0,1.07,0,.67,0,1.34,0,2.01,0,.22.07.29.29.29.08,0,.17,0,.25,0,.24,0,.3-.06.3-.31,0-1.26,0-2.51,0-3.77,0-.04,0-.09,0-.14Zm2.53,0c0,.5,0,1,0,1.5,0,.81,0,1.62,0,2.44,0,.19.07.26.26.27.08,0,.17,0,.25,0,.28,0,.33-.05.33-.33,0-.86-.02-1.71,0-2.57.02-.44-.08-.8-.38-1.12-.14-.15-.26-.24-.48-.18Zm-2.1,2.93h1.67v-1.67h-1.67v1.67Zm0-2.94v.83h1.67V.43h-1.67Z"/>
  </g>
</svg>