<?xml version="1.0" encoding="UTF-8"?>
<svg id="Layer_2" data-name="Layer 2" xmlns="http://www.w3.org/2000/svg" viewBox="0 0 7.47 11.44">
  <defs>
    <style>
      .cls-1 {
        fill: #e95c28;
      }
    </style>
  </defs>
  <g id="Layer_1-2" data-name="Layer 1">
    <g>
      <path class="cls-1" d="m6.14,11.44H1.22c0-.1,0-.19,0-.28,0-.03-.03-.08-.06-.1C.39,10.61,0,9.94,0,9.05c0-1.66,0-3.32,0-4.99C0,2.93.78,2.02,1.91,1.85c.05,0,.07-.02.07-.07,0-.2,0-.4,0-.6,0-.03,0-.07-.02-.09-.07-.1-.08-.22-.08-.33,0-.13,0-.25,0-.38C1.88.13,2.01,0,2.25,0c.99,0,1.97,0,2.96,0,.24,0,.38.13.38.38,0,.13,0,.26,0,.39,0,.12,0,.23-.08.33-.02.03-.02.07-.02.11,0,.19,0,.38,0,.57,0,.06.02.08.08.08,1.09.15,1.9,1.08,1.9,2.19,0,1.7.01,3.4,0,5.11,0,.89-.45,1.54-1.23,1.95-.07.04-.1.07-.1.15,0,.06,0,.12,0,.19ZM.45,6.57c0,.26,0,.52,0,.79,0,.62-.02,1.24,0,1.86.03.67.38,1.16.97,1.48.29.15.6.18.92.18.97,0,1.94,0,2.91,0,.97,0,1.74-.77,1.74-1.73,0-1.71,0-3.42,0-5.13,0-.96-.78-1.73-1.74-1.73-1.03,0-2.05,0-3.08,0-.3,0-.59.07-.86.23-.58.35-.88.87-.89,1.55,0,.84,0,1.67,0,2.51ZM5.14.45h-2.83c0,.14-.02.28.03.4.05.15.08.29.08.44,0,.18,0,.36,0,.54h.42c.04-.17.09-.22.26-.22.13,0,.27,0,.41,0,0-.2,0-.38,0-.57,0-.15.03-.18.18-.18.26,0,.26,0,.26.26,0,.16,0,.32,0,.47.02,0,.02.01.03.01.12,0,.23,0,.35,0,.2,0,.24.03.29.22h.41s0-.08,0-.11c0-.18,0-.35,0-.53,0-.08,0-.17.04-.24.09-.16.04-.32.05-.49Z"/>
      <path class="cls-1" d="m1.55,5.02c.28,0,.55-.01.81,0,.62.03,1.23.12,1.82.35.43.16.82.39,1.13.75.38.43.54.94.49,1.51,0,.03,0,.06-.02.11-.04-.05-.06-.09-.09-.12-.45-.6-.97-1.11-1.63-1.46-.39-.21-.81-.36-1.26-.38,1.13.48,1.99,1.28,2.69,2.28-.26.12-.52.2-.8.23-.62.07-1.15-.14-1.61-.55-.32-.28-.57-.61-.79-.97-.32-.54-.56-1.12-.74-1.73Z"/>
    </g>
  </g>
</svg>