<?xml version="1.0" encoding="UTF-8"?>
<svg id="Layer_2" data-name="Layer 2" xmlns="http://www.w3.org/2000/svg" viewBox="0 0 10.9 10.92">
  <defs>
    <style>
      .cls-1 {
        fill: #e95c28;
      }
    </style>
  </defs>
  <g id="Layer_1-2" data-name="Layer 1">
    <g>
      <path class="cls-1" d="m5.45,10.92C2.4,10.86-.02,8.49,0,5.4.02,2.41,2.4,0,5.45,0c3.04,0,5.46,2.43,5.45,5.48-.02,3.1-2.46,5.39-5.45,5.44ZM.46,5.58c-.02.55.09.98.23,1.4.31.95.85,1.74,1.63,2.37.7.57,1.51.92,2.4,1.05.55.08,1.11.08,1.65-.03.63-.12,1.22-.35,1.76-.7.47-.3.87-.66,1.22-1.09.56-.7.91-1.5,1.04-2.4.06-.42.08-.85.03-1.28-.06-.51-.18-1-.39-1.47-.4-.91-1.02-1.65-1.85-2.19-.6-.39-1.26-.64-1.97-.75-.38-.06-.76-.08-1.14-.05-.49.04-.96.15-1.42.32-.82.32-1.51.82-2.07,1.49-.75.92-1.14,1.98-1.13,3.31Z"/>
      <path class="cls-1" d="m4.44,4.16c.02-.08-.03-.07-.07-.07-.33,0-.67,0-1,0-.08,0-.15,0-.23,0-.1,0-.16-.04-.19-.12-.06-.12-.06-.25.01-.36.03-.04.1-.07.16-.07.06,0,.1-.02.1-.09.02-.42.17-.79.42-1.12.5-.65,1.16-.98,1.98-.93.61.04,1.13.31,1.53.77.27.3.43.65.52,1.04.02.08.02.16.02.24,0,.06.03.08.09.08.15,0,.19.05.21.2,0,.06,0,.13,0,.19-.02.11-.11.17-.22.17-.34,0-.69,0-1.03,0-.02,0-.05,0-.07,0-.01,0-.03.02-.03.03,0,.01.02.03.03.03.02,0,.04,0,.06,0,.29,0,.58,0,.87,0,.16,0,.22.07.22.22,0,.09-.02.18-.03.28-.04.39-.08.77-.12,1.16-.04.34-.08.67-.11,1-.03.33-.06.66-.09.98-.03.32-.08.65-.11.97,0,.04,0,.08,0,.13,0,.13-.06.19-.19.19-1.13,0-2.27,0-3.4,0-.12,0-.18-.06-.19-.19-.03-.35-.08-.7-.11-1.06-.03-.3-.06-.6-.09-.9-.04-.35-.07-.69-.11-1.04-.03-.3-.06-.6-.09-.91-.02-.19-.04-.39-.07-.58-.01-.09-.02-.18.07-.23.04-.02.08-.04.12-.04.35,0,.7,0,1.05,0,.03,0,.06,0,.1,0Zm-.14,2.17c.12-.03.23-.06.33-.08.2-.04.37-.01.53.14.09.09.2.15.32.2.26.12.52.06.78-.01.03,0,.06-.04.07-.07.02-.15.04-.3.05-.45.05-.48.09-.96.14-1.43.02-.21.03-.41.05-.62.01-.15.03-.29.04-.46-.31-.03-.59-.05-.88-.08-.16-.01-.32-.03-.48-.05-.12-.01-.23-.02-.35-.03-.11-.01-.21-.03-.32-.04-.1,1-.19,1.99-.28,2.99Zm3.19-2.8c0-.08,0-.15-.02-.23-.11-.54-.37-.99-.83-1.31-.44-.3-.92-.44-1.46-.37-.54.08-.98.32-1.33.74-.21.26-.34.55-.41.88-.02.09-.02.19-.03.29.02,0,.03,0,.03,0,.32,0,.64,0,.95,0,.03,0,.07-.03.08-.06.02-.03.02-.07.02-.11,0-.07.03-.09.09-.08.18.01.36.02.54.03.22.02.43.03.65.05.2.02.41.03.61.05.08.01.16.05.25.08.03.01.07.03.1.03.24,0,.49,0,.75,0Z"/>
    </g>
  </g>
</svg>