<?xml version="1.0" encoding="UTF-8"?>
<svg id="Layer_2" data-name="Layer 2" xmlns="http://www.w3.org/2000/svg" viewBox="0 0 11.69 9.85">
  <defs>
    <style>
      .cls-1 {
        fill: #e95c28;
      }
    </style>
  </defs>
  <g id="Layer_1-2" data-name="Layer 1">
    <g>
      <path class="cls-1" d="m11.5,5.47c.06.01.16-.03.18.02.03.07.01.17,0,.25,0,.08-.04.09-.11.09-3.69.02-7.38,0-11.07,0-.14,0-.29,0-.43,0-.05,0-.07-.01-.07-.07,0-.08,0-.16,0-.24,0-.05,0-.07.07-.07.04,0,.08.01.12,0,.03.01.06,0,.1,0,.67,0,1.34,0,2.01,0,.07,0,.09-.02.09-.09,0-.64,0-1.28,0-1.93,0-.39,0-.79,0-1.18,0-.08-.02-.1-.09-.09-.07,0-.14,0-.21,0-.06,0-.07.02-.07.07,0,.22,0,.44,0,.66,0,.4,0,.79,0,1.19,0,.08-.02.1-.1.09-.05,0-.11,0-.16,0-.08,0-.1-.01-.1-.1,0-.61,0-1.22,0-1.83,0-.06-.01-.09-.08-.08-.07,0-.14,0-.21,0-.06,0-.08.01-.08.08,0,.2,0,.4,0,.6,0,.42,0,.84,0,1.25,0,.06-.01.08-.08.08-.06,0-.12,0-.19,0-.08,0-.1-.01-.1-.1,0-.61,0-1.22,0-1.83,0-.06-.01-.09-.08-.08-.06,0-.13,0-.19,0-.08,0-.1.02-.1.1,0,.61,0,1.22,0,1.84,0,.06-.01.08-.08.08-.09,0-.19,0-.28,0,0-.03,0-.06,0-.1,0-.61,0-1.21,0-1.82,0-.06,0-.11-.08-.09-.08.02-.11-.02-.1-.1,0-.06,0-.12,0-.19,0-.06.01-.08.08-.08.46,0,.92,0,1.38,0,.28,0,.56,0,.83,0,.05,0,.06,0,.06-.06.03-.56,0-1.11.01-1.67,0-.08.03-.09.09-.09C4.73,0,6.98,0,9.24,0c.05,0,.07.01.07.07,0,.56,0,1.12,0,1.67,0,.07.02.09.09.09.73-.03,1.47,0,2.2-.01.07,0,.09.02.09.09,0,.07,0,.15,0,.22,0,.05-.01.06-.06.06-.12,0-.12,0-.12.13,0,.6,0,1.19,0,1.79,0,.03,0,.06,0,.09-.1,0-.2,0-.3,0-.05,0-.06-.02-.06-.06,0-.07,0-.14,0-.21,0-.55,0-1.11,0-1.66,0-.06-.02-.09-.08-.08-.07,0-.15,0-.22,0-.06,0-.07.02-.07.07,0,.35,0,.7,0,1.05,0,.27,0,.54,0,.82,0,.05-.01.07-.07.07-.08,0-.16,0-.23,0-.04,0-.06-.01-.06-.06,0-.05,0-.11,0-.16,0-.57,0-1.14,0-1.71,0-.06-.01-.09-.08-.08-.07,0-.15,0-.22,0-.06,0-.07.01-.07.07,0,.2,0,.41,0,.61,0,.42,0,.83,0,1.25,0,.06-.01.08-.07.08-.06,0-.12,0-.19,0-.08,0-.1-.02-.1-.1,0-.61,0-1.22,0-1.83,0-.06-.01-.09-.08-.08-.06,0-.12,0-.19,0-.11,0-.1-.02-.1.1,0,1.01,0,2.02,0,3.03q0,.15.15.15s.07,0,.11,0c.64,0,1.29,0,1.93,0Zm-7.41-.73c-.08-.17-.09-.33-.02-.5.01-.03,0-.05-.04-.05-.06,0-.14.03-.18-.02-.03-.05,0-.12-.01-.19,0-.02,0-.04,0-.06-.01-.08.02-.1.1-.1,1.48,0,2.97,0,4.45,0q.2,0,.2.19c0,.17,0,.17-.17.18-.04,0-.06,0-.04.06.05.14.06.29,0,.44-.02.04,0,.05.04.05.15,0,.3,0,.45,0,.07,0,.1-.02.1-.09,0-1.4,0-2.79,0-4.19,0-.08-.02-.1-.1-.1-1.76,0-3.51,0-5.27,0-.08,0-.1,0-.1.1,0,.72,0,1.43,0,2.15,0,.12,0,.12.12.13.05,0,.06.01.06.06,0,.07,0,.13,0,.2,0,.11,0,.11-.1.11-.07,0-.08.02-.08.08,0,.27,0,.54,0,.82,0,.22,0,.45,0,.67,0,.04,0,.07.05.07.18,0,.36,0,.55,0Zm2.12.72c.88,0,1.75,0,2.63,0,.02,0,.04,0,.06,0,.03,0,.04-.01.04-.04,0-.06,0-.12,0-.18q0-.12-.12-.12c-1.74,0-3.47,0-5.21,0-.14,0-.12-.02-.12.12,0,.04,0,.09,0,.13-.01.08.02.1.1.1.87,0,1.75,0,2.62,0Zm-3.45-2.91c0,.34,0,.67,0,1.01,0,.37,0,.74,0,1.11,0,.06.02.08.07.07.06,0,.13,0,.19,0,.07,0,.09-.02.09-.09,0-1.38,0-2.76,0-4.14,0-.02,0-.03,0-.05,0-.06-.02-.1-.1-.09-.06,0-.11,0-.17,0-.07,0-.09.02-.09.09,0,.7,0,1.39,0,2.09Zm2.5,1.65c.06.16.08.32.02.47-.02.06-.02.07.04.07.6,0,1.2,0,1.8,0,.05,0,.07,0,.05-.06-.05-.14-.05-.28,0-.41.03-.07,0-.07-.06-.07-.6,0-1.19,0-1.79,0-.02,0-.04,0-.07,0Zm2.51,0c-.14,0-.27.13-.27.27,0,.13.14.28.27.28.16,0,.27-.12.28-.28,0-.16-.12-.27-.28-.27Zm-2.83.29c.01-.18-.12-.29-.27-.29-.15,0-.26.13-.26.28,0,.15.16.27.26.27.15,0,.28-.12.28-.26Zm-1.82.81q0-.17-.17-.17s0,0,0,0q-.17,0-.17.17t.18.18.17-.17Z"/>
      <path class="cls-1" d="m5.84,8.39c-.89,0-1.77,0-2.66,0-.06,0-.07.02-.07.07,0,.44,0,.87,0,1.31,0,.06-.02.08-.08.08-.32,0-.63,0-.95,0-.06,0-.08-.01-.08-.08,0-.43,0-.86,0-1.29,0-.08-.02-.08-.09-.09-.62-.03-1.23,0-1.85-.01-.06,0-.07-.02-.07-.07,0-.08,0-.16,0-.23,0-.05.02-.06.07-.06.1,0,.2,0,.3,0,3.65,0,7.29,0,10.94,0,.1,0,.21,0,.31,0,.05,0,.07,0,.07.06,0,.08,0,.17,0,.25,0,.05-.02.06-.06.06-.6,0-1.2,0-1.8,0-.15,0-.15,0-.15.15,0,.41,0,.82,0,1.23,0,.06-.01.08-.08.08-.32,0-.63,0-.95,0-.07,0-.08-.02-.08-.08,0-.43,0-.87,0-1.3,0-.07-.02-.08-.08-.08-.89,0-1.77,0-2.66,0Zm3.47.55h0c0-.16,0-.33,0-.49,0-.04-.01-.06-.06-.06-.08,0-.16,0-.24,0-.04,0-.06.01-.06.05,0,.33,0,.66,0,.99,0,.05.02.05.06.05.08,0,.15,0,.23,0,.06,0,.07-.01.07-.07,0-.16,0-.31,0-.47Zm-6.92,0c0,.16,0,.32,0,.49,0,.04,0,.06.06.06.08,0,.16,0,.24,0,.04,0,.06,0,.06-.05,0-.33,0-.66,0-.99,0-.04-.02-.05-.06-.05-.08,0-.16,0-.23,0-.06,0-.07.02-.07.07,0,.16,0,.32,0,.48Z"/>
      <path class="cls-1" d="m.19,4.74s.06,0,.1,0c.55,0,1.1,0,1.65,0,.06,0,.08.02.07.08,0,.08,0,.15,0,.23,0,.05-.02.07-.07.07-.38-.03-.76,0-1.14-.01-.18,0-.37,0-.55,0-.03,0-.05-.01-.08.01q-.17,0-.17-.16c0-.06-.02-.14,0-.19.03-.05.12,0,.18-.03Z"/>
      <path class="cls-1" d="m11.5,5.11c-.56,0-1.12,0-1.68,0-.14,0-.14,0-.14-.14,0-.04,0-.07,0-.11,0-.12,0-.12.12-.12.57,0,1.13,0,1.7,0,0,0,.02,0,.02,0,.16,0,.16,0,.16.16,0,.06.02.14-.01.18-.03.04-.12,0-.18.02Z"/>
      <path class="cls-1" d="m2.38,7.58c0-.43,0-.86,0-1.29,0,0,0-.01,0-.02,0-.01,0-.02,0-.03,0,0,0-.01,0-.02,0-.03.03-.02.05-.02.07,0,.14,0,.21,0,.12,0,.11-.02.11.1,0,.44,0,.87,0,1.31-.01,0-.01.01,0,.02,0,.04-.03.04-.05.04-.09,0-.19,0-.28,0,0,0-.01,0-.02,0-.01,0-.02,0-.02-.02,0,0,0-.01,0-.02,0-.01,0-.02,0-.03,0,0,0-.01,0-.02Z"/>
      <path class="cls-1" d="m9.31,6.24s0,.02,0,.03c0,0,0,.01,0,.02,0,.43,0,.86,0,1.29,0,0,0,.01,0,.02,0,.01,0,.02,0,.03,0,0,0,.01,0,.02,0,.01,0,.02-.02.02,0,0-.01,0-.02,0-.09,0-.19,0-.28,0-.02,0-.06,0-.05-.04.01,0,.01-.01,0-.02,0-.45,0-.89,0-1.34,0-.06.02-.08.08-.07.08,0,.16,0,.23,0,.02,0,.05-.01.06.02,0,0,0,.01,0,.02Z"/>
      <path class="cls-1" d="m2.38,6.27s0,.01,0,.02c0,0,0,0,0-.01,0,0,0,0,0,0Z"/>
      <path class="cls-1" d="m9.31,7.64s0-.01,0-.02c0,0,0,0,0,.01,0,0,0,0,0,0Z"/>
      <path class="cls-1" d="m2.4,7.66s.01,0,.02,0c0,0-.01,0-.02,0Z"/>
      <path class="cls-1" d="m9.28,7.66s.01,0,.02,0c0,0-.01,0-.02,0Z"/>
      <path class="cls-1" d="m9.31,6.24s0-.01,0-.02c0,0,0,0,0,.01,0,0,0,0,0,0Z"/>
      <path class="cls-1" d="m8.94,7.61s.01.01,0,.02c0,0,0-.01,0-.02Z"/>
      <path class="cls-1" d="m9.31,6.29s0-.01,0-.02c0,0,0,0,0,.01,0,0,0,0,0,0Z"/>
      <path class="cls-1" d="m2.38,7.58s0,.01,0,.02c0,0,0,0,0-.01,0,0,0,0,0,0Z"/>
      <path class="cls-1" d="m2.38,7.63s0,.01,0,.02c0,0,0,0,0-.01,0,0,0,0,0,0Z"/>
      <path class="cls-1" d="m9.31,7.6s0-.01,0-.02c0,0,0,0,0,.01,0,0,0,0,0,0Z"/>
      <path class="cls-1" d="m2.75,7.63s-.01-.01,0-.02c0,0,0,.01,0,.02Z"/>
      <path class="cls-1" d="m2.38,6.22s0,.01,0,.02c0,0,0,0,0-.01,0,0,0,0,0,0Z"/>
    </g>
  </g>
</svg>