<?xml version="1.0" encoding="UTF-8"?>
<svg id="Layer_2" data-name="Layer 2" xmlns="http://www.w3.org/2000/svg" viewBox="0 0 7.44 7.44">
  <defs>
    <style>
      .cls-1 {
        fill: #fff;
      }

      .cls-2 {
        fill: #e95c28;
      }
    </style>
  </defs>
  <g id="Layer_1-2" data-name="Layer 1">
    <g>
      <circle class="cls-2" cx="3.72" cy="3.72" r="3.72"/>
      <path class="cls-1" d="m3.85,4.96c.03-.05.06-.11.09-.16.02-.04.05-.07.08-.1.07-.08.16-.1.26-.06.28.11.56.22.84.32.04.01.07.03.11.04.09.04.14.11.14.21,0,.4-.29.73-.68.79-.13.02-.25,0-.37-.04-.59-.15-1.1-.43-1.53-.86-.47-.47-.78-1.03-.92-1.68-.1-.46-.1-.93,0-1.39.11-.48.62-.74,1.07-.55.11.05.16.13.16.26-.02.33-.04.66-.05.99,0,.11-.07.19-.17.21-.08.02-.16.03-.24.04-.02,0-.04,0-.06,0,.03.34.13.65.29.95.25.46.62.81.98,1.02Z"/>
    </g>
  </g>
</svg>