<?xml version="1.0" encoding="UTF-8"?>
<svg id="Layer_2" data-name="Layer 2" xmlns="http://www.w3.org/2000/svg" viewBox="0 0 13.81 13.81">
  <defs>
    <style>
      .cls-1 {
        fill: #e95c28;
      }
    </style>
  </defs>
  <g id="Layer_1-2" data-name="Layer 1">
    <g>
      <path class="cls-1" d="m5.18,0c1.15,0,2.3,0,3.45,0,.03.02.06.04.09.05.15.09.23.26.2.42-.03.18-.18.31-.36.33-.06,0-.12,0-.18,0-.35,0-.71,0-1.07,0,0,.2,0,.4,0,.59,0,.2.07.33.24.44.43.28.62.68.54,1.19-.03.21-.14.41-.21.62.02,0,.06.03.1.04,1.37.59,2.74,1.16,4.11,1.77.38.17.76.28,1.18.24.25-.03.44.06.54.3v7.53c-.11.23-.29.3-.54.3-4.24,0-8.49,0-12.73,0-.41,0-.54-.13-.54-.54,0-1.71,0-3.43,0-5.14,0-.65,0-1.3,0-1.96,0-.33.15-.48.49-.48.17,0,.34,0,.51,0,.1,0,.21-.02.3-.06,1.39-.59,2.78-1.19,4.17-1.79.16-.07.33-.14.5-.21-.17-.22-.26-.46-.27-.72-.01-.25.15-.44.38-.45.22-.01.4.15.43.39.02.23.15.38.36.41.18.02.36-.09.43-.26.07-.19,0-.38-.19-.5-.42-.26-.6-.64-.59-1.12,0-.19,0-.38,0-.58-.05,0-.08,0-.12,0-.36,0-.73,0-1.09,0-.2,0-.36-.13-.4-.32-.04-.17.04-.35.21-.44.03-.01.05-.03.08-.05ZM.82,6.51v6.48h12.17v-6.48H.82Zm9.75-.82c-.06-.03-.08-.04-.1-.05-1.15-.49-2.31-.99-3.47-1.48-.06-.03-.16-.02-.22,0-.91.39-1.82.78-2.73,1.17-.26.11-.52.22-.77.33,0,0,0,.01,0,.02h7.3Z"/>
      <path class="cls-1" d="m1.65,9.74c0-.67,0-1.33,0-2,0-.31.27-.51.55-.4.16.06.26.2.26.39,0,.3,0,.59,0,.89,0,1.04,0,2.09,0,3.13,0,.32-.27.52-.55.42-.17-.06-.26-.21-.26-.42,0-.67,0-1.34,0-2.01Z"/>
      <path class="cls-1" d="m4.07,9.76c0,.67,0,1.33,0,2,0,.31-.27.51-.55.4-.16-.06-.26-.2-.26-.39,0-.31,0-.61,0-.92,0-1.03,0-2.07,0-3.1,0-.32.27-.52.55-.42.17.06.26.21.26.42,0,.67,0,1.34,0,2.01Z"/>
      <path class="cls-1" d="m5.69,9.75c0,.67,0,1.34,0,2.01,0,.31-.27.51-.55.4-.16-.06-.26-.2-.26-.39,0-.3,0-.59,0-.89,0-1.04,0-2.09,0-3.13,0-.32.27-.52.55-.42.17.06.26.21.26.42,0,.67,0,1.33,0,2Z"/>
      <path class="cls-1" d="m6.5,9.74c0-.67,0-1.33,0-2,0-.31.27-.51.55-.4.16.06.26.2.26.39,0,.31,0,.61,0,.92,0,1.03,0,2.07,0,3.1,0,.32-.27.52-.55.42-.17-.06-.26-.21-.26-.42,0-.67,0-1.34,0-2.01Z"/>
      <path class="cls-1" d="m8.93,9.74c0,.67,0,1.35,0,2.02,0,.31-.29.52-.56.39-.17-.08-.24-.22-.24-.4,0-.44,0-.89,0-1.33,0-.89,0-1.78,0-2.67,0-.32.27-.52.55-.41.16.06.26.21.26.42,0,.66,0,1.32,0,1.98Z"/>
      <path class="cls-1" d="m10.55,9.75c0,.67,0,1.34,0,2.01,0,.31-.27.51-.55.4-.16-.06-.26-.2-.26-.39,0-.3,0-.59,0-.89,0-1.04,0-2.09,0-3.13,0-.32.27-.52.55-.42.17.06.26.21.26.42,0,.67,0,1.33,0,2Z"/>
      <path class="cls-1" d="m12.16,9.76c0,.67,0,1.33,0,2,0,.31-.27.51-.55.41-.16-.06-.26-.2-.26-.39,0-.21,0-.41,0-.62,0-1.13,0-2.27,0-3.4,0-.32.27-.53.55-.42.17.06.26.21.26.41,0,.67,0,1.34,0,2.01Z"/>
    </g>
  </g>
</svg>