<?xml version="1.0" encoding="UTF-8"?>
<svg id="Layer_2" data-name="Layer 2" xmlns="http://www.w3.org/2000/svg" viewBox="0 0 21.39 21.36">
  <defs>
    <style>
      .cls-1 {
        fill: #e95c28;
      }
    </style>
  </defs>
  <g id="Layer_1-2" data-name="Layer 1">
    <g>
      <path class="cls-1" d="m18.01,3.84c-.22.33-.43.67-.66.99-.23.3-.53.53-.87.69-.08.04-.19.05-.27.04-.5-.1-.97-.02-1.42.18.12.31.23.61.36.93.11-.03.22-.05.33-.09.22-.08.39-.05.55.13.32.35.33.75.15,1.16-.16.39-.42.71-.7,1.01-.16.17-.32.34-.51.54.05.03.11.06.15.1.31.31.32.73,0,1.04-.23.22-.51.41-.76.61-.05.04-.1.09-.11.15-.19.98-.9,1.42-1.76,1.54-.09.01-.19.01-.28.03-.38.06-.65-.13-.87-.4-.31-.4-.53-.85-.67-1.34-.06-.2-.03-.4.04-.6.02-.05.05-.1.07-.16.21-.44.24-.31-.09-.74-.04-.05-.09-.1-.13-.15-.16-.15-.23-.32-.23-.54,0-.27-.09-.36-.33-.36-.31,0-.63,0-.94.01-.71.05-1.15-.35-1.36-.95-.16-.44-.14-.89-.06-1.35.09-.53.26-1.03.59-1.46.34-.45.79-.7,1.34-.78.37-.06.74-.1,1.12-.03.32.06.59.2.75.5.03.06.13.1.2.1.28,0,.56-.02.83-.06.22-.03.43-.1.67-.15v-.9c-.09.01-.17.02-.25.03-.68.09-1.23-.34-1.32-1.03-.07-.51.17-.85.55-1.12.25-.18.53-.31.8-.46.02-.01.05-.03.07-.04v-.04c-.3,0-.6-.01-.9,0-.64.04-1.26.16-1.86.38-1.29.47-2.35,1.26-3.16,2.37-.65.89-1.05,1.88-1.21,2.97-.23,1.55.05,3,.81,4.36.14.25.11.49-.08.63-.22.16-.52.11-.66-.14-.18-.34-.36-.69-.51-1.05-.38-.95-.55-1.94-.52-2.96.06-1.76.63-3.33,1.75-4.69.92-1.12,2.08-1.9,3.45-2.36.6-.2,1.22-.32,1.85-.36,1.4-.09,2.72.17,3.96.81,1.58.81,2.73,2.04,3.46,3.66.53,1.17.74,2.41.64,3.69-.17,2.09-1.05,3.84-2.65,5.22-.31.27-.66.49-1,.73-.32.22-.6.05-.7-.18-.08-.2,0-.42.2-.55.49-.29.94-.64,1.34-1.05.99-1.02,1.62-2.23,1.85-3.64.26-1.58-.01-3.07-.8-4.47-.04-.07-.08-.14-.12-.21-.05-.07-.1-.14-.13-.19Zm-2.63,3.7c-.16,0-.3,0-.44-.02-.31-.06-.55-.2-.64-.54-.06-.23-.15-.46-.24-.68-.03-.07-.09-.13-.16-.17-.2-.12-.3-.34-.21-.56.04-.11.12-.22.21-.29.65-.51,1.39-.69,2.2-.62.07,0,.16,0,.21-.04.54-.39.82-.95,1.01-1.57.01-.03-.02-.09-.04-.12-.67-.71-1.47-1.24-2.38-1.6-.05-.02-.1-.03-.15-.02-.46.14-.93.27-1.38.42-.31.11-.61.25-.85.48-.1.1-.1.22-.02.36.07.11.17.15.29.12.1-.03.19-.08.29-.1.11-.03.23-.06.35-.04.31.04.46.28.54.56.16.61.08,1.22-.01,1.83-.03.18-.19.3-.35.33-.28.05-.57.1-.85.16-.44.09-.88.18-1.34.07-.29-.07-.55-.19-.71-.45-.07-.11-.15-.15-.26-.15-.21,0-.42,0-.62.03-.33.04-.63.16-.85.43-.2.24-.32.52-.4.82-.1.4-.18.81-.03,1.22.09.26.21.35.48.35.35,0,.7-.03,1.05-.02.48.02.89.23,1.02.72.1.39.3.69.53,1,.05.06.08.14.11.21.1.2.12.42.05.63-.06.17-.15.34-.21.51-.03.08-.04.19,0,.27.09.21.19.43.31.62.23.37.14.35.62.28.58-.08.89-.43.92-1.01,0-.23.11-.37.31-.46.25-.1.48-.24.67-.45-.05-.05-.09-.09-.14-.13-.3-.3-.33-.61-.06-.93.19-.24.42-.45.62-.68.21-.24.43-.47.56-.76Z"/>
      <path class="cls-1" d="m4.45,19.33c0,.09,0,.16,0,.24,0,.25-.19.45-.44.45-1.19,0-2.38,0-3.57,0-.25,0-.44-.2-.44-.46,0-.6,0-1.2,0-1.8,0-1.59,0-3.19,0-4.78,0-.35.17-.52.51-.52,1.16,0,2.32,0,3.48,0,.26,0,.45.18.45.44,0,.14,0,.28,0,.44.06,0,.11,0,.16,0,.76,0,1.52,0,2.28,0,.63,0,1.25.1,1.84.36.45.2.82.5,1.14.86.07.08.14.12.25.12,1.12,0,2.24-.01,3.37,0,.69,0,1.3.35,1.56,1,.04.1.07.21.09.31.02.1.01.21.02.33.19-.05.37-.1.55-.16,1.16-.33,2.33-.66,3.49-.99.54-.15,1-.03,1.35.43.23.29.48.56.72.84.2.23.16.54-.12.68-.65.34-1.32.67-1.97,1.01-1.28.66-2.56,1.32-3.84,1.97-.71.36-1.43.7-2.19.94-.62.2-1.25.32-1.9.29-.61-.03-1.22-.14-1.8-.33-1.24-.4-2.47-.82-3.7-1.24-.43-.15-.86-.3-1.31-.45Zm15.77-2.7c-.12-.15-.23-.29-.34-.43-.13-.18-.28-.23-.51-.16-.66.2-1.33.39-2,.57-.9.25-1.81.49-2.72.74-.03,0-.05.02-.07.04-.36.29-.78.4-1.23.4-1.6,0-3.2,0-4.79,0-.03,0-.07,0-.1,0-.3-.02-.48-.29-.41-.57.05-.2.23-.31.49-.31,1.59,0,3.17,0,4.76,0,.18,0,.37-.03.54-.09.43-.15.56-.66.27-.98-.17-.19-.39-.27-.64-.27-1.2,0-2.4,0-3.59,0-.18,0-.32-.05-.45-.18-.18-.18-.35-.36-.54-.53-.52-.46-1.15-.6-1.82-.62-.85-.02-1.69,0-2.54-.01-.03,0-.05,0-.08.01,0,.01,0,.02,0,.02,0,1.35,0,2.7,0,4.05,0,.04.05.1.09.11.18.07.37.13.55.19,1.52.52,3.04,1.04,4.57,1.55.51.17,1.04.26,1.57.29.58.03,1.13-.08,1.68-.25.74-.23,1.43-.56,2.12-.91,1.43-.72,2.86-1.46,4.28-2.2.3-.15.6-.3.9-.46ZM.89,13.35v5.78h2.67v-5.78H.89Z"/>
    </g>
  </g>
</svg>