<svg width="623" height="623" viewBox="0 0 623 623" fill="none" xmlns="http://www.w3.org/2000/svg">
<path d="M610 311C610 475.581 476.581 609 312 609C147.419 609 14 475.581 14 311C14 146.419 147.419 13 312 13C476.581 13 610 146.419 610 311Z" fill="orangered"/>
<path d="M311.665 0.22408C229.155 0.22408 150.025 33.0001 91.6786 91.3441C33.3346 149.688 0.558594 228.824 0.558594 311.331C0.558594 393.837 33.3346 472.971 91.6786 531.317C150.023 589.661 229.159 622.437 311.665 622.437C394.172 622.437 473.305 589.661 531.652 531.317C589.996 472.973 622.772 393.837 622.772 311.331C622.772 256.721 608.397 203.071 581.095 155.771C553.788 108.479 514.511 69.2027 467.22 41.8961C419.923 14.5934 366.272 0.21875 311.66 0.21875L311.665 0.22408ZM311.665 591.331C237.405 591.331 166.185 561.831 113.679 509.32C61.1679 456.809 31.6679 385.591 31.6679 311.333C31.6679 237.076 61.1679 165.853 113.679 113.347C166.189 60.8361 237.408 31.3361 311.665 31.3361C385.923 31.3361 457.145 60.8361 509.652 113.347C562.163 165.857 591.663 237.076 591.663 311.333C591.663 385.591 562.163 456.813 509.652 509.32C457.141 561.831 385.923 591.331 311.665 591.331Z" fill="orangered"/>
<path d="M323.334 223.28C320.381 219.937 316.131 218.015 311.667 218.015C307.204 218.015 302.954 219.937 300.001 223.28L191.11 347.723V347.728C188.172 350.785 186.61 354.916 186.787 359.155C186.964 363.395 188.87 367.379 192.053 370.181C195.24 372.983 199.433 374.363 203.662 373.999C207.886 373.64 211.782 371.567 214.443 368.259L311.667 257.191L408.891 368.259C411.839 371.619 416.089 373.546 420.558 373.551C426.662 373.541 432.198 369.963 434.714 364.4C437.224 358.832 436.25 352.317 432.224 347.728L323.334 223.28Z" fill="white"/>
</svg>
