<?xml version="1.0" encoding="UTF-8"?>
<svg id="Layer_2" data-name="Layer 2" xmlns="http://www.w3.org/2000/svg" viewBox="0 0 20.98 15.15">
  <defs>
    <style>
      .cls-1 {
        fill: #e95c28;
      }
    </style>
  </defs>
  <g id="Layer_1-2" data-name="Layer 1">
    <g>
      <path class="cls-1" d="m13.68,9.28c.16.22.32.44.5.65.29.34.59.67.89,1,.31.34.33.86.04,1.19-.3.36-.82.43-1.2.14-.4-.32-.78-.68-1.17-1.01-.31-.26-.62-.51-.93-.77-.02-.02-.05-.02-.13-.01.03.07.04.16.09.21.44.44.87.89,1.32,1.32.42.39.55.83.31,1.26-.27.48-.93.61-1.33.24-.47-.43-.91-.88-1.37-1.32-.09-.08-.17-.17-.27-.24-.05-.04-.13-.04-.19-.05.02.06.02.14.06.18.35.4.7.81,1.06,1.2.47.5.36,1.18-.24,1.5-.28.15-.67.09-.95-.14-.12-.1-.22-.2-.33-.31-.15-.14-.21-.3-.2-.52.04-.9-.49-1.71-1.31-2.06-.08-.03-.16-.11-.19-.19-.22-.59-.63-1-1.18-1.29-.11-.06-.21-.18-.26-.29-.24-.52-.61-.9-1.13-1.13-.08-.03-.16-.11-.19-.19-.57-1.55-2.64-1.77-3.67-.69-.19.2-.33.44-.48.67-.08.13-.15.19-.31.13-.24-.1-.5-.18-.75-.26C.05,8.44,0,8.38,0,8.26,0,5.93,0,3.61,0,1.28c0-.02,0-.05.01-.09.35.12.69.24,1.03.36.47.16.93.34,1.41.47.64.17,1.22.03,1.77-.33.87-.57,1.78-1.06,2.77-1.4.79-.27,1.57-.24,2.31.2.14.08.26.2.43.33-.14.09-.24.15-.34.21-.79.47-1.59.94-2.38,1.42-.43.26-.75.63-.91,1.12-.4,1.24.37,2.49,1.66,2.72.46.08.87-.04,1.27-.22.67-.31,1.34-.61,2.01-.92.67-.3,1.14-.22,1.66.3.76.76,1.52,1.52,2.28,2.28.54.54,1.09,1.08,1.63,1.63.47.49.31,1.25-.29,1.5-.35.14-.72.04-1.04-.27-.4-.39-.81-.77-1.22-1.15-.09-.08-.2-.14-.31-.22-.02.02-.04.05-.07.07Z"/>
      <path class="cls-1" d="m20.98,1.92c0,2.06,0,4.1,0,6.13,0,.16-.05.19-.2.21-.64.1-1.29.22-1.93.34-.47.08-.89-.04-1.24-.36-.65-.61-1.28-1.23-1.91-1.85-.84-.82-1.68-1.65-2.53-2.46-.43-.42-1.01-.5-1.55-.22-.9.45-1.79.92-2.69,1.36-.22.11-.45.2-.69.24-.63.1-1.3-.41-1.36-1.05-.04-.48.21-.86.61-1.09,1.48-.86,2.97-1.71,4.47-2.56.28-.16.57-.29.85-.44.47-.25.94-.21,1.36.08.48.35.94.74,1.4,1.12.34.28.7.56,1.01.87.4.39.86.43,1.36.32.89-.2,1.78-.4,2.67-.6.11-.03.23-.02.36-.04Z"/>
      <path class="cls-1" d="m6.24,13.48c-.24.05-.42.09-.6.13-.45.08-.79-.04-.97-.36-.15-.27-.1-.55-.01-.82.03-.1.04-.2.07-.3-.1.01-.21.02-.31.04-.26.06-.52.13-.77,0-.36-.19-.52-.54-.42-.94.04-.17.11-.34.18-.56-.13.03-.22.05-.32.07-.27.08-.53.14-.81,0-.26-.13-.41-.33-.45-.63-.11-.74.39-1.47.94-1.73.55-.27,1.44-.11,1.63.64.04.15.04.31.03.47-.01.17.04.2.2.19.26-.02.5.02.73.18.35.24.46.57.44.96-.02.25-.02.27.23.27.46,0,.86.15,1.04.6.09.24.07.53.08.79,0,.12.02.17.16.15.56-.08.97.11,1.19.55.21.41.13,1.04-.21,1.39-.42.42-.94.65-1.55.57-.64-.08-.95-.64-.68-1.24.06-.12.1-.25.17-.42Z"/>
    </g>
  </g>
</svg>