<?xml version="1.0" encoding="UTF-8"?>
<svg id="Layer_2" data-name="Layer 2" xmlns="http://www.w3.org/2000/svg" viewBox="0 0 7.44 7.44">
  <defs>
    <style>
      .cls-1 {
        fill: #fff;
      }

      .cls-2 {
        fill: #e95c28;
      }
    </style>
  </defs>
  <g id="Layer_1-2" data-name="Layer 1">
    <g>
      <circle class="cls-2" cx="3.72" cy="3.72" r="3.72"/>
      <path class="cls-1" d="m3.72,5.75s-.01-.02-.02-.02c-.12-.18-.24-.37-.36-.55-.22-.34-.43-.67-.64-1.02-.08-.14-.17-.28-.25-.42-.04-.07-.07-.14-.09-.21-.02-.07-.04-.15-.05-.23-.01-.08-.02-.15-.02-.23,0-.63.44-1.17,1.03-1.34.09-.02.18-.04.27-.05.07,0,.14,0,.21,0,.31.02.58.13.82.33.22.19.37.43.45.71.02.08.04.16.04.24,0,.07,0,.15,0,.22,0,.1-.02.2-.05.3,0,.03-.02.07-.03.1-.01.04-.03.08-.06.12-.07.13-.15.26-.23.38-.2.34-.41.67-.62,1-.13.21-.27.42-.4.62,0,0-.01.02-.02.03Zm.62-2.65c0-.34-.28-.62-.62-.62-.34,0-.62.27-.62.62,0,.34.28.62.62.62.34,0,.62-.28.62-.62Z"/>
    </g>
  </g>
</svg>