<?xml version="1.0" encoding="UTF-8"?>
<svg id="Layer_2" data-name="Layer 2" xmlns="http://www.w3.org/2000/svg" viewBox="0 0 6.1 11.76">
  <defs>
    <style>
      .cls-1 {
        fill: #e95c28;
      }
    </style>
  </defs>
  <g id="Layer_1-2" data-name="Layer 1">
    <g>
      <path class="cls-1" d="m1.63,2.22V.33c-.11,0-.22,0-.33,0-.09,0-.16-.07-.16-.16,0-.08.05-.15.15-.17C1.32,0,1.36,0,1.39,0c.19,0,.38,0,.56,0,.9,0,1.81,0,2.71,0,.04,0,.07,0,.11,0,.11,0,.18.08.18.17,0,.09-.07.16-.18.16-.1,0-.2,0-.31,0v1.89c.09,0,.17,0,.26,0,.62,0,1.19.44,1.34,1.05.03.11.04.23.04.35,0,1.86,0,3.72,0,5.58,0,.51-.22.9-.65,1.18-.03.02-.05.04-.08.06.36.2.6.49.69.88.02.08.03.16.03.24,0,.13-.06.19-.19.19-.11,0-.21,0-.32,0-.97,0-1.94,0-2.91,0-.7,0-1.4,0-2.1,0-.13,0-.26,0-.39,0-.14,0-.2-.06-.2-.2,0-.44.32-.94.73-1.12-.03-.02-.05-.04-.07-.06C.23,10.11,0,9.72,0,9.2c0-1.74,0-3.48,0-5.22,0-.19-.01-.38,0-.57.05-.47.32-.79.72-1.01.21-.12.44-.18.68-.17.07,0,.14,0,.22,0ZM.33,6.38h0c0,.95,0,1.89,0,2.84,0,.4.19.69.53.9.19.11.4.14.62.14,1.09,0,2.17,0,3.26,0,.56,0,1.04-.46,1.04-1.01,0-1.89,0-3.78,0-5.68,0-.37-.17-.64-.47-.84-.23-.15-.49-.18-.76-.18-.83,0-1.66,0-2.48,0-.23,0-.46,0-.69,0-.24,0-.45.08-.64.22-.29.22-.41.52-.41.88,0,.91,0,1.82,0,2.73Zm.02,5.03h5.41s-.01-.05-.02-.07c-.14-.45-.54-.75-1.03-.75-1.11,0-2.21,0-3.32,0-.35,0-.64.15-.86.42-.09.11-.15.25-.18.4ZM3.51,1.08s0,.03,0,.03c0,.35,0,.7,0,1.05,0,.05.02.06.07.06.07,0,.13,0,.2,0,.12,0,.24,0,.35,0V.34H1.98v1.88c.19,0,.38,0,.57,0,.06,0,.07-.04.06-.08,0-.05.03-.12-.06-.13-.06,0-.13,0-.19,0-.1,0-.15-.06-.16-.15,0-.17,0-.34,0-.5,0-.1.07-.15.17-.15.06,0,.11,0,.17,0,.02,0,.05-.04.07-.05-.02-.02-.04-.05-.06-.06-.05,0-.09,0-.14,0-.1,0-.18-.09-.16-.19.02-.09.07-.14.17-.14.15,0,.3,0,.45,0,.28,0,.56,0,.83,0,.1,0,.16.07.16.16,0,.09-.07.15-.17.16-.06,0-.12,0-.18,0Zm-.57,0c0,.37,0,.73,0,1.09,0,.02.03.04.04.05.06,0,.12,0,.18,0,0-.02,0-.03,0-.04,0-.31,0-.61,0-.92,0-.21,0-.21-.24-.18Zm-.34.41s-.03,0-.04,0c-.01.04-.03.08-.03.12,0,.02.03.05.05.07.02-.02.04-.04.04-.06,0-.04-.01-.08-.02-.12Z"/>
      <path class="cls-1" d="m2.39,6.57c.09-.23.15-.47.17-.72.05-.45.03-.9-.08-1.34,0-.02,0-.04-.01-.07-.02-.07,0-.13.05-.17.06-.05.12-.05.19-.01.27.13.48.33.65.58.13.2.23.41.29.64,0,.03.02.05.03.08,0,0,.02,0,.02,0,.05-.11.1-.22.14-.32.03-.07.08-.1.15-.1.07,0,.12.04.15.11,0,.01.01.03.01.04.14.59.2,1.18.05,1.78-.14.59-.45,1.07-.96,1.4-.21.14-.25.14-.45,0-.45-.33-.8-.74-.95-1.29-.09-.33-.09-.67,0-1,.02-.1.07-.14.16-.14.09,0,.13.05.16.13.05.14.12.28.17.42.01,0,.02,0,.03,0Zm-.26.25c.01.07.02.12.03.18.12.51.43.89.84,1.2.02.02.07.02.09,0,.12-.1.26-.19.36-.31.45-.52.56-1.13.51-1.79,0-.09-.02-.18-.03-.26,0,0-.02,0-.03-.01-.02.02-.04.05-.06.07-.08.08-.17.12-.28.12-.1,0-.15-.04-.17-.14,0-.03-.01-.06-.02-.09-.07-.34-.2-.65-.43-.92-.02-.02-.05-.04-.09-.08.01.12.03.22.03.31.05.61-.03,1.19-.27,1.75-.06.13-.15.17-.28.11-.07-.04-.14-.08-.23-.13Z"/>
    </g>
  </g>
</svg>