<?xml version="1.0" encoding="UTF-8"?>
<svg id="Layer_2" data-name="Layer 2" xmlns="http://www.w3.org/2000/svg" viewBox="0 0 7.44 7.44">
  <defs>
    <style>
      .cls-1 {
        fill: #fff;
      }

      .cls-2 {
        fill: #e95c28;
      }
    </style>
  </defs>
  <g id="Layer_1-2" data-name="Layer 1">
    <g>
      <circle class="cls-2" cx="3.72" cy="3.72" r="3.72"/>
      <g>
        <path class="cls-1" d="m1.68,3.07c.08.05.16.1.25.15.55.33,1.1.67,1.64,1,.1.06.2.06.3,0,.61-.38,1.23-.75,1.84-1.13.01,0,.03-.02.05-.03,0,.02,0,.03,0,.04,0,.5,0,1,0,1.5,0,.36-.26.62-.62.62-.95,0-1.9,0-2.85,0-.34,0-.58-.25-.61-.52,0,0,0,0,0-.01,0-.54,0-1.08,0-1.63Z"/>
        <path class="cls-1" d="m1.7,2.69c.04-.23.27-.44.5-.46.04,0,.09,0,.13,0,.93,0,1.87,0,2.8,0,.27,0,.46.12.57.36.05.1.05.1-.05.16-.63.39-1.27.77-1.9,1.16-.03.02-.05.02-.07,0-.65-.4-1.3-.79-1.95-1.19-.01,0-.02-.02-.04-.02Z"/>
      </g>
    </g>
  </g>
</svg>