<?xml version="1.0" encoding="UTF-8"?>
<svg id="Layer_2" data-name="Layer 2" xmlns="http://www.w3.org/2000/svg" viewBox="0 0 86.82 98.37">
  <defs>
    <style>
      .cls-1 {
        fill: #e95c28;
      }

      .cls-2 {
        fill: #58595b;
      }
    </style>
  </defs>
  <g id="Layer_1-2" data-name="Layer 1">
    <g>
      <g>
        <path class="cls-2" d="m59.23,35.18s0,.01,0,.02c0,0,0,0,0-.01,0,0,0-.01,0-.02,0,0,0,0,0,.01Z"/>
        <path class="cls-2" d="m86.76,28.5c.31-1.01-.72-1.67-1.58-1.85-.44-.06-.88.15-1.31.1.07-.31.31-.57.23-.91-.03-.48-.44-1.07-.97-.93.57-1.26-.61-1.43-1.56-1.33-1.22.14-.89,1.54-2.35,1.16-.24-.02-.37-.25-.59-.31-.86-.18-1.64.48-2.13,1.12-.19.24-.23.56-.37.83-.2.17-.46.3-.7.42-.31.07-.63.11-.93.22-.75.26-.33,1.12-1.4,1.79-.39.15-.79.36-.91.8-.06.16-.03.35-.14.48-.35.21-.79.29-1.2.26-.35-.02-.68-.24-1.04-.15-.44.1-.7.63-.78,1.04-.05.45.37.69.74.84.31.17.71-.07,1,.16.16.16.18.4.23.62.04.15.07.39-.15.4-.43-.08-.89-.13-1.27.16-.3.13-.65.13-.95.25-.37.04-.75.01-1.12-.03-.38-.1-.77-.23-1.17-.15-.56.05-.95.55-1.5.62-.29.01-.57-.02-.86-.01-.53,0-1.16.08-1.55-.36-.15-.17-.31-.36-.27-.6.05-.41.02-.89-.36-1.14.02-.57.17-1.24-.22-1.72-.83-1.01-3.06.23-2.43,1.48.29.45-.33.8-.37,1.24-.09,1.26.77,1.2.45,2.18-.01.08-.04.15-.08.22-.12.04-.25.09-.37.09-.45.15-.92.09-1.38.08-.39-.03-.77-.19-1.16-.14-.59.04-1.18.2-1.76.08-.78-.14-1.41-.68-2.19-.82-.52-.13-1.06.13-1.57-.03-.98-.43-.58-2.03-2.31-2.15-.73.03-1.44.24-2.17.32-.74.14-1.55.19-2.19-.29-.61-.52-1.31-.73-2.09-.78-.91-.18-1.37-1.11-2.17-1.49-.5-.28-1.06-.4-1.6-.57-.56-.23-1.08-.52-1.64-.75-.32-.18-.64-.48-.5-.87.14-.49.35-.97.57-1.43.24-.4.54-.78.9-1.08.67-.44,1.09-1.2.77-1.99-.31-.61-1.03-.81-1.57-1.15-.5-.29-.89-.77-1.46-.93-.24-.06-.49-.05-.71-.16-.34-.19-.48-.57-.78-.82-.42-.35-1.24-1.07-1.64-.35-.24-.65.07-1.37-.08-2.05-.06-.35-.18-.7-.36-1-.13-.24-.48-.43-.45-.73.04-.26.38-.3.59-.2.23.17.45.39.76.4.46.04,1.19-.42,1.56-.69.54-.49.31-1.16-.11-1.63-.07-.39-.1-.8-.36-1.12-.25-.45-.99-.11-1.04-.72-.05-.26-.07-.53.07-.77.37-.89,1.5-.22,1.93-1.63.2-1.04.83-1.12,1.33-1.93.35-.54.35-1.19.3-1.8-.03-.43-.24-.82-.55-1.11-.4-.43-.84-.5-1.4-.52-.28-.07-.55-.21-.84-.21-.58.03-1.17.08-1.74.2-.72.13-1.28.66-2,.8-.43.07-1.4-.09-1.77-.3-.32-.5-.9-.7-1.36-1.03-.35-.45.16-.53-.73-1.22-.51-.46-1.19-.68-1.65-1.19-.5-.43-.94-.98-1.55-1.24-.21-.08-.45-.06-.66-.19-1.09-.86-2.41.27-3.39.8-.52.27-1.12.24-1.66.47-.99.4-2.29,1.13-1.99,2.39.17,1.36,1.01,1.4,2.07,1.84,1.19.35-.01,1.44,1.28,1.66-.2.67-.77.69-1.23,1.09-1.17,1.03-.31,1.59-.44,2.83-.01.98,0,2.01.49,2.89.21.43.51.85,1,.98.49.13,1.02.06,1.51.21.32.26-.04.87.79,1.03.48.06,1.03-.29,1.43.13-.32.5-.85.58-1.36.78-1.21.44-1.19,1.18-1.01,2.28.09.9-.48,1.4-1.12,1.92-1.24.89-.51,1.33-1.11,2.09-.35.29-.85.35-1.15.71-.28.31-.35.73-.49,1.11-.14.39-.34.76-.56,1.11-.54.83-1.68.85-2.31,1.58-.25.28-.4.64-.57.98-.35.78-1.23,1.05-1.95,1.37-.48.08-1.53.66-1.91.3-.22-.34-.52-.66-.96-.7-.57-.08-1.11.21-1.48.62-.28.29-.44.68-.74.96-.71.47-1.23,1.25-1.28,2.11.07,1.87,1.49.99,2.04,1.51-.11.63-.52,1.21-.44,1.87.09,1.13.79,1.17,1.7,1.34-.27,1.06.2,2.12.72,3.03,0,.01,0,.02,0,.03-.02.16.03.32-.03.47-.12.28-.37.53-.66.61-.28-.52-.92-.65-1.45-.51-.44.08-.88.34-1.33.19-.54-.16-1.05-.44-1.62-.5-.69-.1-1.39-.03-1.71.67-.33.61-.6,1.25-.93,1.86-.99,2.3,2.37,3.37,4.06,2.67.34-.09.8-.42,1.11-.14.44.68-.16.88-.74.97-.7.2-1.43.16-2.15.16-.3.01-.63-.06-.92.07-.44.2-.52.72-.46,1.15.09.68.97,1.46,1.54,1.82.35.25.69.51,1.03.78.62.64,1,1.45,1.46,2.2,1.12,1.52,2.76.96,4.26.43,1.26-.47,1.8-1.4,1.96-2.7.04-.38.03-.77.17-1.14.52-1.68,1.94-.87,1.08.53-1.07,2.06.92,3.27.27,5.3-.31.76-.67,1.51-.7,2.35-.07.66-.02,1.33.06,1.99.09.77.16,1.55.35,2.3.31,1.75.64,3.51.87,5.28.13,1.74.43,3.51,1.28,5.05.8,1.26,1.53,2.58,2.23,3.9.39.9.73,1.83.93,2.8.2,1.22.16,2.48.64,3.64.25.79.76,1.45,1.18,2.15.56.97,1.11,1.96,1.55,3,.43.97.85,1.94,1.1,2.97.17.97.37,1.93.65,2.87.17.5.49.92.82,1.33.73.95,1.59,1.95,2.81,2.21.98.07,2.07-.69,2.58-1.51.49-.63.51-1.7,1.22-2.07.85-.38,1.69.13,2.19-1.05.28-.72.2-2.58,1.05-2.84.43-.16,1,.02,1.31-.39.26-.31.33-.72.39-1.11.17-.9.05-1.53-.28-2.36-.15-.61.23-1.18.52-1.7,1.12-1.51,1.35-2.8,1.35-4.65.03-.96-.08-1.92-.33-2.85-.16-.85-.26-1.72-.44-2.57-.1-.49-.36-1-.2-1.51.31-.71.72-1.52,1.48-1.81.25.73,1.27.69,1.69.14.34-.34.13-1,.63-1.19.4-.19.83-.33,1.22-.53.58-.26,1.21-.41,1.72-.81,1.17-.79.2-1.47,1.86-2.56,1.08-.61,2.17-1.22,3-2.16.27-.27.51-.56.74-.86.34-.36.75-.64,1.12-.97.51-.45,1.03-.91,1.41-1.47.47-.7.91-1.44,1.57-1.99.61-.5,1.37-.76,2.03-1.18.91-.54,1.9-1.2,2.26-2.24.13-.26.4-.39.58-.6.55-.59.1-1.18-.06-1.81-.08-.5.14-1.09.48-1.45.33-.24.73-.13,1.11-.18.12.02.23-.02.3-.1.28-.08.52-.24.71-.46.4-.4.09-1.03.63-.89.09.23.16.46.29.68.13.3.32.72.72.64.41-.08.78-.27,1.17-.41.59-.13.95-.48,1.1-1.06.1-.35-.03-.72-.06-1.07-.07-.61-.34-1.18-.46-1.78-.09-.35.07-.71,0-1.07-.09-.74-.5-1.4-1.13-1.79-.23-.36.27-.85.31-1.22.06-.41-.13-.85-.45-1.1-.27-.22-.62-.2-.94-.2-1.35-.19-.61-1.21.03-1.78.47-.4,1.26-.23,1.58-.83.28-.53-.13-1.23-.68-1.37-.32-.04-.6-.15-.9-.25-.31-.09-.9-.13-.91-.54.27-.6.83-1.08.83-1.78.73.06.49.63,1.56.62.24.7.97.96,1.61.6.14-.07.24-.26.4-.28.51.4.06,1.1-.03,1.6-.12.96.35,1.31,1.23,1.5.42.11.87.13,1.3.04.17-.03.33-.15.51-.14.77.11,1.55.3,2.33.1.88-.15,1.88-.75,2.69-.08-.1.12-.3.13-.41.26-.19.2-.18.5-.16.76.1.48.14.72-.25,1.08-.35.34-.88.34-1.3.56-.42.18-.75.54-.92.96-.36.8.03,1.42.35,2.14.1.4.34.78.7.99.25.11.33.47.63.53.38.09.71-.22.94-.47.22-.23.14-.55.04-.81.06-.28.03-.59.1-.87.1-.2.36-.32.54-.17.12.17.12.4.15.6,0,.52-.03,1.04.22,1.52.12.31.32.59.38.92.21.75-.02,1.56.22,2.3.1.3.43.52.72.32.22-.12.35-.34.49-.54.12-.19.18-.35.45-.34.54-.04.84-.55.92-1.04.07-.34-.1-.66-.17-.99-.09-.43-.08-.89.09-1.3.63-.22.5-.99.46-1.51-.04-.44-.25-.84-.29-1.28.09-.59,1.83.06,2.33-.44.63-.41.48-1.21.7-1.83.25-.71.76-1.36.8-2.13.02-.42-.31-.68-.57-.94.12-.24.27-.48.51-.6.23-.15.4-.39.53-.63,1.24-2.6-1.09-2.7,1.19-3.54.78-.28,1.25-1.01,1.82-1.56.27-.14.81-.52,1.1-.48.43.11.76.47,1.23.45.59.03.78-.56.61-1.04-.06-.28-.27-.48-.41-.72-.11-.23-.02-.51.08-.73.11-.21.32-.36.42-.58Zm-17.06,2.79s0-.01-.01-.02c0,0,0,.01.01.02,0,0,0,0,0,0Zm-2.31,3.02c.49.05,1.01.11,1.49,0,.22-.09.47-.1.7-.17.24-.04.43-.24.66-.26.47.03.9.19,1.26-.23.03,0,.06,0,.09,0,.37.06.72-.12,1.05-.25.21-.07.44-.11.66-.13.25-.03.51-.05.76-.04.37.05.75.13,1.12.01.75-.29,1.33-.91,1.75-1.58.17-.24.33-.49.5-.74.14-.15.34-.23.53-.3.42-.11.83-.26,1.2-.5.33-.2.69-.37.99-.61.53-.27,1.2-1.07,1.78-.48.07.14-.06.28-.09.42-.14.42-.03.71.3.99.3.38.07.45-.24.66-.21.13-.42.26-.63.38-.28.1-.55.23-.79.4-.14.11-.21.24-.22.38-.38.06-.74.24-1.05.47-.23.16-.39.4-.57.61-.21.25-.3.57-.51.82-.45.47-1.12.78-1.31,1.46-.08.18-.13.4-.28.54-.34.24-.73.45-.93.84-.15.26-.11.58-.04.86.03.15.07.3.15.44-.42.23-.58.74-.73,1.16-.07.25-.09.51-.12.76-.05.21-.14.4-.15.62-.01.16,0,.33,0,.49-.14.06-.29.17-.38.23-.36.21-.72.81-1.19.5-.16-.15-.36-.27-.58-.29.26-.44.13-.74.08-1.4.38-.11.66-.53.56-.91.04-.03.07-.05.11-.07,1.19-.6.77-1.44-.18-2.01-.17-.11-.35-.19-.53-.29-.15-.12-.19-.33-.32-.48-.14-.19-.34-.34-.57-.4-1.21-.35-1.44.36-2.34.85-.22.12-.49.1-.73.04-.14-.04-.22-.17-.34-.23-.18-.12-.41-.14-.61-.19-.14-.03-.27-.08-.41-.1-.39-.02-.78-.04-1.15.07-.25.03-.5.1-.72.22,0-.04-.01-.08-.02-.12-.08-.29-.28-.56-.53-.71.14-.41.16-.9.02-1.32.36-.04.68-.16,1.23-.52.41-.22.85-.05,1.26.05Zm-7.81-1.45c.23-.33.44-.75.28-1.15-.08-.2-.24-.42-.07-.62.2-.33,1.06-.75,1.3-.31.13.44,0,.9.02,1.35.02.28.25.34.36.54.02.08.02.16.01.25-.41.16-.76.45-1.21.52-.27.06-.54-.02-.81,0-.05-.2-.04-.4.1-.57Zm-9.27,2.35c.57.33,1.22.07,1.83.13.42.06.76.28,1.13.46.39.16.77.31,1.19.39.66.12,1.32-.08,1.99-.1.67.12,1.36.23,2.04.15.08-.02.18-.04.3-.06.06.11.12.23.11.36.02.81-.7.66-.18,1.87.07.22.12.46.1.69-.05.12-.18.21-.29.27-.03,0-.05.01-.07.02-.66.11-1.14.65-1.39,1.24-.09.25-.15.5-.28.73-.12.22-.31.38-.5.53-.2.18-.41.36-.65.49-.58.26-1.06.26-1.36-.37-.35-.49-1.13-.63-1.66-.35-.26.13-.39.4-.6.59-.47.38-.68.3-1.22.27-.45,0-.74.36-1.11.56-1.03.28-1.13-.67-2.26-.61-.36-.02-.71.05-1.06.09-.04-.57-.51-1.09-.33-1.76.18-.7.82-1.17,1.44-1.48.41-.12.88-.17,1.21-.47.28-.21.5-.59.37-.94-.17-.36-.6-.47-.84-.77-.18-.19-.27-.48-.23-.74.09-.19.27-.32.36-.51.21-.46.03-1.04-.34-1.36-.38-.28-.65-.75-.65-1.22.16-.03.32-.05.47-.07,1.79-.45,1.27,1.33,2.49,1.95Zm8.35,6.52c.01.51-.02,1.03-.25,1.49-.13.3-.41.49-.64.71-.38.36-.84.59-1.29.85-.46.23-.95.38-1.45.5-.34.05-.67.11-1,.19-.23.06-.48.12-.66.29-.43.41-.32,1.17.17,1.49.42.35.94.18,1.42.23.3.21.09.67.28.95.16.24.44.32.68.47.19.15.4.33.5.55.06.16-.03.33-.03.49-.13-.02-.27-.03-.4-.05-.34-.06-.54-.34-.8-.54-.47-.25-1.06-.46-1.59-.28-.43.15-.26.63-.28.97-.05.71-.63.89-1.22.61-.31-.19-.68-.22-.99-.39-.17-.13-.09-.39-.14-.57-.13-.72-1.3-.24-1.75-.14-.38.07-.78-.02-1.13-.16-.02-.05-.04-.08-.07-.11.02-.07.04-.13.06-.2.33-.35.63-.75.71-1.24.1-.42-.31-.65-.52-.95-.16-.16-.3-.35-.47-.5-.14-.11-.31-.19-.41-.34-.25-.44-.46-.9-.82-1.27-.21-.27-.46-.58-.8-.69.09-.18.17-.37.24-.55.1-.18.21-.37.28-.57.64-.05,1.33-.26,1.91.11.3.25.67.45,1.07.46.63.05.83-.31,1.31-.56.54-.13.84.17,1.42-.23.7-.38.6-1.12,1.68-.7.38.19.39.69.86.83.9.33,1.72-.38,2.33-.97.42-.4.43-1.02.75-1.48.31-.42.46-.5.8-.61.1.16.25.31.3.49.04.22.05.44.04.67-.03.25-.12.5-.1.76Zm-15.98,14.96c.14.34.45.53.69.79.15.21.09.5-.22.44-.23-.05-.44-.18-.67-.23-.45-.12-1.08-.16-1.3.34-.28.62.22,1.19.5,1.72.13.27.26.54.32.83.14.65-.33,1.36-.71,1.85-.22.21-.44.43-.69.61-.18.12-.35.25-.48.43-.28.3-.45.68-.55,1.08,0,.11-.07.28-.09.43-.05-.01-.11-.02-.18-.03-.09,0-.37-.04-.6-.03.1-.25.13-.51,0-.78-.23-.65-.76-1.16-1.27-1.6-.27-.22-.65-.28-.9-.52.12-.12.21-.28.28-.42.13-.25.13-.54.08-.82.09-.17.22-.33.38-.43.28-.1.6,0,.88-.14.32-.2.26-.68.15-.98-.3-.58-1.19-.86-1.05-1.64.02-.4.19-.79.17-1.19-.04-.4-.29-.75-.29-1.15.14-.73.71-1.14.39-1.96.11-.07.2-.16.28-.25.18-.21.24-.48.28-.74.04-.84.29-1.54.9-2.13.34-.16.72-.24,1.02-.48.33-.21.56-.52.75-.86.13-.18.31-.32.49-.46.25-.31.71-.36.91-.71.3-.48-.14-1.03-.63-1.12-.28-.05-.64-.03-.77-.35-.12-.25-.26-.65-.15-.92,0-.01.02-.02.03-.03.36-.17.78.09,1.17.09,1.21.06,1.16.12,2.11-.68.15.1.31.17.48.21.51.13.88-.08,1.15-.41.05.01.1.03.15.04.27.14.45.4.64.63.32.33.49.75.72,1.14.19.29.55.41.74.71.13.13.24.27.36.42.08.1.23.17.25.31-.04.37-.23.73-.51.98-.24.19-.22.52-.37.77-.33.37-.7.72-1.02,1.11-.66.7-.72,1.75-1.3,2.5-.62.81-1.77.48-2.28,1.47-.36.64-.62,1.47-.25,2.16Zm-5.3,11.4c-.06.18-.26.31-.45.25-.67-.48-1.36.02-1.97.37-.35.16-.74.16-1.1.27-1.19.28-.41,1.1-2.02,1.51-.38.08-.79.01-1.14.22-.33.19-.62.51-1.03.53-.42.02-.84,0-1.26.01-.27,0-.66.08-.68-.29-.05-1.51-.61-1.03-.72-1.82-.02-.65,0-1.3.1-1.94.07-.5.55-.77.69-1.24.2-.83.14-1.7,0-2.53.04-.04.08-.1.12-.15.19-.27.39-.53.58-.8.18-.3.27-.66.22-1.01-.04-.54.9-1.01,1.13-1.49.13-.27,0-.56-.05-.84-.03-.3.25-.55.52-.63.81-.03,1.48.59,2.21.87.33.13.69.28,1.04.12.54-.17.67-.53,1.24-.08.64.59-.38,1.41.01,2.08.25.43.75.72,1.24.74.03,0,.07,0,.1,0,.27.39.8.41,1.13.73,2.32,2.16-.16,1.71,1.48,3.13.21.24.02.68-.25.79-.16.06-.29.17-.43.26-.19.1-.42.1-.61.2-.28.16-.07.5-.11.75Zm-19.01-20.68c.31-.11.65-.35.84-.49.42-.31.69-.77.87-1.24.36-.69.39-1.36.08-2.07-.19-.52-.63-1.05-.36-1.62.25-.5.89-.66,1.39-.52.19.08.29.29.49.36.4.13.81.12.86.65.02.65-.56,1.14-.56,1.79-.14,1.07,1.19.78,1.73.36.43-.3.81-.71,1.31-.89.38-.24.94-.07,1.23-.44.28-.41.32-.92.23-1.4-.05-.42.38-.55.67-.72.38-.22.69-.65.53-1.1-.27-.74-1.01-.41-1.57-.38-.69.02-.82-.73-.58-1.25.25-.34.62-.58.98-.78.4-.2.83-.34,1.22-.57.68-.39,1.32-.86,1.87-1.4.16-.17.29-.33.36-.49.29.01.57.05.85.09.34.1.72.02,1.03.21.34.23.6.61.6,1.03-.02.27-.18.5-.26.75-.31,1.11-.56,1.02-1.42,1.63-.78.57-.9,2.06-.98,2.97-.16.95.58,1.88,1.51,2.02.38,0,.79-.08,1.12-.26.43-.35.31-1,.06-1.43-.27-.75-1.05-.86-.81-1.76.03-.31.37-.56.66-.44.21.11.28.34.41.52.4.5,1.15.65,1.74.49.31-.08.52-.31.73-.53.2-.14.55-.18.76-.06.23.51.57,1.01,1.15,1.14.5.12,1.01-.04,1.46-.24.33-.17.58-.45.96-.5.72-.14,1.36.31,1.92.69.38.19.77.35,1.2.38,1.16.19-.02,1.22.63,2.06.09.15.2.3.32.43-.24.14-.52.46-.71.51-.21.12-.44.04-.67.04-.21-.01-.43,0-.64-.04-.38-.09-.81-.22-1.17,0-.58.38-.15,1.72.42,1.93.2.12.45.06.66.14.2.06.42.28.3.49-.12.19-.37.22-.54.36-.22.2-.46.38-.68.59-.38.45-.47.83-1.07,1.11-.36.17-.8.23-1.03.59-1.18,1.33-.44,2.38-1.23,2.87-.1.06-.22.14-.34.1-.12-.07-.27-.09-.37-.19-.11-.25-.28-.52-.59-.54-.5-.06-.9.44-1.4.29-.9-.09-.88-.91-1.88-.53-.25.08-.48.19-.68.36-.23.11-.52.02-.76,0-.32-.06-.64-.07-.97-.03-.37.05-.76.15-1.03.43-.17.17-.3.4-.54.48-.36.11-.8-.04-1.01-.36-.11-.35.04-.81-.3-1.08-.47-.46-1.79.04-2.07.54-.2.35-.18.81-.46,1.12-.26.26-.77.46-1.06.14-.12-.15-.11-.35-.18-.52-.09-.36-.48-.5-.82-.49-.97.04-2.05.13-2.85-.51-.16-.11-.32-.2-.5-.27-.31-.11-.74-.11-.85-.49-.07-.23-.14-.46-.31-.63-.14-.17-.34-.28-.55-.31.04-.27.06-.54.15-.8.13-.41.48-.68.7-1.04.22-.42.04-.9-.22-1.26Zm18.37-17.62c.39.15.75.39,1.14.53.63.21,1.3.33,1.86.71.68.54,1.26,1.3,2.18,1.41,1,.05,1.24.3,2.03.82.92.53,1.97.34,2.98.15,0,.03,0,.06.01.09.03.37.23.71.42,1.02.32.35.79.62.63,1.18-.09.21-.31.35-.39.58-.12.42.04.9.33,1.2.14.24.83.46.72.75-.23.63-1.03.54-1.54.81-.8.45-1.62,1.2-1.54,2.2.03.3.1.6.21.88.07.17.17.34.15.52-.02.3-.22.55-.34.82-.3.98-.99,1.45-1.77.58-.83-.81.2-1.59-.49-2.26-.39-.35-.96-.23-1.4-.47-.3-.1-.54-.31-.81-.47-.55-.33-1.22-.55-1.85-.35-.33.07-.58.3-.86.47-.59.3-1.45.43-1.84-.24-.3-.55-.38-.83-1.1-.74-.45-.02-.67.4-1,.61-.39.18-.86.08-1.23-.11-.2-.12-.28-.35-.42-.54-.29-.46-.97-.47-1.33-.08-.38.44-.42,1.2-.06,1.67.2.24.46.43.59.73.16.31.46.86.06,1.09-.27.07-.56.19-.84.14-.41-.13-.79-.41-.97-.81-.24-.67-.01-1.41.08-2.09.21-1,.4-1.26,1.27-1.77.63-.31.77-1,1-1.6.47-.76.05-1.75-.7-2.14-.18-.09-.38-.12-.58-.12-.4-.05-.8-.13-1.21-.16-.07,0-.13,0-.2,0-.06-.11-.17-.22-.35-.32-.39-.18-.83,0-1.22.1-.66.13.09-.78-.05-1.15-.04-.57-.4-1.03-.73-1.47-.03-.04-.06-.08-.09-.12.15-.08.29-.17.43-.24.52-.49.5-1.61-.17-1.98-.04-.02-.08-.04-.12-.05.05-.3,0-.72-.06-.87-.08-.25-.2-.5-.33-.73,0-.01,0-.02-.01-.03.18-.74-.59-2.07-.07-2.76.45-.51,1.08-.95,1.14-1.7,0,0,0,0,0,0,.2.12.44.19.63.32.17.09.15.33.05.47-.4.42-.5.99-.2,1.5.22.53.83.74,1.19.21.34-.51.69-.23,1.1.02.81.56.44.51.66,1.23.5.94,1.91,1.72,2.96,1.76.27.03.53-.05.79-.12.22.42.67.73,1.25.94Zm-13.44-.18c-.19-.34-.6-.5-.77-.85-.29-.87.22-.98-.8-1.81-.37-.24-.82-.34-1.26-.36-.97.17-.89-.66-.81-1.35.02-.16.07-.4.07-.6.15,0,.3,0,.45,0,.98.07,1.1.96,1.66,1.19.39.07.76-.1,1.11-.24.19-.07.39-.05.58-.09.24-.07.5-.09.72-.2.51-.28.86-.78,1.18-1.26.3-.52.45-.42.8-.75.28-.45.2-1.15,0-1.67.31.08.63.25.79.51.11.6.32.95.87,1.05,0,.66-.48,1.14-.94,1.55-.29.3-.44.72-.41,1.13-.09.5.63,1.99.08,2.15-.27.03-.58.02-.77.25-.35.47-.14,1.25.35,1.54.54.47,1.37-.28,1.61.54.05.33.06.82-.28,1-.37.12-1.03.71-1.35.27-.15-.48-.17-.96-.79-1.04-.75-.13-1.26,1.28-1.78.66-.45-.46-.1-1.12-.33-1.64Zm3.9-.07c-.31.03-.63.11-.88-.16-.2-.19-.37-.83,0-.91.29,0,.49-.06.64-.15.08.14.16.28.2.44.13.28.07.57.04.79Zm5.49-8.96c.29.18.58.37.81.63.25.37.58.74,1.04.85.32.07.66.07.92.29.48.36.95.76,1.51.99.47.22.94.57.68,1.14-.18.34-.53.51-.79.77-.63.62-1.04,1.4-1.33,2.23-.16.37-.21.69-.17.97-.36.09-.94.25-1.77-.2-.58-.31-1.22-.66-1.51-1.28-.06-.21.02-.43-.08-.63-.24-.5-1.12-1.1-1.68-1.1-.36,0-.56.34-.79.57-.33.22-.63-.68-.5-.92.17-.35.56-.67.39-1.1-.12-.39-.56-.47-.88-.66.29-.17.49-.54.57-.85.09-.37.05-.77.21-1.12.17-.29.46-.58.82-.59.6-.04.73.34,1.44.06.27.41.82.46,1.09-.05Zm-1.28-1.57c-.04.41-.09.85.03,1.25-.22.08-.47.1-.69,0-.67-.27-1.37.06-1.73.65-.23.38-.21.83-.28,1.25-.07.26-.21.61-.5.67-.2-.04-.47-.02-.59-.21-.17-.22-.13-.52-.28-.75-.32-.37-.82-.67-1.32-.67-.14-.32-.18-.68-.32-1.01-.3-.62-1-.82-1.44-1.3-.3-.36-.57-.8-.58-1.27.01-.33.26-.59.34-.9.05-.32-.11-.71-.38-.92.06-.1.11-.22.14-.35.06-.26.06-.56.31-.73.65-.64,1.04-.45,1.82-.65.03-.01.06-.02.09-.02.08.11.18.21.29.31.28.28.6.52.93.74.49.35,1.23.42,1.7,0,.28-.12.46.17.52.4.26.86.72.17,1.18.6-.09.23-.1.48,0,.72.12.25.32.45.49.67.27.46.32,1,.28,1.52Zm-13.07-12.25c.16-1.31-.95-1.58-1.94-1.95-.57-.12-.72-.65-.75-1.17-.04-.83,1.06-1.19,1.68-1.49.38-.13.78-.15,1.16-.27.77-.25,1.38-.84,2.14-1.11.79-.26.69-.06,1.32.22.36.07.71.16.98.43.54.44.97,1.01,1.58,1.35,2.22,1.29.7,1.08,1.84,1.98.3.19.63.33.9.56.17.16.27.38.49.48.59.22,1.24.34,1.87.35.62-.04,1.18-.32,1.71-.63.42-.2.89-.28,1.35-.32.3-.02.61-.09.91-.06.37.11.73.25,1.13.23.36.02.65.34.83.64.15.35.09.76.1,1.13-.08.79-.84,1.19-1.26,1.79-.32.43-.23,1.14-.74,1.42-.46.19-1.06.23-1.33.71-.63.87-.42,2.46.86,2.49.22.28.15.65.27.96.39.69.72.73-.2,1.18-.94.64-.68-.35-1.77-.22-.23.02-.43.13-.58.28-.26-.22-.58-.28-.94-.2-.11-.22-.16-.47-.32-.66-.22-.25-.63-.32-.91-.13-.33.33-.88.24-1.23-.02-.38-.29-1.03-.7-1.21-1.15.06-.54-.29-.98-.58-1.41-.48-.64-1.18-1.03-1.8-1.51-.2-.21-.81-.54-.79-.82.09-.45.05-.92-.26-1.28-.32-.49-.91-.61-1.44-.69-.21-.14-.33-.38-.54-.53-.55-.38-1.27-.63-1.91-.39-.11-.11-.3-.18-.58-.22Zm3.19,8.99c-.34-.09-.67.12-1.01.06-.1-1.33-1.22-1.01-2.17-1.21-.31-.09-.45-.4-.59-.67-.51-.93-.38-2.01-.4-3.03.04-.88-.61-1.29.35-1.95.28-.19.62-.28.85-.55.26-.33.5-.73.52-1.05.24-.08.51-.11.75-.03,1.17.34.97.96,1.71,1.01.56.01,1.12.42,1.18,1,.02.29-.13.61.04.88.59.71,1.45,1.16,2.15,1.75.35.33.83.92.93,1.4-.01.11,0,.21.01.3-.08.03-.17.06-.25.07-.38.07-.78.05-1.13.23-.35.2-.77.49-.95.86-.1.3-.08.66-.32.9-.21.22-.5.35-.78.47-.2-.25-.54-.42-.89-.45Zm-2.94,6.59c1.04-.82,1.81-1.5,1.6-2.96-.02-.31-.16-.65,0-.94,0,0,0,0,0,0,0,0,0,0,0-.01,0,0,0,0,.01-.02,0,0-.01.02-.02.03,0,.01-.01.02-.02.03.49-.68,1.54-.45,2.15-1.29.21-.2.29-.42.27-.61.04-.02.07-.04.12-.04.24-.11.49-.24.69-.42.09.06.18.13.23.34.1.29-.23.57-.28.86-.19.73.28,1.47.77,1.98.42.41,1.09.6,1.31,1.2.1.31.13.64.29.93.25.39.34.84.31,1.3,0,.56-.44.33-.84,1.02-.34.47-.7,1.12-1.3,1.27-.15.02-.29.06-.44.1-.21.03-.42.02-.61.1-.26.07-.75.38-.97.14-.6-.84-1.15-1.21-2.21-1.12-.33.02-.67-.02-1-.08-.24-.04-.48-.06-.71-.13.45-.57.1-1.17.64-1.67Zm-10.7,16.08c-.13-.75-1.02-.48-1.5-.77-.24-.19-.21-.57-.17-.85.18-.79.93-1.82-.21-2.23-.4-.2-.89,0-1.28-.22-.32-.53.03-1.22.38-1.67.35-.32.78-.58,1.01-1.02.29-.44.74-1,1.33-.82.26.09.33.41.55.56.38.32.91.27,1.35.14,1-.29,2.03-.6,2.87-1.24.4-.31.61-.77.82-1.21.37-.95,1.53-.97,2.2-1.61.5-.42.77-1.04,1.03-1.63.18-.43.2-1.02.69-1.22.28-.11.49-.22.65-.33.03.01.06.03.09.04.27.12.57.13.86.18.25.06.51.08.77.09,0,.07,0,.15,0,.22-.02.21-.07.42-.08.63-.04.51-.02,1.13.46,1.43.36.2.79.03,1.17.15.41.07.78.27,1.02.62.31.43-.05.93.42,1.49.17.25.46.39.63.64.07.18.02.38.02.56-.04.47.12.99.5,1.29.94.78,1.64-1.34,2.2-.44.08.38.17.88.64.95.28.05.55-.02.82-.14.25.36.56.69.71,1.11.32.62-.4,1.1-.06,1.64.45.65,1.35-.34,1.8.23,0,.01,0,.03,0,.04-.45.73-1.6,1.47-2.35,1.86-.59.26-1.21.48-1.69.93-.64.45-.77,1.58-.11,2.07.59.43,1.13.02,1.71.12.32.2.13.61-.14.76-.31.2-.72.32-.86.71-.19.5.14,1-.19,1.5-.09.2-.36.14-.53.19-.25.05-.49.15-.72.25-.55.25-.95.74-1.48,1.02-.24.12-.52.17-.78.13-.11-.18-.03-.44.02-.64.15-.46.49-.86.49-1.36.03-.44-.26-.91-.69-1.03-.16-.05-.35-.03-.49-.16-.36-.44-1-.46-1.5-.29-.91.28-1.19,1.31-.73,2.1.21.46.46.94.44,1.46-.05.48-.29.94-.51,1.37-.29.52-.84.87-1.4,1.05-.6-.47-1.33-.74-1.94-1.19-.31-.24-.31-.65-.41-.99-.61-2.09-.96-2.35-3.07-2.87-.47-.09-.97-.06-1.38-.37-.75-.4-1.66-.51-2.48-.25-.05.01-.11.02-.16.03-.09-.24-.27-.44-.37-.68-.19-.38-.32-.78-.4-1.19-.13-.39.07-.76.04-1.14Zm5.04,13.94c.07-.89.88-1.58.49-2.53-.46-1.19-1.87-.91-2.36.09-.48.79-.32,1.74-.6,2.59-.25.98-1.26,1.41-2.16,1.61-.89.34-2.01.47-2.64-.41-.57-.93-1.03-2-1.95-2.65-.67-.51-1.4-.94-1.89-1.65-.1-.15-.1-.33-.09-.5-.01-.26.27-.19.44-.19.9.01,1.82.06,2.69-.2.35-.07.73-.16.99-.42.75-.74.06-2.24-1.03-1.95-.6.13-1.16.45-1.78.45-.84-.09-1.89-.27-2.31-1.09-.22-.62.25-1.18.51-1.71.2-.41.33-.87.66-1.21.43-.19.96-.06,1.4.07.49.16.97.44,1.49.42.48,0,.92-.26,1.4-.28.35-.03.42.26.64.44.42.31.96-.01,1.28-.32.3-.27.5-.68.5-1.09.13-.04.26-.05.39-.09.65-.2,1.38-.08,1.99.2.33.19.67.38,1.06.38.83.11,1.73.32,2.41.82.49.43.58,1.11.81,1.69.15.48.16,1.04.6,1.35.6.45,1.33.71,1.93,1.18.03.02.07.04.11.06.8,1.1.15.99-.34,1.97-.16.36-.18.75-.25,1.14-.03.02-.05.05-.06.08-.95.37-1.69,1.39-.19,1.6.29.02.24.27.13.46-.24.26-.62.34-.85.61-.47.41-.3,1.05-.33,1.59-.04.65-.39.31-.74.79-.35.34-.44.91-.88,1.15-.31.17-.67.17-1.02.15.17-.44.31-.89.25-1.39.1-1.14-.76-2.1-.7-3.22Zm.64,12.79c-.15-.91-.28-1.83-.49-2.73-.18-1.37-.45-2.78-.17-4.16.07-.3.19-.59.31-.88.06,0,.11,0,.16.01.63.04,1.34-.07,1.69-.65.21-.3.33-.66.62-.9.15-.14.38-.11.52-.27.41-.52.09-1.21.28-1.78.21-.43.77-.49,1.04-.86.18-.27.26-.68.02-.93-.25-.25-.68-.12-.92-.35.14-.46.66-.48.96-.75.55-.01.54.61.8.98.23.3.62.34.95.44.31.12.56.35.85.5.61.32,1.31.32,1.98.33.45.02,1.11-.25,1.15.43.05.37.38.66.74.7.4.05.82-.14,1.1-.42.31-.32.34-.79.51-1.18.17-.32,1.3-.79,1.52-.38,0,0,0,0,0,0,0,0,0,0,0-.01,0,0,0-.01-.01-.02.14.28,0,.62.15.89.31.54,1.08.79,1.64.51.5-.28.52-.71,1.19-.81.63-.15,1.25.14,1.87.03.18-.05.31-.2.47-.28.23-.1.46-.2.71-.2.23.05.38.29.59.4.33.16.71.26,1.07.26.37-.01.66-.32,1.03-.32.33.09.13.47.73.65.16.1.34.11.51.07.06.19.08.41.01.6-.53,1.16-.57,1.05-.15,2.28.05.55-.26,1.11-.13,1.67.06.37.35.65.61.91.3.25.6.5.47.93-.27.07-.55,0-.81.11-.3.15-.73.59-.64.95.08.33-.08.65-.32.87-.28.12-.69-.16-.88-.36-.45-.45.46-1.24.06-1.99-.24-.47-.84-.78-1.35-.61-.6.35-.77.42-1.42.1-.68-.29-1.31-.79-2.07-.85-.5-.05-1,.36-1.09.84-.04.22.02.44.08.65.09.3-.26.47-.42.66-.24.25-.52.49-.68.81-.1.21-.05.44-.05.67-.06.57-.52.98-.83,1.43-1.05-.54-1.59.32-2.28.94-.21.17-.42.34-.64.51-.38.22-.74.42-.83.89-.11.3-.22.94-.67.77-.61-.28-1.63-.77-2.04.04-.17.32-.13.72-.3,1.04-.23.3-.67.31-1.02.35-.46.05-.93.12-1.36.31-.43.19-.88.37-1.26.65-.36.26-.32.75-.19,1.12.15.46.14,1.02-.11,1.44-.09.12-.25.11-.38.17-.11.04-.2.1-.3.16,0,0-.02-.01-.03-.02-.01,0-.02,0-.03,0-.4-.18-.79-.41-1.23-.4-.09-.01-.23,0-.36.04-.28-1.1-.35-2.24-.49-3.37-.15-.87-.22-1.76-.44-2.62Zm1.04,6.38c.47-.13.92.2,1.36.36.04.04.09.08.13.12.76.61.74,1.67.2,2.42-.03.06-.08.11-.13.16-.1-.18-.2-.35-.31-.53-.44-.67-.86-1.35-1.1-2.12-.05-.14-.1-.28-.15-.42Zm2.8,5.33c-.34-.64-.69-1.27-1.04-1.9.21-.19.4-.5.46-.64.48-.85.31-1.87-.34-2.52.05-.03.09-.05.14-.07.62-.08.78-.74.81-1.27.1-.49-.29-.97-.15-1.4.15-.2.41-.29.63-.41.28-.14.56-.26.86-.37.58-.22,1.22-.14,1.8-.34.8-.27.61-.91.89-1.52.14-.25.44-.16.67-.13.48.09.93.57,1.43.32.49-.27.49-.9.74-1.34.13-.14.31-.21.47-.32.32-.23.62-.48.92-.74.27-.28.53-.59.89-.78.23-.14.5-.06.73.04.04.02.08.04.12.05.1.53.14,1.07.1,1.61-.03.62-.11.85-.52,1.31-.33.46-.33,1.05-.36,1.6-.01.42-.06.85,0,1.27.03.37.37.55.55.84.12.25.1.61.17.91-.17-.01-.33-.1-.51-.09-.54.02-1,.53-1.05,1.06-.16.57.68,1.49.04,1.88-.37.16-.79.33-.96.73-.23.6.03,1.31.43,1.77.37.42,1.14.01,1.35.43.31.52-.47.65-.3,1.24.13.45.72.6,1.11.39.67-.49,1.1-.36,1.56.31.21.37.61.52.93.76.61.65,0,1.2-.39,1.76-.13.17-.39-.02-.58.01-.26-.02-.56-.01-.83.09-.59.21-1.15.7-1.2,1.35-.01.4.33.66.5.99.08.2.22.45.08.65-.38.44-.96.67-1.5.86-.54.23-1.11.33-1.7.32-1.24-.14-.67-.16-1.62-.74-.53-.3-1.1-.58-1.55-1-.31-.43-.51-.93-.82-1.35-.4-.56-1-1.03-1.69-1.17-.03-.3-.06-.6-.09-.9-.2-1.24-.62-2.44-1.17-3.56Zm6.34,18.05c-.19-.37-.28-.78-.35-1.18-.22-.73-.32-1.48-.49-2.23-.52-1.77-1.31-3.45-2.19-5.06-.54-1.06-1.34-1.97-1.69-3.12-.18-.51-.26-1.04-.32-1.57.43.13.8.4,1.11.72.91,1.15.61,1.6,2.08,2.39.43.25.89.47,1.25.82.02.02.04.04.06.06-.02.11.07.2.06.31,0,.31.06.61.21.89.15.34.53.51.67.86.14.31.27.63.28.97,0,.67-.36,2.02.8,1.73.33-.15.46.02.58.32.07.49-.2.98-.08,1.48.06.36.56.42.57.79.01.3-.17.55-.29.81-.11.21-.2.48-.22.72-.03,1.07.34,1.02-.15,2.26-.05.03-.09.1-.11.19-.04-.03-.07-.05-.11-.08-.64-.61-1.2-1.31-1.68-2.06Zm12.48-13.57c0,.89-.17,1.8-.58,2.6-.32.57-.74,1.08-1.01,1.68-.76,1.46.21,1.87.08,3.21-.07.41-.03.96-.35,1.26-.72.03-1.57.19-1.83.96-.3.7-.41,1.45-.52,2.2-.1.79-.83.62-1.4.72-.55.11-1.06.45-1.31.97-.37.78-.59,1.7-1.34,2.23-.95.65-1.39.62-2.06.16.12-.2.18-.55.25-.69.22-.58.16-1.12.04-1.71-.08-.64.44-1.1.52-1.7.03-.27-.05-.55-.26-.73-.86-.48.29-1.43-.51-2.24-.41-.55-1.02.15-1.14-.26-.06-.42.07-.85.04-1.27-.03-.45-.2-.89-.42-1.29-.14-.27-.44-.41-.58-.69-.17-.26-.15-.55-.18-.84.17.02.35.02.51.07.56.05,1.16-.02,1.7-.21.71-.25,1.49-.51,1.99-1.1.31-.4.07-.94-.17-1.31-.11-.18-.3-.33-.32-.55.07-.6.71-1.01,1.29-1.06.19,0,.38,0,.57.03.04,0,.09.02.14.02.04.05.09.1.13.15.23.29.48.62.88.65.77.05,1.06-.77,1.52-1.21,1.43-1.14,1.89-.6,3.35-.9.34-.12.65-.34,1-.42.01.43,0,.86-.02,1.28Zm1.9-9.56s-.01,0-.02-.01c0,0,.01,0,.02.01-.01-.01,0,0,0,0,0,0,0,0,0,0,0,0,0,0-.01-.01Zm12.05-10.49c-.69.93-1.74,1.52-2.5,2.38-.64.81-1.4,1.54-2.29,2.06-.86.5-1.82.96-2.36,1.83-.23.37-.21.85-.44,1.21-.31.3-.7.51-1.11.66-.46.15-.89.37-1.33.56-.41.17-.87.3-1.17.65-.3.29-.15.8-.45,1.07-.11.07-.26.14-.39.06-.13-.19-.21-.49-.47-.54-.76-.07-1.36.6-1.77,1.16-.89,1.33-.74,1.75-.34,3.23.17.99.29,1.98.54,2.96.07.35.12.7.14,1.05-.21.03-.41.13-.61.2-.7.49-1.56.24-2.35.38-.71.17-1.41.55-1.9,1.1-.51.75-.9,1.29-1.58.33.31-.28.51-.69.74-1.04.26-.56-.02-1.29-.57-1.57-.84-.38-.9-1.51-2.1-1.24-.34.06-.58.45-.95.32-.53-.26.37-.66.22-1.09-.24-1.33-1.26-.44-1.66-1.06-.25-.41-.49-1.1-.02-1.44.26-.19.62-.23.83-.48.26-.32.19-.78.1-1.15-.07-.25-.22-.48-.2-.74,0-.35.24-.69.58-.79.18-.03.35.07.52.09.1.02.18,0,.24-.02.08.08.19.14.35.16.27.03.54.01.81,0,.4-.01.81.03,1.2-.03.43-.08.73-.44,1.12-.61.86-.15,1.13-.04,1.93-.6.33-.19.38-.6.61-.86.35-.24.81-.23,1.21-.34.47-.1.82-.46,1.27-.6.4-.21.68.24,1.08.16.51-.07.77-.61.62-1.08.3-.05.58-.17.82-.37.5-.16.8-.7.69-1.21-.07-.31-.43-.46-.59-.71.04,0,.08-.03.11-.06.17,0,.34,0,.51.03.27.02.5.15.77.16.55-.03,1.07-.23,1.6-.37.84-.25,1.24-.72,1.44-1.56.08-.37.39-.4.68-.55.31-.14.63-.26.94-.4.5-.29.83-.79,1.25-1.18.67-.61,1.02-.25,1.74-.06.37.08.76.07,1.11-.06.61-.21,1.18-.93,1.85-.78-.17.25-.34.51-.51.76Zm6.51-8.64c-.34.74-.11,1.44.18,2.14-.02.41-.55.55-.71.9-.16.25-.2.57-.42.79-.81.92-1.93,1.47-3.01,2.03-.76.38-1.31.99-1.79,1.65-.13-.05-.28-.08-.42-.07-.65,0-1.14.48-1.68.76-.23.11-.49.16-.74.15-.33-.01-.64-.15-.94-.26-.44-.14-.95-.03-1.3.27-.45.36-.77.86-1.24,1.2-.51.27-1.09.42-1.58.73-.44.38-.32,1.08-.79,1.44-.46.38-1.08.45-1.64.62-.3.09-.47.1-.63.08.06-.1.07-.22-.03-.29.09-.61.45-1.15.97-1.48.5-.4.96-.86,1.22-1.45.55-.9.26-1.73-.23-2.57-.18-.33-.51-.71-.35-1.11.34-.53,1.33.22,1.79.13.82-.17.55-1.1-.01-1.44-.47-.42-.49-1.05-.3-1.61.45-1.26.97-.99,1.97-1.49.66-.4.94-1.14,1.19-1.83.28-.87.94-1.51,1.56-2.14.03-.03.05-.06.08-.09.13.08.32.16.62.21.81.24,1.36-.28,2.12-.19.02,1.07.48.87,1.26,1.23,1.26.64,2.07-.18,1.89-1.49.39-.18.86.03,1.23.2.25.19.44.46.75.54.94.28.89-.06,1.77.74.28.2.37.37.42.52-.6.11-1.01.6-1.21,1.2Zm5.34-7.94s0,.02,0,.03c0,0,0-.02,0-.03,0,0,0,0,0,0Zm2.06-8.62c-.17.1-.29.29-.5.3-.63.08-.21-.87-1.38-.78-.23-.09-.36-.33-.6-.43-.37-.19-.92-.29-1.2.08-.22.3-.1.73-.36,1.02-.43.68-1.02,1.35-.2,2.01.43.34,1,.33,1.48.56.16.06.35.04.5.12.11.08.25.27.15.39-.27.19-.64.14-.92.31-.68.33-1.23.98-1.48,1.7-.22.68.35,1.34,1,1.49.31.14.81-.04.99.17.34.33-.04.7-.14,1.05-.16.45-.16,1,.29,1.27.43.25.69.67.79,1.15.07.27-.02.53-.02.8,0,.4.12.79.23,1.18.14.36.23.73.28,1.11.06.38.16.72-.09,1.05-.11.16-.32.17-.49.24-.32.11-.63.26-.96.35-.09-.21-.21-.4-.29-.61-.05-.17-.11-.36-.25-.49-.39-.36-1.11-.25-1.39.2-.14.22-.08.49-.22.71-.11.21-.4.26-.63.35-.12,0-.25.03-.36.03-.04-.12-.09-.24-.14-.32-.24-.37-.61-.61-.95-.88-.13-.11-.27-.18-.42-.22.02-.06.03-.14.03-.2-.02-.16.1-.35-.04-.47-.12-.35-.41-.61-.7-.82-.15-.11-.34-.15-.49-.28-.17-.21-.04-.55-.17-.79-.08-.18-.22-.34-.42-.4-.38-.08-.79.1-1.15-.08-.34-.15-.53-.6-.28-.91.16-.16.41-.18.63-.24.35-.1.71-.11,1.06-.21.69-.17,1.34-.44,1.94-.83.48-.25.87-.64,1.26-1.01.36-.41.5-.96.55-1.48.01-.41-.01-.82.1-1.21.03-.34.03-.7-.08-1.03-.06-.15-.17-.27-.26-.41.16-.11.32-.25.38-.44.08-.4-.04-.82-.19-1.19-.15-.38-.04-.57.17-.88.18-.33.16-.72.02-1.06.02,0,.03,0,.05-.01.04.01.09.02.14,0,.13-.02.21-.1.27-.2.05-.05.08-.1.08-.17.02-.04.04-.09.06-.13.18-.53.29-1.12-.06-1.61-.03-.04-.06-.09-.09-.14.49.05.98-.03,1.42-.27.14-.06.26-.15.4-.22,0,0,0,0,0,0,.07.48.43.9.83,1.15.46.27.99.29,1.51.27.26,0,.48,0,.66.01.11.25.11.55.1.82-.01.13-.04.25-.09.37-.13,0-.26.04-.39.13Zm7.95,2.61c-.53-.1-1.06.05-1.57.2-.42.11-.85.23-1.29.26-.49-.01-.98-.09-1.46-.18-.47-.1-.89.25-1.37.18-.36-.03-.72-.12-1.05-.27-.14-.05-.12-.24-.14-.36-.02-.27.14-.52.19-.79.03-.1.05-.2.06-.3.03-.02.05-.06.07-.1.28-.21.63-.23.96-.3.26-.05.52-.02.78-.02.26.04.51.12.77.18.12.04.2.13.3.2.27.2.65.21.97.16.28-.06.53-.23.76-.39.4-.36.84-.75,1.42-.58.73.1.53.76,1.17.99.37.22,1.16.6.98,1.12-.17.19-.4.31-.62.45-.26-.24-.61-.38-.94-.45Zm-.33,5.69c-.16.24-.16.54-.17.82-.05.29-.09.57.04.85-.06.07-.14.13-.22.19-.36-.54-.71-.36-.88-1.1-.18-.49-.6-.99-.37-1.54.32-.98,1.54-.7,2.14-1.4,0,0,.01-.01.02-.02.13.02.27,0,.39.04.08.04.15.1.22.15-.02.16.03.36,0,.51-.02.29-.08.57-.14.86,0,.04-.02.08-.03.12-.39-.03-.82.16-1.02.52Zm4.36,1.01c-.66.25-.65,1.3-.59,1.89.06.48.38.91.04,1.35-.07.07-.2.07-.3.09-.44.01-.65.38-.87.72-.03-.82.04-1.68-.3-2.46-.13-.26-.27-.52-.36-.79-.16-.66.09-1.43-.35-2.01-.06-.08-.14-.14-.22-.19,0-.01,0-.02-.01-.03.05-.27.11-.54.15-.81.04-.2.02-.4.03-.59.01,0,.03,0,.04,0,.57.07.92-.48,1.36-.74,0,0,0,0,0,0-.01.1-.01.21.04.31.21.42.67.62,1.13.72-.22.43-.01,1.02.14,1.52.06.34.09.69.05,1.03Zm2.81-4.76c-.13.32-.19.67-.23,1.01-.03.16-.03.35-.13.49-.34.45-1.38.06-2.01.23-.09-.15-.38-.11-.38.11-.36-.07-.83-.18-1.01-.54.01-.21.06-.42.02-.63,0-.18-.01-.37.02-.56.04-.18.12-.34.14-.53.02-.42.13-.84.33-1.21.1-.27.27-.33.39-.38.08.04.16.07.26.08.78.07.77-.94,1.29-1.29.29-.3.62-.28.99-.41.43-.16.49-.11.71.29,0,0,0,0,0,.01-.21.3-.37.65-.14.97.11.2.33.3.45.49.1.45-.54,1.4-.69,1.87Zm1.44-4.75c-.17.69-.36.72-.77,1.09-.29-.47-.56-.58-1.19-.33-.17.07-.36.07-.54.13-.4.17-.75.49-.96.87-.12.19-.17.43-.34.59-.28.23-.5-.15-.52-.4-.07-.24-.13-.53.04-.74.25-.39.77-.48.99-.89.44-1.09.42-.9,1.29-1.64.27-.24.39-.58.58-.88.14-.19.3-.39.47-.56.27-.23.6-.39.95-.47.01,0,.03,0,.04,0,.07.15.17.29.27.41-.06.05-.12.11-.18.17-.71.88.37,1.46-.12,2.64Zm5.24-6.52c-.15.77.42.92.5,1.51-.19,0-.35-.11-.51-.2-.27-.15-.58-.27-.89-.25-.48.1-.92.38-1.34.64-.37.31-.63.73-.99,1.04-.26.23-.56.41-.89.51-.17.06-.33.14-.48.23-.45-.5-.38-.66.41-.95.3-.14.58-.34.86-.52.18-.12.39-.24.45-.46.06-.29-.08-.6-.29-.81-.16-.12-.24-.27-.18-.47.05-.22.2-.44.13-.67-.09-.31-.42-.5-.72-.55-.45-.08-.85.17-1.19.43-.28.17-.56.35-.82.55-.2.13-.42.22-.62.35-.33.22-.69.37-1.07.46-.28.09-.57.22-.78.44-.33.44-.59.92-.95,1.35-.43.44-.96.98-1.63.89-.86-.16-1.75-.04-2.55.31-.1.04-.21.05-.32.04.03-.17.02-.36-.03-.53-.06-.33-.15-.68-.39-.93-.59-.58-1-.09-1.56-.49.33-.9.44-.06,1.76-.29.49-.1,1.11-.25,1.28-.79.14-.81.26-.54.85-.92.51-.38.9-.92,1.05-1.54.07-.2.6-.22.8-.27.28-.05.53-.2.77-.35.6-.26.56-.7.83-1.19.31-.39.72-.8,1.23-.87.22-.04.35.21.56.25.38.13.8.16,1.19.12.62-.08.94-.68,1.33-1.1.37-.2.84-.12,1.23-.03-.02.28-.21.52-.25.8-.1.59.5.7.93.46.37.35-.05.71-.08,1.09-.08.45.34.8.76.77.33.01.65-.1.97-.12.4,0,.8.23,1.08.49.41.59-.36.58-.45,1.57Z"/>
        <path class="cls-2" d="m13.38,57.41s0,0,0,0c0,0-.01,0-.02,0,0,0,.03,0,.03,0Z"/>
      </g>
      <g>
        <path class="cls-1" d="m33.7,73.99v-.53s-.06,0-.09,0c-.03,0-.04-.02-.04-.04,0-.02.02-.04.04-.05,0,0,.02,0,.03,0,.05,0,.11,0,.16,0,.26,0,.51,0,.77,0,.01,0,.02,0,.03,0,.03,0,.05.02.05.05,0,.03-.02.04-.05.05-.03,0-.06,0-.09,0v.53s.05,0,.07,0c.18,0,.33.13.38.3,0,.03.01.07.01.1,0,.53,0,1.05,0,1.58,0,.15-.06.25-.18.33,0,0-.01.01-.02.02.1.06.17.14.2.25,0,.02,0,.05,0,.07,0,.04-.02.05-.05.05-.03,0-.06,0-.09,0-.27,0-.55,0-.82,0-.2,0-.39,0-.59,0-.04,0-.07,0-.11,0-.04,0-.06-.02-.06-.06,0-.12.09-.27.21-.32,0,0-.01-.01-.02-.02-.12-.08-.19-.19-.19-.33,0-.49,0-.98,0-1.47,0-.05,0-.11,0-.16.01-.13.09-.22.2-.29.06-.03.12-.05.19-.05.02,0,.04,0,.06,0Zm-.37,1.18h0c0,.27,0,.53,0,.8,0,.11.05.2.15.25.05.03.11.04.18.04.31,0,.61,0,.92,0,.16,0,.29-.13.29-.29,0-.53,0-1.07,0-1.6,0-.1-.05-.18-.13-.24-.06-.04-.14-.05-.21-.05-.23,0-.47,0-.7,0-.06,0-.13,0-.19,0-.07,0-.13.02-.18.06-.08.06-.12.15-.11.25,0,.26,0,.51,0,.77Zm0,1.42h1.53s0-.01,0-.02c-.04-.13-.15-.21-.29-.21-.31,0-.62,0-.94,0-.1,0-.18.04-.24.12-.03.03-.04.07-.05.11Zm.89-2.92s0,0,0,0c0,.1,0,.2,0,.3,0,.01,0,.02.02.02.02,0,.04,0,.06,0,.03,0,.07,0,.1,0v-.53h-.61v.53c.05,0,.11,0,.16,0,.02,0,.02-.01.02-.02,0-.01,0-.04-.02-.04-.02,0-.04,0-.05,0-.03,0-.04-.02-.04-.04,0-.05,0-.1,0-.14,0-.03.02-.04.05-.04.02,0,.03,0,.05,0,0,0,.01,0,.02-.02,0,0-.01-.02-.02-.02-.01,0-.03,0-.04,0-.03,0-.05-.03-.04-.05,0-.03.02-.04.05-.04.04,0,.08,0,.13,0,.08,0,.16,0,.24,0,.03,0,.05.02.05.05,0,.03-.02.04-.05.04-.02,0-.03,0-.05,0Zm-.16,0c0,.1,0,.21,0,.31,0,0,0,.01.01.01.02,0,.03,0,.05,0,0,0,0,0,0-.01,0-.09,0-.17,0-.26,0-.06,0-.06-.07-.05Zm-.1.12s0,0-.01,0c0,.01,0,.02,0,.03,0,0,0,.01.01.02,0,0,.01-.01.01-.02,0-.01,0-.02,0-.03Z"/>
        <path class="cls-1" d="m33.91,75.21c.03-.07.04-.13.05-.2.01-.13,0-.25-.02-.38,0,0,0-.01,0-.02,0-.02,0-.04.01-.05.02-.01.04-.01.05,0,.08.04.14.09.18.16.04.06.06.12.08.18,0,0,0,.01,0,.02,0,0,0,0,0,0,.01-.03.03-.06.04-.09,0-.02.02-.03.04-.03.02,0,.03.01.04.03,0,0,0,0,0,.01.04.17.06.33.02.5-.04.17-.13.3-.27.4-.06.04-.07.04-.13,0-.13-.09-.23-.21-.27-.37-.03-.09-.02-.19,0-.28,0-.03.02-.04.05-.04.03,0,.04.01.05.04.02.04.03.08.05.12,0,0,0,0,0,0Zm-.07.07s0,.03,0,.05c.03.15.12.25.24.34,0,0,.02,0,.03,0,.04-.03.07-.05.1-.09.13-.15.16-.32.14-.51,0-.02,0-.05,0-.07,0,0,0,0,0,0,0,0,0,.01-.02.02-.02.02-.05.03-.08.03-.03,0-.04-.01-.05-.04,0,0,0-.02,0-.03-.02-.1-.06-.18-.12-.26,0,0-.01-.01-.02-.02,0,.03,0,.06,0,.09.01.17,0,.34-.08.49-.02.04-.04.05-.08.03-.02-.01-.04-.02-.06-.04Z"/>
      </g>
      <g>
        <path class="cls-1" d="m10.04,43.89c.26.24.52.47.77.71.28.26.56.51.83.77,0,0,.02.01.02.02,0,.02.02.04.02.06,0,.02-.03.04-.04.04-.04,0-.07,0-.11,0-.02,0-.03,0-.06,0,0,.07,0,.13,0,.2,0,.04,0,.08,0,.13,0,.04-.03.06-.06.06-.04,0-.06-.02-.06-.07,0-.09,0-.18,0-.28,0-.01,0-.03,0-.04h-2.65v2.47h2.65c0-.05,0-.1,0-.15,0-.02,0-.03,0-.04,0-.03.03-.05.07-.05.03,0,.05.02.05.06,0,.08,0,.16,0,.25,0,.05-.03.07-.09.07-.21,0-.42,0-.63,0-.69,0-1.38,0-2.07,0-.01,0-.03,0-.04,0-.05,0-.07-.02-.07-.07,0-.08,0-.16,0-.23,0-.74,0-1.48,0-2.22,0-.02,0-.05,0-.08-.04,0-.08,0-.12,0-.04,0-.07,0-.09-.04-.02-.04.01-.07.04-.09.26-.24.53-.48.79-.73.25-.23.51-.47.76-.7.02-.02.04-.03.06-.05.01,0,.02,0,.03,0Zm-1.45,1.48h2.88c-.48-.44-.96-.88-1.44-1.32-.48.44-.96.88-1.44,1.32Z"/>
        <path class="cls-1" d="m11.8,47.65h-.48c-.05.19-.15.27-.3.26-.14,0-.23-.09-.27-.27-.07,0-.14,0-.21,0-.07,0-.09-.02-.09-.09,0-.1,0-.19,0-.29,0-.07.02-.09.09-.09.38,0,.76,0,1.14,0,.02,0,.03,0,.05,0,0-.02,0-.04,0-.05,0-.23,0-.45,0-.68,0-.07.02-.09.09-.09.11,0,.22,0,.33,0,.07,0,.12.04.16.09.08.12.15.24.22.36.02.03.03.08.03.12,0,.21,0,.42,0,.63,0,.07-.02.09-.09.09-.04,0-.08,0-.12,0-.01.09-.05.16-.12.22-.05.04-.11.05-.17.05-.14,0-.23-.09-.27-.26Zm-1.21-.14c.06,0,.12,0,.18,0,.01,0,.02-.01.03-.02.12-.18.35-.18.47,0,0,.01.03.02.04.02.16,0,.32,0,.49,0,.01,0,.03,0,.04-.02.12-.19.35-.19.48,0,0,0,.02.02.03.02.03,0,.07,0,.1,0v-.21h-1.85v.21Zm1.82-.67c-.07-.11-.13-.22-.2-.33-.01-.02-.04-.03-.06-.03-.09,0-.19,0-.28,0v.36h.54Zm-.54.33h.57v-.19h-.57v.19Zm-.99.47c0,.08.07.15.15.15.08,0,.15-.07.15-.15,0-.08-.07-.15-.15-.15-.08,0-.15.07-.15.15Zm1.04,0c0,.08.07.15.15.15.08,0,.15-.07.15-.16,0-.08-.07-.15-.15-.15-.08,0-.15.07-.15.15Z"/>
        <path class="cls-1" d="m11.07,45.99c.17,0,.34,0,.51,0,.07,0,.09.02.09.09,0,.31,0,.62,0,.93,0,.08-.02.09-.09.09-.34,0-.69,0-1.03,0-.06,0-.08-.02-.08-.08,0-.31,0-.63,0-.94,0-.07.02-.09.09-.09.17,0,.35,0,.52,0Zm-.47.98h.94v-.85h-.94v.85Z"/>
        <path class="cls-1" d="m9.17,46.42c.09,0,.17,0,.26,0,.06,0,.08.02.08.08,0,.18,0,.35,0,.53,0,.06-.02.08-.08.08-.18,0-.35,0-.53,0-.05,0-.07-.02-.07-.07,0-.18,0-.36,0-.54,0-.05.02-.07.08-.07.09,0,.18,0,.26,0h0Zm.21.14h-.41v.42h.41v-.42Z"/>
        <path class="cls-1" d="m9.18,45.63c.09,0,.17,0,.26,0,.05,0,.07.02.08.07,0,.18,0,.36,0,.54,0,.05-.02.07-.07.07-.18,0-.36,0-.53,0-.05,0-.07-.02-.07-.07,0-.18,0-.36,0-.54,0-.05.02-.07.07-.07.09,0,.18,0,.27,0h0Zm-.21.13v.42h.42v-.42h-.42Z"/>
        <path class="cls-1" d="m8.83,47.53c0-.08,0-.17,0-.25,0-.06.02-.08.08-.08.17,0,.34,0,.51,0,.06,0,.08.02.08.08,0,.17,0,.34,0,.51,0,.07-.02.09-.09.09-.17,0-.33,0-.5,0-.07,0-.09-.02-.09-.09,0-.09,0-.17,0-.26,0,0,0,0,0,0Zm.55.22v-.42h-.41v.42h.41Z"/>
        <path class="cls-1" d="m9.95,45.63c.08,0,.17,0,.25,0,.06,0,.08.02.08.08,0,.18,0,.35,0,.53,0,.06-.02.08-.08.08-.17,0-.34,0-.51,0-.06,0-.08-.02-.08-.08,0-.17,0-.34,0-.52,0-.06.02-.08.08-.08.09,0,.18,0,.26,0h0Zm.2.14h-.42v.42h.42v-.42Z"/>
        <path class="cls-1" d="m10.28,46.76c0,.09,0,.17,0,.26,0,.06-.02.08-.08.08-.17,0-.34,0-.51,0-.06,0-.08-.02-.08-.08,0-.18,0-.35,0-.53,0-.06.02-.08.08-.08.17,0,.35,0,.52,0,.06,0,.08.02.08.08,0,.09,0,.18,0,.26Zm-.54-.21v.42h.41v-.42h-.41Z"/>
        <path class="cls-1" d="m10.28,47.54c0,.09,0,.17,0,.26,0,.06-.02.08-.08.08-.17,0-.34,0-.51,0-.06,0-.08-.02-.08-.08,0-.17,0-.34,0-.51,0-.06.02-.08.08-.08.17,0,.35,0,.52,0,.06,0,.08.02.08.08,0,.09,0,.18,0,.27h0Zm-.13-.21h-.42v.42h.42v-.42Z"/>
        <path class="cls-1" d="m10.03,45.27c-.25,0-.45-.21-.45-.45,0-.25.21-.45.45-.45.25,0,.45.21.45.45,0,.25-.2.45-.45.45Zm0-.77c-.18,0-.32.14-.33.32,0,.18.14.32.32.33.17,0,.33-.15.33-.32,0-.18-.15-.32-.32-.33Z"/>
      </g>
      <g>
        <path class="cls-1" d="m15.22,46.69c.21.19.42.39.63.58.23.21.45.42.68.63,0,0,.01,0,.02.01,0,.02.02.03.01.05,0,.01-.02.03-.04.04-.03,0-.06,0-.09,0-.01,0-.03,0-.05,0,0,.06,0,.11,0,.16,0,.03,0,.07,0,.1,0,.03-.02.05-.05.05-.03,0-.05-.02-.05-.05,0-.07,0-.15,0-.22,0-.01,0-.02,0-.04h-2.15v2.01h2.16s0-.08,0-.12c0-.01,0-.02,0-.04,0-.03.03-.04.05-.04.03,0,.04.02.04.05,0,.07,0,.13,0,.2,0,.04-.02.06-.07.06-.17,0-.34,0-.52,0-.56,0-1.13,0-1.69,0-.01,0-.02,0-.03,0-.04,0-.05-.02-.06-.06,0-.06,0-.13,0-.19,0-.6,0-1.21,0-1.81,0-.02,0-.04,0-.06-.03,0-.07,0-.1,0-.03,0-.06,0-.07-.03-.01-.03,0-.05.03-.07.21-.2.43-.39.64-.59.21-.19.41-.38.62-.57.01-.01.03-.02.05-.04,0,0,.02,0,.03,0Zm-1.18,1.2h2.34c-.39-.36-.78-.72-1.17-1.08-.39.36-.78.72-1.17,1.08Z"/>
        <path class="cls-1" d="m16.65,49.75h-.39c-.04.15-.12.22-.24.21-.12,0-.19-.07-.22-.22-.06,0-.11,0-.17,0-.06,0-.07-.01-.07-.07,0-.08,0-.16,0-.24,0-.06.02-.07.08-.07.31,0,.62,0,.93,0,.01,0,.03,0,.04,0,0-.02,0-.03,0-.04,0-.18,0-.37,0-.55,0-.06.01-.08.08-.08.09,0,.18,0,.27,0,.06,0,.1.03.13.08.06.1.12.19.18.29.02.03.02.07.02.1,0,.17,0,.34,0,.51,0,.05-.02.07-.07.07-.03,0-.06,0-.1,0,0,.07-.04.13-.1.18-.04.03-.09.04-.14.04-.12,0-.19-.08-.22-.21Zm-.99-.11c.05,0,.1,0,.15,0,0,0,.02,0,.02-.02.1-.15.29-.15.39,0,0,0,.02.02.03.02.13,0,.26,0,.4,0,0,0,.02,0,.03-.02.1-.15.29-.15.39,0,0,0,.01.02.02.02.03,0,.06,0,.08,0v-.17h-1.51v.17Zm1.48-.55c-.05-.09-.11-.18-.16-.26,0-.01-.03-.03-.05-.03-.08,0-.15,0-.23,0v.29h.44Zm-.44.27h.46v-.16h-.46v.16Zm-.81.38c0,.07.06.12.12.12.07,0,.12-.06.13-.12,0-.07-.06-.12-.13-.13-.07,0-.12.06-.12.12Zm.85,0c0,.07.05.12.12.13.07,0,.13-.06.13-.13,0-.07-.06-.12-.12-.12-.07,0-.12.05-.13.12Z"/>
        <path class="cls-1" d="m16.05,48.4c.14,0,.28,0,.42,0,.06,0,.07.02.07.07,0,.25,0,.5,0,.76,0,.06-.02.08-.08.08-.28,0-.56,0-.84,0-.05,0-.07-.02-.07-.07,0-.26,0-.51,0-.77,0-.05.02-.07.07-.07.14,0,.28,0,.42,0Zm-.39.8h.77v-.69h-.77v.69Z"/>
        <path class="cls-1" d="m14.51,48.75c.07,0,.14,0,.21,0,.05,0,.06.02.06.06,0,.14,0,.29,0,.43,0,.05-.02.06-.06.06-.14,0-.29,0-.43,0-.04,0-.06-.02-.06-.06,0-.15,0-.29,0-.44,0-.04.02-.06.06-.06.07,0,.14,0,.21,0h0Zm.17.11h-.34v.34h.34v-.34Z"/>
        <path class="cls-1" d="m14.51,48.11c.07,0,.14,0,.21,0,.04,0,.06.02.06.06,0,.15,0,.29,0,.44,0,.04-.02.06-.06.06-.15,0-.29,0-.44,0-.04,0-.06-.02-.06-.06,0-.15,0-.29,0-.44,0-.04.02-.06.06-.06.07,0,.15,0,.22,0h0Zm-.17.11v.34h.34v-.34h-.34Z"/>
        <path class="cls-1" d="m14.24,49.65c0-.07,0-.14,0-.21,0-.05.02-.07.07-.07.14,0,.28,0,.42,0,.05,0,.07.02.07.07,0,.14,0,.28,0,.42,0,.05-.02.07-.07.07-.14,0-.27,0-.41,0-.06,0-.07-.02-.07-.07,0-.07,0-.14,0-.21,0,0,0,0,0,0Zm.44.18v-.34h-.34v.34h.34Z"/>
        <path class="cls-1" d="m15.14,48.11c.07,0,.14,0,.21,0,.05,0,.06.02.06.06,0,.14,0,.29,0,.43,0,.05-.02.07-.07.07-.14,0-.28,0-.41,0-.05,0-.07-.02-.07-.07,0-.14,0-.28,0-.42,0-.05.02-.07.07-.07.07,0,.14,0,.21,0h0Zm.17.11h-.34v.34h.34v-.34Z"/>
        <path class="cls-1" d="m15.42,49.03c0,.07,0,.14,0,.21,0,.05-.02.07-.07.07-.14,0-.28,0-.42,0-.05,0-.07-.02-.07-.06,0-.14,0-.29,0-.43,0-.05.02-.06.06-.06.14,0,.28,0,.42,0,.05,0,.06.02.06.06,0,.07,0,.14,0,.21Zm-.44-.17v.34h.34v-.34h-.34Z"/>
        <path class="cls-1" d="m15.42,49.66c0,.07,0,.14,0,.21,0,.05-.02.06-.06.06-.14,0-.28,0-.42,0-.05,0-.07-.02-.07-.07,0-.14,0-.28,0-.42,0-.05.02-.07.07-.07.14,0,.28,0,.42,0,.05,0,.06.02.06.06,0,.07,0,.14,0,.22h0Zm-.1-.17h-.34v.34h.34v-.34Z"/>
        <path class="cls-1" d="m15.21,47.81c-.2,0-.37-.17-.37-.37,0-.2.17-.37.37-.37.2,0,.37.17.37.37,0,.2-.17.37-.37.37Zm0-.63c-.15,0-.26.12-.26.26,0,.14.12.26.26.27.14,0,.27-.12.27-.26,0-.14-.12-.26-.26-.26Z"/>
      </g>
      <g>
        <path class="cls-1" d="m32.87,66.13h-1.38s0-.05,0-.08c0,0,0-.02-.02-.03-.22-.13-.33-.31-.33-.56,0-.47,0-.93,0-1.4,0-.32.22-.58.54-.62.01,0,.02,0,.02-.02,0-.06,0-.11,0-.17,0,0,0-.02,0-.02-.02-.03-.02-.06-.02-.09,0-.04,0-.07,0-.11,0-.07.04-.11.11-.11.28,0,.55,0,.83,0,.07,0,.11.04.11.11,0,.04,0,.07,0,.11,0,.03,0,.06-.02.09,0,0,0,.02,0,.03,0,.05,0,.11,0,.16,0,.02,0,.02.02.02.31.04.53.3.53.61,0,.48,0,.96,0,1.44,0,.25-.13.43-.35.55-.02.01-.03.02-.03.04,0,.02,0,.03,0,.05Zm-1.6-1.37c0,.07,0,.15,0,.22,0,.17,0,.35,0,.52,0,.19.11.33.27.42.08.04.17.05.26.05.27,0,.55,0,.82,0,.27,0,.49-.22.49-.49,0-.48,0-.96,0-1.44,0-.27-.22-.49-.49-.49-.29,0-.58,0-.87,0-.09,0-.17.02-.24.06-.16.1-.25.24-.25.44,0,.23,0,.47,0,.7Zm1.32-1.72h-.79s0,.08,0,.11c.02.04.02.08.02.12,0,.05,0,.1,0,.15h.12s.03-.06.07-.06c.04,0,.08,0,.12,0,0-.06,0-.11,0-.16,0-.04,0-.05.05-.05.07,0,.07,0,.07.07,0,.04,0,.09,0,.13,0,0,0,0,0,0,.03,0,.07,0,.1,0,.06,0,.07,0,.08.06h.12s0-.02,0-.03c0-.05,0-.1,0-.15,0-.02,0-.05.01-.07.02-.04.01-.09.02-.14Z"/>
        <path class="cls-1" d="m31.58,64.33c.08,0,.15,0,.23,0,.17,0,.35.03.51.1.12.05.23.11.32.21.11.12.15.26.14.43,0,0,0,.02,0,.03-.01-.01-.02-.02-.03-.03-.13-.17-.27-.31-.46-.41-.11-.06-.23-.1-.36-.11.32.14.56.36.76.64-.07.03-.15.06-.22.06-.17.02-.32-.04-.45-.15-.09-.08-.16-.17-.22-.27-.09-.15-.16-.32-.21-.49Z"/>
      </g>
      <g>
        <path class="cls-1" d="m45.7,63.02c.07-.06.16-.08.25-.09.13-.02.26-.03.4-.02.13,0,.25.02.37.06.03.01.06.03.09.04.02,0,.03.03.04.04.02.03.02.05,0,.08,0,.01-.01.02-.02.03-.02.01-.02.03-.02.05,0,.06,0,.11,0,.17,0,.01,0,.02.01.03.02.02.03.03.04.06,0,.03,0,.05-.02.07,0,0-.01.01-.02.02-.02,0-.02.02-.02.04,0,.15,0,.29,0,.44,0,0,0,.02.01.02.02.01.03.03.04.06,0,.04,0,.07-.03.09-.01.01-.02.02-.02.04,0,.06,0,.12,0,.18,0,0,0,.01,0,.02,0,0,.02.01.02.02.03.04.03.08,0,.12-.03.03-.06.05-.1.06-.07.02-.13.04-.2.05-.1.01-.21.02-.31.02,0,0-.02,0-.02,0,0,.01,0,.02,0,.03,0,0,.01,0,.02.02.04.04.04.09,0,.13-.02.02-.05.04-.07.05-.06.03-.12.04-.19.05-.13.02-.25.03-.38.02-.12,0-.25-.02-.36-.05-.04-.01-.07-.03-.11-.05,0,0-.02-.01-.02-.02-.04-.04-.04-.09,0-.12,0,0,0,0,0,0,.02,0,.02-.02.01-.04,0,0,0,0,0,0-.05,0-.1,0-.15,0-.1,0-.2-.02-.29-.06-.03-.01-.07-.03-.09-.05-.04-.04-.04-.09,0-.13.02-.02.02-.03.02-.06,0-.06,0-.11,0-.17,0,0,0-.01,0-.02-.02-.01-.03-.03-.04-.05-.01-.03,0-.07.03-.1.01-.01.02-.02.02-.04,0-.15,0-.29,0-.44,0-.01,0-.02-.01-.02-.03-.02-.04-.05-.04-.08,0-.02.01-.04.03-.06.01,0,.02-.02.02-.04,0-.06,0-.12,0-.18,0,0,0-.01,0-.02,0,0-.01-.01-.02-.02-.04-.04-.03-.09,0-.12.02-.02.05-.03.07-.05.06-.03.13-.04.19-.05.14-.02.27-.03.41-.02.1,0,.21.02.31.04.05.01.09.03.13.06,0,0,.02.01.03.02Zm.43.87s-.01,0-.01,0c-.03,0-.05.02-.08.02-.11.03-.22.04-.34.04-.09,0-.19,0-.28-.01-.07,0-.15-.02-.22-.05-.02,0-.02,0-.02.01,0,.05,0,.11,0,.16,0,.09,0,.19,0,.28,0,.02,0,.03-.02.04,0,0-.01,0-.02.01-.01.01-.02.02,0,.03.02.01.04.03.07.04.09.04.19.05.3.06.08,0,.16,0,.24,0,.1,0,.2-.02.29-.04.04-.01.08-.02.12-.05.03-.02.03-.03,0-.05,0,0,0,0,0,0-.02,0-.02-.02-.02-.05,0-.15,0-.29,0-.44,0,0,0,0,0-.01Zm-.94.65s0,0,0,0c0,.06,0,.13,0,.19,0,.02,0,.03-.02.04,0,0-.01,0-.02.01-.02.01-.02.02,0,.03,0,0,0,0,0,0,.03.01.05.03.08.04.11.03.22.05.33.05.12,0,.23,0,.35-.01.06,0,.13-.02.19-.04.02,0,.05-.02.07-.04.01-.01.01-.01,0-.02,0,0-.01-.01-.02-.01-.02-.01-.03-.03-.03-.05,0-.04,0-.09,0-.13,0-.02,0-.04,0-.05-.31.08-.63.08-.94,0Zm0-1.03s0,0,0,0c0,.06,0,.12,0,.18,0,.02,0,.03-.02.04,0,0-.01,0-.02.02-.01.01-.01.02,0,.03.02.02.05.03.07.04.07.02.14.04.21.05.07,0,.15.01.22.01.1,0,.2,0,.3-.02.06-.01.12-.02.18-.05.01,0,.03-.02.04-.02.01,0,.01-.01,0-.02,0,0-.01-.01-.02-.02-.02,0-.02-.02-.02-.04,0-.06,0-.12,0-.17,0,0,0-.01,0-.02-.31.08-.63.08-.94,0Zm1.05.21s0,0,0,0c.02-.02.04-.02.06,0,.02.03.04.06.06.09.04.06.07.13.08.21,0,.06-.02.12-.08.14-.03.01-.07.02-.11.02-.02,0-.03,0-.05,0,0,.02,0,.04,0,.06,0,0,0,0,0,0,.02,0,.03,0,.05,0,.1,0,.21,0,.31-.02.05,0,.11-.02.16-.04.02,0,.04-.02.06-.03,0,0,0-.01,0-.02,0,0-.02-.01-.02-.02-.02,0-.02-.02-.02-.04,0-.1,0-.2,0-.3,0-.05,0-.1,0-.15,0,0-.01,0-.02,0-.12.04-.24.05-.36.06-.05,0-.1,0-.15,0,0,0,0,0-.01,0,0,0,0,.03,0,.04,0,0,.02.02.03.03Zm-1.58-.13s0,.01,0,.02c0,.15,0,.3,0,.44,0,.02,0,.03-.02.04,0,0-.02.01-.02.02,0,0,0,.01,0,.02,0,0,.02.02.03.02.04.01.07.03.11.04.06.01.12.02.18.03.06,0,.11,0,.17,0,.01,0,.01,0,.01-.01,0-.01,0-.02,0-.04,0-.01,0-.01-.01-.01,0,0-.02,0-.03,0-.05,0-.08-.03-.1-.08-.02-.04-.01-.07,0-.11.02-.07.05-.13.08-.18,0,0,.01-.02.01-.03,0-.03.02-.05.04-.06.02-.01.02-.02.01-.05-.15,0-.31-.02-.45-.07Zm.47-.39c.12,0,.23,0,.35-.04.05-.01.1-.02.14-.05.03-.02.03-.03,0-.05-.03-.02-.07-.03-.1-.04-.1-.03-.2-.04-.3-.04-.13,0-.27,0-.4.02-.06.01-.12.02-.17.05-.01,0-.03.01-.04.02-.01.01-.01.02,0,.03,0,0,.02.02.03.02.03.01.07.03.11.04.12.03.25.04.38.04Zm1.17,0s.11,0,.17-.01c.07,0,.13-.02.19-.04.04-.01.07-.02.1-.05.02-.02.02-.03,0-.04-.02-.01-.05-.03-.07-.04-.12-.04-.24-.05-.36-.06-.1,0-.2,0-.31.01-.07,0-.15.02-.21.05-.02,0-.05.02-.07.04-.01,0-.01.02,0,.02.01,0,.03.02.04.03.06.03.12.04.18.05.1.02.21.02.33.02Zm-.65.3s0,0,0,0c.07,0,.15,0,.22-.02.07,0,.14-.02.21-.04.03-.01.06-.02.08-.04.01-.01.01-.02,0-.03-.02-.02-.05-.03-.08-.04-.12-.04-.24-.05-.36-.06-.1,0-.19,0-.29.01-.07,0-.14.02-.2.04-.03,0-.06.02-.09.04-.02.01-.02.02,0,.03.01,0,.02.02.04.02.04.02.09.03.14.04.11.02.22.03.34.03Zm1.08.74s0,0-.01,0c-.02,0-.04.01-.06.02-.11.03-.23.04-.35.04-.04,0-.07,0-.11,0,0,0-.01,0-.01,0,0,.01,0,.03.01.04.02.02.04.04.04.07,0,.03-.02.06-.04.07,0,0-.01.02-.01.03,0,.03,0,.05,0,.08,0,.02,0,.02.02.02.1,0,.21,0,.31-.02.06,0,.13-.02.19-.05.02,0,.04-.02.06-.04.01,0,.01-.02,0-.02,0,0-.01-.01-.02-.02-.02-.01-.02-.03-.02-.04,0-.05,0-.09,0-.14,0-.02,0-.03,0-.05Zm-.6-.97s0,0,0,0c0,0,0,0,.01,0,.02.01.05.02.07.04.05.04.05.09,0,.14,0,0,0,0-.01.01,0,0,0,0,0,.01,0,.03,0,.06,0,.09,0,0,0,.01.01.01.04,0,.09,0,.13,0,.08,0,.17-.01.25-.03.05-.01.11-.02.16-.05.01,0,.03-.02.04-.03,0,0,0-.01,0-.02,0,0-.02-.02-.03-.02-.01,0-.02-.02-.02-.04,0-.06,0-.12,0-.18,0-.01,0-.01-.01,0-.08.03-.16.04-.24.05-.11.01-.21.01-.32.01-.01,0-.02,0-.04,0Zm-1.48.97s0,0,0,0c0,.06,0,.13,0,.19,0,.02,0,.03-.02.04,0,0-.02.01-.02.02,0,0-.01.02,0,.02,0,0,.02.02.03.02.04.02.08.03.12.04.11.03.22.03.34.04,0,0,.01,0,.01-.01,0-.03,0-.06,0-.08,0-.01,0-.02-.01-.03-.05-.04-.05-.1,0-.14,0,0,0,0,0,0,.02,0,.02-.02.02-.04,0,0,0,0-.01-.01-.07,0-.14,0-.21-.01-.08,0-.15-.02-.23-.05,0,0,0,0,0,0Zm0-1.03s0,.02,0,.03c0,.05,0,.11,0,.16,0,.02,0,.04-.03.05-.03.02-.03.03,0,.05.04.02.08.04.13.05.11.03.23.04.34.04.01,0,.01,0,.01-.01,0-.02,0-.05,0-.07,0-.02,0-.03-.02-.04,0,0,0,0-.01-.01-.03-.04-.03-.08,0-.11.02-.02.04-.03.06-.05.01,0,.02,0,.03-.01,0,0,0,0,0,0-.18,0-.35,0-.52-.06Zm1.61.6s0,0,0,0c-.02.04-.04.07-.06.11,0,0,0,.01,0,.02,0,.05,0,.09,0,.14,0,0,0,.02.01.02.03,0,.07,0,.1,0,.03,0,.04-.02.05-.05,0-.01,0-.02,0-.03,0-.05-.03-.1-.06-.15,0-.02-.02-.03-.03-.05Zm-1.15.17s0-.07,0-.1c0,0,0-.01,0-.02,0,0,0,0,0,0,0,0,0,0,0,0-.03.05-.05.1-.06.16,0,.04,0,.07.04.08,0,0,.02,0,.02,0,0,0,.01,0,.01-.01,0-.04,0-.07,0-.11Zm.58-.77s0,0,.01,0c.01,0,.01,0,.01-.01,0-.01,0-.02-.01-.03,0,0-.01-.01-.02,0,0,0-.01.01-.02.02,0,.03,0,.03.03.03Z"/>
        <path class="cls-1" d="m45.66,64.47s-.07,0-.1-.02c-.04-.02-.07-.06-.07-.11,0-.05.02-.1.04-.15.02-.05.06-.11.09-.15,0,0,0-.01.01-.02.02-.02.05-.02.06,0,.03.04.05.08.07.12.03.05.05.1.06.15,0,.03,0,.06,0,.09-.02.05-.06.07-.11.08-.01,0-.03,0-.04,0Zm0-.36s0,0,0,0c-.02.03-.03.05-.05.08-.02.04-.04.08-.04.13,0,.04,0,.07.04.08.03,0,.06,0,.1,0,.04,0,.05-.03.05-.06,0-.06-.02-.11-.05-.15,0-.01-.02-.03-.02-.04,0,0,0-.02-.01-.03Z"/>
      </g>
      <g>
        <path class="cls-1" d="m30.54,28.38c.12-.09.26-.12.4-.15.21-.04.42-.05.63-.04.2,0,.4.03.6.09.05.02.1.04.15.07.03.02.05.04.07.07.03.04.02.08,0,.13,0,.02-.02.03-.04.04-.03.02-.03.04-.03.07,0,.09,0,.18,0,.27,0,.02,0,.03.02.04.03.02.06.05.06.1,0,.04,0,.07-.03.11,0,.01-.02.02-.03.03-.02.02-.03.04-.03.07,0,.24,0,.47,0,.71,0,.02,0,.03.02.03.03.02.05.05.06.09.01.06-.01.1-.05.14-.02.02-.03.04-.03.06,0,.1,0,.2,0,.29,0,.01,0,.02.01.03.01.01.03.02.04.03.05.06.05.13,0,.18-.05.05-.1.07-.16.1-.1.04-.21.06-.32.08-.17.02-.33.03-.5.03-.01,0-.03,0-.03,0,0,.02,0,.04,0,.05,0,0,.02.02.03.02.06.06.06.14,0,.2-.03.03-.07.06-.12.08-.1.04-.2.07-.3.08-.2.03-.4.04-.61.04-.2,0-.39-.03-.58-.08-.06-.02-.12-.04-.17-.08-.01,0-.03-.02-.04-.03-.06-.06-.06-.14,0-.2,0,0,0-.01.01-.01.03-.01.03-.04.02-.06,0,0,0-.01-.01-.01-.08,0-.16,0-.24-.01-.16-.01-.32-.04-.47-.09-.05-.02-.11-.05-.15-.09-.07-.06-.07-.14,0-.2.03-.03.04-.06.04-.09,0-.09,0-.18,0-.27,0-.01,0-.02-.01-.03-.03-.02-.05-.05-.06-.08-.02-.05,0-.11.05-.15.02-.02.03-.04.03-.07,0-.23,0-.47,0-.7,0-.02,0-.03-.02-.04-.04-.03-.07-.08-.06-.14,0-.04.02-.07.06-.1.02-.01.03-.03.03-.06,0-.1,0-.19,0-.29,0-.01,0-.02-.02-.03-.01,0-.02-.02-.03-.03-.06-.06-.06-.14,0-.19.03-.03.07-.06.11-.07.1-.04.2-.07.3-.08.22-.04.43-.04.65-.03.17,0,.33.03.49.07.08.02.15.05.21.09.01,0,.03.02.04.03Zm.69,1.39s-.02,0-.02,0c-.04.01-.08.03-.12.03-.18.04-.36.06-.54.06-.15,0-.3,0-.44-.02-.12-.02-.24-.03-.35-.07-.02,0-.03,0-.03.02,0,.09,0,.17,0,.26,0,.15,0,.3,0,.45,0,.03,0,.05-.03.06-.01,0-.02.01-.03.02-.02.02-.02.03,0,.05.03.02.07.05.11.06.15.06.31.08.47.09.13,0,.26.01.39,0,.16,0,.32-.02.47-.07.06-.02.13-.04.18-.07.04-.03.04-.04,0-.07,0,0,0,0-.01,0-.03-.02-.04-.04-.04-.07,0-.23,0-.47,0-.7,0,0,0-.01,0-.02Zm-1.5,1.04s0,0,0,0c0,.1,0,.21,0,.31,0,.03,0,.05-.04.07,0,0-.02.01-.03.02-.03.02-.03.03,0,.05,0,0,0,0,.01,0,.04.02.09.05.13.06.17.05.35.07.52.08.19,0,.37,0,.56-.02.1-.01.21-.03.3-.07.04-.02.08-.03.11-.06.02-.02.02-.02,0-.04,0,0-.02-.02-.03-.02-.03-.02-.04-.04-.04-.08,0-.07,0-.14,0-.21,0-.03,0-.06,0-.09-.5.13-1,.13-1.51,0Zm0-1.65s0,0,0,.02c0,.09,0,.19,0,.28,0,.03,0,.05-.03.07-.01,0-.02.02-.03.03-.02.02-.02.03,0,.04.03.03.08.05.12.06.11.04.23.06.34.07.12.01.24.02.36.02.16,0,.32-.01.48-.04.1-.02.2-.04.29-.08.02-.01.04-.02.06-.04.02-.02.02-.02,0-.04-.01,0-.02-.02-.04-.03-.02-.01-.03-.04-.03-.06,0-.09,0-.18,0-.28,0,0,0-.02,0-.03-.5.13-1,.13-1.5,0Zm1.68.33s0,0,0,0c.04-.03.07-.03.1.01.03.05.06.09.09.14.06.1.11.21.12.33,0,.1-.04.18-.12.22-.06.02-.11.03-.17.02-.03,0-.05,0-.08,0,0,.03,0,.06,0,.09,0,.01,0,.01.01.01.03,0,.05,0,.08,0,.17,0,.33-.01.5-.04.09-.02.17-.03.25-.07.03-.01.06-.04.09-.05.01,0,.01-.02,0-.03-.01-.01-.02-.02-.04-.03-.03-.02-.04-.04-.04-.07,0-.16,0-.32,0-.48,0-.08,0-.16,0-.24,0,0-.02,0-.03,0-.19.06-.38.08-.57.09-.08,0-.16,0-.24,0,0,0-.02,0-.02,0,0,.01,0,.05.01.06.01.01.03.03.04.04Zm-2.52-.21s0,.02,0,.03c0,.24,0,.47,0,.71,0,.03-.01.05-.04.06-.01,0-.03.02-.04.03-.01.01-.01.02,0,.03.02.01.03.03.05.03.06.02.12.05.18.06.09.02.19.04.29.05.09,0,.18.01.27.01.02,0,.02,0,.02-.02,0-.02,0-.04,0-.06,0-.02,0-.02-.02-.02-.01,0-.03,0-.04,0-.07-.02-.13-.05-.16-.12-.02-.06-.02-.12,0-.18.02-.11.07-.2.13-.29,0-.01.02-.03.02-.05,0-.04.03-.08.06-.1.03-.02.03-.04.02-.07-.24,0-.49-.02-.72-.1Zm.76-.62c.18,0,.38-.01.56-.06.08-.02.16-.04.23-.08.05-.03.05-.05,0-.08-.05-.03-.11-.05-.17-.07-.16-.04-.32-.06-.48-.07-.21-.01-.42,0-.63.04-.09.02-.19.04-.27.08-.02.01-.04.02-.06.04-.02.02-.02.03,0,.05.02.01.03.03.05.03.06.02.11.05.17.06.2.05.4.06.61.06Zm1.87,0c.07,0,.17-.01.27-.02.1,0,.21-.03.31-.06.06-.02.11-.04.16-.07.04-.03.04-.04,0-.07-.04-.02-.07-.04-.11-.06-.19-.06-.38-.08-.58-.09-.16,0-.33,0-.49.02-.12.01-.23.03-.34.08-.04.02-.07.04-.11.06-.02.01-.02.03,0,.04.02.02.04.03.06.04.09.05.19.07.3.08.16.03.33.03.53.04Zm-1.04.48s0,0,0,0c.12,0,.23-.02.35-.03.11-.01.22-.03.33-.07.05-.02.1-.03.13-.07.02-.02.02-.03,0-.05-.04-.03-.08-.05-.13-.07-.19-.06-.38-.08-.58-.09-.15,0-.31,0-.46.02-.11.01-.22.03-.32.07-.05.02-.1.03-.14.07-.03.02-.03.03,0,.05.02.01.04.03.06.04.07.03.14.05.22.07.18.04.36.05.54.05Zm1.73,1.18s-.01,0-.02,0c-.03,0-.06.02-.09.03-.18.05-.37.06-.55.07-.06,0-.11,0-.17,0,0,0-.02,0-.02.01,0,.02,0,.04.02.06.04.03.06.07.06.11,0,.05-.03.09-.07.12-.02.01-.02.02-.02.04,0,.04,0,.09,0,.13,0,.03,0,.03.03.03.17,0,.33,0,.5-.03.1-.01.2-.03.3-.07.04-.01.07-.04.1-.06.02-.01.02-.02,0-.04-.01,0-.02-.02-.03-.03-.03-.02-.04-.04-.04-.07,0-.08,0-.15,0-.23,0-.03,0-.05,0-.08Zm-.96-1.55s0,0,0,0c0,0,.01,0,.02,0,.04.02.08.04.11.06.08.06.08.15.01.22,0,0-.01.01-.02.02,0,0-.01.01-.01.02,0,.05,0,.1,0,.15,0,.01,0,.02.02.02.07,0,.14,0,.2,0,.13,0,.26-.02.39-.04.09-.02.17-.04.25-.08.02-.01.04-.03.06-.04.01,0,.01-.02,0-.03-.01-.01-.03-.02-.04-.03-.02-.01-.03-.03-.03-.06,0-.1,0-.2,0-.29,0-.02,0-.02-.02-.01-.12.04-.25.06-.38.08-.17.02-.34.02-.51.02-.02,0-.04,0-.06,0Zm-2.36,1.55s0,0,0,0c0,.1,0,.2,0,.31,0,.03,0,.05-.04.07-.01,0-.03.02-.04.03-.02.01-.02.02,0,.04.01.01.03.02.05.03.06.03.13.05.2.07.18.04.36.05.54.06.01,0,.02,0,.02-.02,0-.04,0-.09,0-.13,0-.02,0-.04-.02-.05-.08-.06-.08-.15,0-.22,0,0,0,0,0,0,.03-.01.03-.04.02-.06,0-.01,0-.02-.02-.02-.11,0-.22-.01-.33-.02-.12-.01-.25-.04-.37-.08,0,0-.01,0-.02,0Zm0-1.65s0,.03,0,.05c0,.08,0,.17,0,.25,0,.04-.01.06-.04.08-.05.03-.05.05,0,.09.06.04.13.06.2.08.18.04.36.06.55.06.02,0,.02,0,.02-.02,0-.04,0-.07,0-.11,0-.03,0-.05-.03-.07,0,0-.01-.01-.02-.02-.05-.06-.05-.12,0-.18.03-.03.06-.06.1-.07.02,0,.03-.02.05-.02,0,0,0,0,0,0-.28,0-.56-.01-.83-.1Zm2.57.96s0,0,0,0c-.03.06-.06.12-.09.18,0,0,0,.02,0,.02,0,.08,0,.15,0,.23,0,.02,0,.02.02.03.05.01.11.01.16,0,.04-.01.07-.04.07-.08,0-.02,0-.04,0-.05-.01-.09-.05-.17-.1-.24-.02-.03-.03-.06-.05-.08Zm-1.84.27c0-.05,0-.11,0-.16,0,0,0-.02,0-.03,0,0,0-.01,0-.02,0,0-.01,0-.01.01-.05.08-.09.16-.1.25,0,.07.01.1.07.12.01,0,.03,0,.04,0,.02,0,.02,0,.02-.02,0-.06,0-.11,0-.17Zm.93-1.23s.01,0,.02,0c.02,0,.02,0,.02-.02,0-.02,0-.04-.02-.05-.01,0-.02-.02-.03,0,0,0-.02.02-.03.03-.01.04,0,.05.04.05Z"/>
        <path class="cls-1" d="m30.48,30.7c-.05,0-.11,0-.16-.03-.07-.04-.11-.1-.11-.18,0-.08.02-.16.06-.24.04-.09.09-.17.14-.25,0,0,.01-.02.02-.02.03-.04.07-.04.1,0,.04.06.08.12.12.19.04.08.08.15.09.24,0,.05.01.1,0,.15-.03.08-.1.12-.18.13-.02,0-.05,0-.07,0Zm0-.58s0,0,0,0c-.03.04-.05.09-.07.13-.03.06-.06.13-.07.2,0,.07.01.11.07.12.05.01.1.01.15,0,.06-.01.08-.04.08-.1,0-.09-.04-.17-.09-.25-.01-.02-.02-.04-.04-.06,0-.01-.01-.03-.02-.04Z"/>
      </g>
      <g>
        <path class="cls-1" d="m32.33,86.45c.09-.07.2-.1.31-.12.16-.03.33-.04.5-.03.16,0,.32.02.47.07.04.01.08.03.12.05.02.01.04.03.05.05.02.03.02.07,0,.1,0,.01-.02.03-.03.03-.02.01-.03.03-.03.06,0,.07,0,.14,0,.21,0,.01,0,.02.02.03.02.02.04.04.05.07,0,.03,0,.06-.02.08,0,0-.01.02-.02.02-.02.01-.02.03-.02.05,0,.18,0,.37,0,.55,0,.01,0,.02.01.03.02.02.04.04.05.07.01.05,0,.08-.04.11-.02.01-.02.03-.02.05,0,.08,0,.15,0,.23,0,0,0,.02.01.02.01,0,.02.02.03.03.04.04.04.1,0,.14-.04.04-.08.06-.13.08-.08.03-.17.05-.25.06-.13.02-.26.02-.39.02,0,0-.02,0-.02,0,0,.01,0,.03,0,.04,0,0,.01.01.02.02.05.05.05.11,0,.16-.03.03-.06.04-.09.06-.08.03-.16.05-.24.07-.16.03-.32.03-.47.03-.15,0-.31-.02-.46-.07-.05-.01-.09-.03-.13-.06-.01,0-.02-.02-.03-.03-.05-.05-.05-.11,0-.16,0,0,0,0,.01-.01.02-.01.02-.03.02-.05,0,0,0,0-.01,0-.06,0-.13,0-.19,0-.13-.01-.25-.03-.37-.07-.04-.02-.08-.04-.12-.07-.05-.05-.05-.11,0-.16.02-.02.03-.04.03-.07,0-.07,0-.14,0-.21,0-.01,0-.02-.01-.02-.02-.02-.04-.04-.05-.06-.02-.04,0-.09.04-.12.02-.01.02-.03.02-.05,0-.18,0-.37,0-.55,0-.01,0-.02-.01-.03-.03-.03-.06-.06-.05-.11,0-.03.02-.06.04-.07.02-.01.02-.02.02-.04,0-.08,0-.15,0-.23,0-.01,0-.02-.01-.03,0,0-.02-.01-.02-.02-.04-.05-.04-.11,0-.15.03-.03.06-.04.09-.06.08-.03.16-.05.24-.07.17-.03.34-.03.51-.03.13,0,.26.02.39.05.06.02.12.04.17.07.01,0,.02.02.03.03Zm.54,1.09s-.01,0-.02,0c-.03,0-.06.02-.09.03-.14.03-.28.05-.42.05-.12,0-.23,0-.35-.02-.09-.01-.18-.03-.27-.06-.02,0-.02,0-.02.01,0,.07,0,.14,0,.2,0,.12,0,.23,0,.35,0,.02,0,.04-.03.05,0,0-.02.01-.03.02-.02.02-.02.02,0,.04.03.02.06.04.09.05.12.05.24.06.37.07.1,0,.2,0,.3,0,.12,0,.25-.02.37-.05.05-.01.1-.03.14-.06.03-.02.03-.03,0-.06,0,0,0,0,0,0-.02-.01-.03-.03-.03-.06,0-.18,0-.37,0-.55,0,0,0-.01,0-.02Zm-1.18.82s0,0,0,0c0,.08,0,.16,0,.24,0,.02,0,.04-.03.05,0,0-.01.01-.02.02-.02.02-.02.02,0,.04,0,0,0,0,0,0,.03.02.07.04.1.05.13.04.27.06.41.06.15,0,.29,0,.44-.02.08-.01.16-.03.24-.06.03-.01.06-.03.09-.05.01-.01.01-.02,0-.03,0,0-.01-.01-.02-.02-.03-.01-.03-.03-.03-.06,0-.06,0-.11,0-.17,0-.02,0-.05,0-.07-.39.1-.79.1-1.18,0Zm0-1.29s0,0,0,.01c0,.07,0,.15,0,.22,0,.02,0,.04-.03.05,0,0-.02.01-.03.02-.02.01-.02.02,0,.03.03.03.06.04.09.05.09.03.18.05.27.06.09,0,.19.02.28.02.13,0,.25,0,.38-.03.08-.01.15-.03.23-.07.02,0,.03-.02.05-.03.01-.01.01-.02,0-.03,0,0-.02-.01-.03-.02-.02-.01-.03-.03-.03-.05,0-.07,0-.14,0-.22,0,0,0-.01,0-.02-.39.1-.79.1-1.18,0Zm1.32.26s0,0,0,0c.03-.02.05-.02.07.01.02.04.05.07.07.11.05.08.09.16.1.26,0,.08-.03.14-.09.17-.04.02-.09.02-.13.02-.02,0-.04,0-.06,0,0,.03,0,.05,0,.07,0,0,0,.01.01.01.02,0,.04,0,.06,0,.13,0,.26,0,.39-.03.07-.01.13-.03.2-.05.02-.01.05-.03.07-.04,0,0,.01-.02,0-.03,0,0-.02-.02-.03-.02-.02-.01-.03-.03-.03-.05,0-.13,0-.25,0-.38,0-.06,0-.13,0-.19,0,0-.02,0-.02,0-.15.05-.3.06-.45.07-.06,0-.12,0-.19,0,0,0-.01,0-.01,0,0,.01,0,.04,0,.04.01.01.02.02.03.03Zm-1.98-.17s0,.02,0,.02c0,.19,0,.37,0,.56,0,.02,0,.04-.03.05-.01,0-.02.02-.03.02,0,0,0,.02,0,.03.01,0,.02.02.04.03.05.02.09.04.14.05.07.02.15.03.23.04.07,0,.14,0,.21.01.01,0,.02,0,.02-.02,0-.01,0-.03,0-.04,0-.01,0-.02-.02-.02-.01,0-.02,0-.03,0-.06-.01-.11-.04-.13-.1-.02-.05-.02-.09,0-.14.02-.08.06-.16.1-.23,0-.01.01-.02.02-.04,0-.03.02-.06.05-.08.02-.02.02-.03.01-.06-.19,0-.38-.02-.57-.08Zm.59-.49c.14,0,.29-.01.44-.04.06-.01.12-.03.18-.06.04-.03.04-.04,0-.07-.04-.03-.09-.04-.13-.05-.12-.03-.25-.05-.38-.05-.17,0-.33,0-.5.03-.07.01-.15.03-.21.06-.02,0-.03.02-.05.03-.02.01-.02.02,0,.04.01,0,.03.02.04.03.04.02.09.04.13.05.15.04.31.05.47.05Zm1.47,0c.06,0,.14,0,.22-.02.08,0,.16-.02.24-.04.05-.01.09-.03.13-.06.03-.02.03-.03,0-.05-.03-.02-.06-.03-.09-.04-.15-.05-.3-.06-.45-.07-.13,0-.26,0-.38.02-.09.01-.18.03-.27.06-.03.01-.06.03-.09.05-.01,0-.01.02,0,.03.02.01.03.02.05.03.07.04.15.05.23.07.13.02.26.03.41.03Zm-.81.38s0,0,0,0c.09,0,.18-.01.28-.02.09,0,.18-.02.26-.05.04-.01.07-.03.1-.05.02-.02.02-.02,0-.04-.03-.03-.07-.04-.1-.05-.15-.05-.3-.06-.46-.07-.12,0-.24,0-.36.02-.09.01-.17.02-.25.05-.04.01-.08.03-.11.05-.02.02-.02.02,0,.04.01.01.03.02.05.03.05.03.11.04.17.05.14.03.28.04.42.04Zm1.35.92s0,0-.01,0c-.02,0-.05.02-.07.02-.14.04-.29.05-.44.05-.04,0-.09,0-.13,0,0,0-.01,0-.01,0,0,.02,0,.03.02.05.03.02.05.05.05.09,0,.04-.02.07-.05.09-.01,0-.01.02-.01.03,0,.03,0,.07,0,.1,0,.02,0,.02.02.02.13,0,.26,0,.39-.02.08-.01.16-.03.24-.06.03-.01.05-.03.08-.05.01-.01.01-.02,0-.03,0,0-.02-.01-.03-.02-.02-.01-.03-.03-.03-.06,0-.06,0-.12,0-.18,0-.02,0-.04,0-.07Zm-.76-1.22s0,0,0,0c0,0,.01,0,.02,0,.03.02.06.03.09.05.06.05.07.12,0,.17,0,0-.01,0-.02.01,0,0,0,.01,0,.02,0,.04,0,.08,0,.11,0,.01,0,.01.02.01.05,0,.11,0,.16,0,.1,0,.21-.01.31-.03.07-.01.14-.03.2-.06.02,0,.03-.02.05-.03,0,0,.01-.02,0-.02-.01,0-.02-.02-.03-.03-.02-.01-.03-.02-.03-.04,0-.08,0-.15,0-.23,0-.01,0-.02-.01-.01-.1.03-.2.05-.3.06-.13.02-.27.02-.4.01-.02,0-.03,0-.05,0Zm-1.85,1.21s0,0,0,0c0,.08,0,.16,0,.24,0,.02,0,.04-.03.05-.01,0-.02.01-.03.02-.01.01-.01.02,0,.03.01,0,.02.02.04.03.05.03.1.04.15.05.14.03.28.04.42.05.01,0,.01,0,.01-.01,0-.03,0-.07,0-.1,0-.02,0-.03-.02-.04-.06-.05-.06-.12,0-.18,0,0,0,0,0,0,.02-.01.02-.03.02-.05,0,0,0-.01-.01-.01-.09,0-.17,0-.26-.02-.1,0-.19-.03-.29-.06,0,0,0,0-.01,0Zm0-1.29s0,.03,0,.04c0,.07,0,.13,0,.2,0,.03,0,.05-.03.06-.04.03-.04.04,0,.07.05.03.1.05.16.06.14.03.28.04.43.05.01,0,.02,0,.02-.02,0-.03,0-.06,0-.09,0-.02,0-.04-.02-.05,0,0-.01-.01-.02-.02-.04-.04-.04-.1,0-.14.02-.03.05-.04.08-.06.01,0,.03-.01.04-.02,0,0,0,0,0,0-.22,0-.44,0-.65-.08Zm2.02.76s0,0,0,0c-.02.05-.05.09-.07.14,0,0,0,.01,0,.02,0,.06,0,.12,0,.18,0,.01,0,.02.02.02.04,0,.08.01.13,0,.03,0,.05-.03.06-.06,0-.01,0-.03,0-.04-.01-.07-.04-.13-.08-.19-.01-.02-.03-.04-.04-.06Zm-1.45.21s0-.08,0-.13c0,0,0-.01,0-.02,0,0,0,0,0-.01,0,0,0,0-.01,0-.04.06-.07.13-.08.2,0,.05.01.08.05.09,0,0,.02,0,.03,0,.01,0,.02,0,.02-.01,0-.04,0-.09,0-.13Zm.73-.97s.01,0,.02,0c.01,0,.02,0,.02-.02,0-.02,0-.03-.02-.04,0,0-.01-.02-.02,0,0,0-.02.01-.02.02-.01.03,0,.04.03.04Z"/>
        <path class="cls-1" d="m32.28,88.27s-.09,0-.12-.03c-.06-.03-.08-.08-.08-.14,0-.07.02-.13.05-.19.03-.07.07-.13.11-.19,0,0,0-.01.01-.02.02-.03.06-.03.08,0,.03.05.06.1.09.15.03.06.06.12.07.19,0,.04,0,.08,0,.12-.03.06-.08.09-.14.1-.02,0-.04,0-.06,0Zm0-.46s0,0,0,0c-.02.03-.04.07-.06.1-.03.05-.05.1-.06.16,0,.05,0,.08.06.1.04.01.08.01.12,0,.05-.01.06-.03.06-.08,0-.07-.03-.13-.07-.19-.01-.02-.02-.03-.03-.05,0-.01-.01-.02-.02-.04Z"/>
      </g>
      <g>
        <path class="cls-1" d="m31.55,83.42c.09-.07.19-.09.3-.11.16-.03.32-.04.48-.03.15,0,.3.02.45.07.04.01.08.03.11.05.02.01.04.03.05.05.02.03.02.06,0,.09,0,.01-.02.02-.03.03-.02.01-.02.03-.02.05,0,.07,0,.14,0,.2,0,.01,0,.02.01.03.02.02.04.04.05.07,0,.03,0,.06-.02.08,0,0-.01.02-.02.02-.02.01-.02.03-.02.05,0,.18,0,.35,0,.53,0,.01,0,.02.01.03.02.02.04.04.05.07.01.04,0,.08-.04.1-.02.01-.02.03-.02.05,0,.07,0,.15,0,.22,0,0,0,.02.01.02,0,0,.02.02.03.03.04.04.03.1,0,.14-.03.03-.08.06-.12.07-.08.03-.16.05-.24.06-.12.02-.25.02-.37.02,0,0-.02,0-.02,0,0,.01,0,.03,0,.04,0,0,.01.01.02.02.05.05.05.1,0,.15-.02.03-.05.04-.09.06-.07.03-.15.05-.23.06-.15.03-.3.03-.45.03-.15,0-.29-.02-.44-.06-.05-.01-.09-.03-.13-.06-.01,0-.02-.02-.03-.02-.04-.05-.04-.1,0-.15,0,0,0,0,.01-.01.02-.01.02-.03.02-.05,0,0,0,0,0,0-.06,0-.12,0-.18,0-.12-.01-.24-.03-.35-.07-.04-.02-.08-.03-.11-.06-.05-.05-.05-.11,0-.15.02-.02.03-.04.03-.07,0-.07,0-.14,0-.2,0,0,0-.02-.01-.02-.02-.02-.04-.03-.05-.06-.01-.04,0-.09.04-.12.02-.01.02-.03.02-.05,0-.18,0-.35,0-.53,0-.01,0-.02-.01-.03-.03-.03-.05-.06-.05-.1,0-.03.02-.05.04-.07.01-.01.02-.02.02-.04,0-.07,0-.14,0-.22,0-.01,0-.02-.01-.02,0,0-.01-.01-.02-.02-.04-.05-.04-.1,0-.15.02-.03.05-.04.09-.06.07-.03.15-.05.23-.06.16-.03.33-.03.49-.03.12,0,.25.02.37.05.06.02.11.03.16.07.01,0,.02.02.03.02Zm.51,1.04s-.01,0-.02,0c-.03,0-.06.02-.09.03-.13.03-.27.04-.41.05-.11,0-.22,0-.33-.02-.09-.01-.18-.03-.26-.06-.02,0-.02,0-.02.01,0,.06,0,.13,0,.19,0,.11,0,.22,0,.34,0,.02,0,.04-.03.05,0,0-.02.01-.02.02-.02.01-.02.02,0,.04.03.02.05.03.08.05.11.04.23.06.35.07.1,0,.19,0,.29,0,.12,0,.24-.02.35-.05.05-.01.1-.03.14-.06.03-.02.03-.03,0-.06,0,0,0,0,0,0-.02-.01-.03-.03-.03-.05,0-.18,0-.35,0-.53,0,0,0,0,0-.02Zm-1.13.78s0,0,0,0c0,.08,0,.15,0,.23,0,.02,0,.04-.03.05,0,0-.01,0-.02.02-.02.02-.02.02,0,.04,0,0,0,0,0,0,.03.02.07.03.1.05.13.04.26.05.39.06.14,0,.28,0,.42-.02.08-.01.15-.03.23-.05.03-.01.06-.02.08-.05.01-.01.01-.02,0-.03,0,0-.01-.01-.02-.02-.02-.01-.03-.03-.03-.06,0-.05,0-.11,0-.16,0-.02,0-.04,0-.07-.38.1-.75.1-1.13,0Zm0-1.23s0,0,0,.01c0,.07,0,.14,0,.21,0,.02,0,.04-.03.05,0,0-.02.01-.03.02-.02.01-.01.02,0,.03.03.02.06.04.09.05.08.03.17.05.26.05.09,0,.18.01.27.02.12,0,.24,0,.36-.03.07-.01.15-.03.22-.06.02,0,.03-.02.04-.03.01-.01.01-.02,0-.03,0,0-.02-.01-.03-.02-.02-.01-.03-.03-.03-.05,0-.07,0-.14,0-.21,0,0,0-.01,0-.02-.38.1-.75.1-1.13,0Zm1.26.25s0,0,0,0c.03-.02.05-.02.07,0,.02.03.05.07.07.1.04.08.08.16.09.25,0,.07-.03.14-.09.16-.04.02-.08.02-.13.02-.02,0-.04,0-.06,0,0,.02,0,.05,0,.07,0,0,0,.01.01.01.02,0,.04,0,.06,0,.13,0,.25,0,.37-.03.06-.01.13-.03.19-.05.02-.01.04-.03.07-.04,0,0,.01-.02,0-.02,0,0-.02-.02-.03-.02-.02-.01-.03-.03-.03-.05,0-.12,0-.24,0-.36,0-.06,0-.12,0-.18,0,0-.01,0-.02,0-.14.05-.28.06-.43.07-.06,0-.12,0-.18,0,0,0-.01,0-.01,0,0,0,0,.03,0,.04.01,0,.02.02.03.03Zm-1.89-.16s0,.02,0,.02c0,.18,0,.35,0,.53,0,.02,0,.04-.03.05-.01,0-.02.01-.03.02,0,0,0,.02,0,.02.01,0,.02.02.04.03.04.02.09.04.13.05.07.02.14.03.22.04.07,0,.13,0,.2.01.01,0,.02,0,.02-.02,0-.01,0-.03,0-.04,0-.01,0-.02-.02-.02-.01,0-.02,0-.03,0-.05-.01-.1-.04-.12-.09-.02-.04-.02-.09,0-.13.02-.08.06-.15.1-.22,0-.01.01-.02.01-.03,0-.03.02-.06.05-.08.02-.02.02-.03.01-.06-.18,0-.37-.02-.54-.08Zm.57-.47c.14,0,.28-.01.42-.04.06-.01.12-.03.17-.06.04-.03.04-.04,0-.06-.04-.02-.08-.04-.13-.05-.12-.03-.24-.04-.36-.05-.16,0-.32,0-.48.03-.07.01-.14.03-.21.06-.02,0-.03.02-.04.03-.02.01-.02.02,0,.04.01,0,.02.02.04.02.04.02.08.03.13.04.15.04.3.05.45.05Zm1.41,0c.05,0,.13,0,.21-.02.08,0,.15-.02.23-.04.04-.01.09-.03.12-.05.03-.02.03-.03,0-.05-.03-.02-.06-.03-.09-.04-.14-.05-.29-.06-.43-.07-.12,0-.25,0-.37.02-.09.01-.17.03-.26.06-.03.01-.06.03-.08.05-.01,0-.01.02,0,.03.01.01.03.02.05.03.07.04.15.05.22.06.12.02.25.03.4.03Zm-.78.36s0,0,0,0c.09,0,.18-.01.26-.02.08,0,.17-.02.25-.05.04-.01.07-.03.1-.05.02-.02.02-.02,0-.04-.03-.02-.06-.04-.1-.05-.14-.05-.29-.06-.44-.07-.12,0-.23,0-.35.01-.08,0-.16.02-.24.05-.04.01-.07.03-.1.05-.02.02-.02.02,0,.04.01.01.03.02.04.03.05.03.11.04.16.05.13.03.27.04.4.04Zm1.29.88s0,0-.01,0c-.02,0-.05.01-.07.02-.14.04-.28.05-.42.05-.04,0-.09,0-.13,0,0,0-.01,0-.01,0,0,.02,0,.03.02.05.03.02.05.05.05.09,0,.04-.02.07-.05.09-.01,0-.01.02-.01.03,0,.03,0,.07,0,.1,0,.02,0,.02.02.02.13,0,.25,0,.37-.02.08-.01.15-.03.23-.05.03-.01.05-.03.08-.04.01-.01.01-.02,0-.03,0,0-.02-.01-.03-.02-.02-.01-.03-.03-.03-.05,0-.06,0-.11,0-.17,0-.02,0-.04,0-.06Zm-.72-1.16s0,0,0,0c0,0,0,0,.01,0,.03.02.06.03.08.05.06.05.06.11,0,.17,0,0-.01,0-.02.01,0,0,0,.01,0,.02,0,.04,0,.07,0,.11,0,.01,0,.01.01.01.05,0,.1,0,.15,0,.1,0,.2-.01.3-.03.06-.01.13-.03.19-.06.02,0,.03-.02.05-.03,0,0,0-.02,0-.02-.01,0-.02-.02-.03-.03-.02-.01-.02-.02-.02-.04,0-.07,0-.15,0-.22,0-.01,0-.02-.01-.01-.09.03-.19.05-.28.06-.13.02-.25.02-.38.01-.01,0-.03,0-.04,0Zm-1.77,1.16s0,0,0,0c0,.08,0,.15,0,.23,0,.02,0,.04-.03.05,0,0-.02.01-.03.02-.01.01-.01.02,0,.03.01,0,.02.02.04.03.05.03.1.04.15.05.13.03.27.04.4.04.01,0,.01,0,.01-.01,0-.03,0-.07,0-.1,0-.02,0-.03-.02-.04-.06-.05-.06-.12,0-.17,0,0,0,0,0,0,.02-.01.02-.03.02-.05,0,0,0-.01-.01-.01-.08,0-.17,0-.25-.02-.09,0-.19-.03-.27-.06,0,0,0,0-.01,0Zm0-1.24s0,.02,0,.03c0,.06,0,.13,0,.19,0,.03,0,.04-.03.06-.04.02-.04.04,0,.06.05.03.1.05.15.06.13.03.27.04.41.05.01,0,.02,0,.02-.02,0-.03,0-.05,0-.08,0-.02,0-.04-.02-.05,0,0-.01-.01-.02-.02-.04-.04-.04-.09,0-.13.02-.02.05-.04.08-.05.01,0,.02-.01.04-.02,0,0,0,0,0,0-.21,0-.42,0-.63-.08Zm1.93.72s0,0,0,0c-.02.04-.05.09-.07.13,0,0,0,.01,0,.02,0,.06,0,.11,0,.17,0,.01,0,.02.02.02.04,0,.08.01.12,0,.03,0,.05-.03.05-.06,0-.01,0-.03,0-.04-.01-.07-.04-.12-.07-.18-.01-.02-.02-.04-.04-.06Zm-1.38.2s0-.08,0-.12c0,0,0-.01,0-.02,0,0,0,0,0-.01,0,0,0,0-.01,0-.03.06-.06.12-.07.19,0,.05,0,.08.05.09,0,0,.02,0,.03,0,.01,0,.01,0,.01-.01,0-.04,0-.08,0-.13Zm.7-.92s.01,0,.02,0c.01,0,.02,0,.02-.02,0-.02,0-.03-.02-.04,0,0-.01-.02-.02,0,0,0-.02.01-.02.02-.01.03,0,.04.03.04Z"/>
        <path class="cls-1" d="m31.5,85.16s-.08,0-.12-.02c-.05-.03-.08-.07-.08-.13,0-.06.02-.12.04-.18.03-.06.07-.13.11-.18,0,0,0-.01.01-.02.02-.03.05-.03.07,0,.03.05.06.09.09.14.03.06.06.12.07.18,0,.04,0,.08,0,.11-.02.06-.07.09-.14.1-.02,0-.04,0-.05,0Zm0-.44s0,0,0,0c-.02.03-.04.07-.06.1-.02.05-.05.1-.05.15,0,.05,0,.08.05.09.04.01.08,0,.11,0,.04-.01.06-.03.06-.08,0-.07-.03-.13-.07-.18-.01-.02-.02-.03-.03-.05,0-.01-.01-.02-.02-.03Z"/>
      </g>
      <g>
        <path class="cls-1" d="m51.51,57.14c.13-.07.22-.18.3-.3,0,.04,0,.08,0,.11,0,.25.01.49.02.74,0,.09-.05.14-.14.14-.84,0-1.68,0-2.52,0-.09,0-.14-.05-.14-.14,0-.28,0-.55.02-.83,0,0,0,0,0-.02.08.12.17.22.3.3,0-.01-.01-.02-.01-.03-.08-.19-.17-.37-.25-.56,0-.02,0-.04,0-.06.07-.55.18-1.09.34-1.61.03-.1.07-.21.1-.31,0-.02.02-.03.05-.03.08,0,.17,0,.25,0,0,0,0,0,.02,0,0,.02,0,.03,0,.05,0,.24,0,.48,0,.72,0,.13.08.23.21.25.02,0,.04,0,.06-.02.03-.04.05-.09.09-.11.04-.02.09,0,.14,0,.09,0,.18,0,.27,0,.02,0,.04.01.05.02.03.03.05.06.07.09.01.02.03.02.05.02.13-.02.21-.12.21-.26,0-.24,0-.48,0-.71,0-.01,0-.03,0-.05.06,0,.12,0,.17,0,.04,0,.1-.01.13,0,.03.02.03.08.05.12.17.49.29,1,.37,1.51.02.11.03.21.04.32,0,.02,0,.05,0,.07-.08.19-.17.37-.25.56,0,0,0,0,0,.02Zm-1.08-.98c-.17,0-.35,0-.52,0-.1,0-.15.05-.15.15,0,.22,0,.44,0,.67,0,.09.06.15.15.15.35,0,.7,0,1.05,0,.09,0,.15-.06.15-.15,0-.22,0-.45,0-.67,0-.1-.06-.15-.15-.15-.17,0-.35,0-.52,0Z"/>
        <path class="cls-1" d="m49.94,56.95c0-.1,0-.19,0-.28,0-.01,0-.02.02-.03.09-.09.18-.18.28-.28,0,0,.02-.02.04-.02.14,0,.28,0,.42,0,0,0,0,0,.01,0,0,0-.02.02-.02.03-.18.18-.37.37-.55.55-.01.01-.04.02-.06.02-.04,0-.09,0-.13,0Z"/>
        <path class="cls-1" d="m50.38,56.95c.19-.19.37-.37.55-.55,0,.08,0,.16,0,.24,0,0,0,.02-.02.03-.09.09-.18.18-.27.27,0,0-.03.02-.04.02-.07,0-.15,0-.22,0Z"/>
      </g>
    </g>
  </g>
</svg>