<?xml version="1.0" encoding="UTF-8"?>
<svg id="Layer_2" data-name="Layer 2" xmlns="http://www.w3.org/2000/svg" viewBox="0 0 14.67 21.47">
  <defs>
    <style>
      .cls-1 {
        fill: #e95c28;
      }
    </style>
  </defs>
  <g id="Layer_1-2" data-name="Layer 1">
    <g>
      <path class="cls-1" d="m10.4,13.77c-.15-.03-.43-.09-.71-.14-.24-.04-.49-.08-.73,0-.2.07-.35.2-.51.34-.19.16-.36.33-.56.47-.39.29-.72.29-1.1,0-.19-.15-.37-.32-.56-.47-.09-.07-.17-.14-.26-.21-.27-.2-.57-.21-.88-.15-.26.05-.52.11-.78.15-.26.04-.51.04-.73-.14-.15-.12-.24-.29-.3-.47-.09-.24-.17-.48-.25-.72-.13-.4-.39-.65-.78-.78-.26-.08-.51-.17-.76-.27-.16-.06-.3-.14-.41-.27-.15-.17-.2-.38-.17-.59.04-.28.1-.57.15-.85.04-.24.08-.48,0-.72-.07-.2-.21-.36-.34-.51-.16-.19-.33-.37-.48-.57-.13-.17-.22-.37-.2-.6.02-.2.12-.38.24-.53.16-.2.32-.39.5-.57.29-.31.4-.66.31-1.08-.06-.31-.12-.61-.16-.92-.05-.36.09-.64.42-.8.27-.13.55-.21.83-.32.19-.07.38-.14.53-.27.19-.16.28-.37.36-.59.1-.27.19-.54.3-.81.04-.1.11-.19.18-.27.17-.19.39-.24.63-.22.26.03.51.09.76.13.15.02.3.05.45.06.3.03.54-.11.76-.29.23-.2.46-.41.7-.59.36-.27.69-.26,1.05,0,.19.15.37.31.56.47.16.14.32.28.53.35.24.09.48.05.72,0,.28-.05.55-.11.83-.14.34-.04.62.08.78.4.12.24.2.5.29.75.04.11.08.22.12.34.12.31.34.5.65.61.23.08.47.16.71.25.12.04.23.09.34.15.3.16.42.43.38.76-.03.28-.1.57-.15.85-.05.29-.09.59.08.86.09.14.2.27.3.4.15.19.32.36.46.55.15.2.24.42.18.68-.04.17-.13.32-.24.46-.17.21-.35.4-.52.61-.14.17-.28.35-.29.58-.01.18,0,.36.03.54.04.28.1.55.14.83.05.36-.09.64-.42.8-.25.12-.53.2-.79.3-.12.04-.23.09-.35.14-.27.12-.43.34-.53.61-.1.26-.18.53-.28.8-.05.12-.11.23-.18.34-.16.24-.41.31-.83.29ZM7.33,2.16c-2.84,0-5.17,2.32-5.17,5.17,0,2.87,2.32,5.17,5.17,5.17,2.84,0,5.17-2.32,5.17-5.16,0-2.85-2.31-5.17-5.18-5.18Z"/>
      <path class="cls-1" d="m7.69,15.47c.32-.16.56-.41.82-.63.14-.12.29-.24.44-.34.21-.14.44-.18.69-.14.34.05.67.13,1.01.17.17.02.35.03.53.01.27-.02.45-.19.58-.42.16-.28.24-.59.35-.89.08-.22.16-.45.3-.64.04-.05.09-.1.14-.16.03.14.07.27.1.39.34,1.39.67,2.79,1,4.18.24.98.47,1.95.71,2.93.03.12,0,.24-.09.33-.1.09-.22.1-.34.05-.64-.25-1.28-.5-1.93-.75-.12-.05-.24-.1-.36-.14-.14-.05-.26-.03-.36.08-.21.24-.42.47-.64.71-.33.37-.67.75-1,1.12-.09.1-.2.15-.33.11-.14-.04-.21-.14-.24-.27-.22-.92-.44-1.85-.67-2.77-.23-.98-.47-1.95-.71-2.94Z"/>
      <path class="cls-1" d="m2.13,12.45c.14.11.23.25.29.41.11.29.2.58.31.86.09.24.18.47.37.64.13.12.29.18.46.19.3.02.58-.05.87-.11.21-.04.42-.08.63-.1.27-.03.52.04.74.2.18.13.34.28.51.43.19.16.37.34.6.46.05.02.06.05.05.1-.16.64-.31,1.29-.46,1.93-.25,1.03-.5,2.07-.75,3.1-.05.22-.11.43-.16.65-.03.13-.11.21-.23.24-.12.03-.23,0-.31-.1-.29-.32-.58-.65-.87-.97-.26-.29-.51-.58-.77-.86-.11-.12-.23-.15-.39-.09-.5.19-1,.39-1.5.58-.25.1-.51.2-.76.3-.13.05-.25.04-.35-.06-.1-.09-.12-.21-.08-.34.23-.96.46-1.92.69-2.88.13-.55.26-1.1.39-1.64.18-.76.37-1.52.55-2.28.05-.21.1-.42.15-.62,0-.01,0-.02.02-.04Z"/>
      <path class="cls-1" d="m4.91,6.71c.56.56,1.13,1.13,1.7,1.71,1.29-1.29,2.58-2.58,3.87-3.87.34.34.66.67,1,1-.04.04-.08.09-.13.13-1.4,1.4-2.8,2.79-4.19,4.19-.24.24-.57.31-.83.19-.08-.03-.15-.08-.21-.14-.74-.73-1.47-1.47-2.21-2.2,0,0-.01-.01-.01-.01.33-.33.66-.66,1-1Z"/>
    </g>
  </g>
</svg>