<?xml version="1.0" encoding="UTF-8"?>
<svg id="Layer_2" data-name="Layer 2" xmlns="http://www.w3.org/2000/svg" viewBox="0 0 14.79 9.24">
  <defs>
    <style>
      .cls-1 {
        fill: #e95c28;
      }
    </style>
  </defs>
  <g id="Layer_1-2" data-name="Layer 1">
    <path class="cls-1" d="m.45,4.87c0-.14,0-.25,0-.37,0-.07.02-.09.08-.09.1,0,.21,0,.31,0,.06,0,.08-.02.09-.08.28-1.3,1.32-2.28,2.63-2.47.27-.04.55-.03.82-.04.3,0,.61,0,.93,0v-.62h1.77v.62s.08,0,.11,0c.39,0,.78,0,1.18,0,1.19.03,2.12.53,2.72,1.56.62,1.06.61,2.15,0,3.22-.41.73-1.05,1.19-1.85,1.43-.06.02-.08.04-.07.09,0,.15,0,.29,0,.44,0,.05.02.07.07.07.08,0,.17,0,.25,0,.69,0,1.38,0,2.07,0,.22,0,.35.17.3.37-.03.11-.1.18-.21.2-.07.01-.15.02-.23.02-3.48,0-6.95,0-10.43,0-.06,0-.11,0-.17,0-.18-.03-.28-.14-.27-.32.01-.16.13-.27.31-.27.75,0,1.51,0,2.26,0,.09,0,.12-.03.12-.12,0-.12,0-.25,0-.37,0-.07-.02-.1-.09-.12-.81-.25-1.43-.74-1.86-1.47-.16-.28-.28-.57-.34-.89-.02-.07-.04-.11-.13-.1-.1,0-.2,0-.3,0-.05,0-.07-.02-.07-.07,0-.1,0-.2,0-.3,0-.06-.02-.08-.08-.09C.11,5.06,0,4.91,0,4.65c0-1.2,0-2.4,0-3.61C0,.46.46,0,1.05,0,4.88,0,8.71,0,12.54,0c.28,0,.54.03.77.21.28.22.42.5.42.85,0,.71,0,1.41,0,2.12,0,.12-.03.15.14.14.02,0,.03,0,.06,0,0,.15,0,.29,0,.44,0,.07.02.1.09.12.07.02.13.05.2.07.26.11.38.31.38.59,0,.6,0,1.2,0,1.79,0,.46.01.92,0,1.38-.01.43.03.85.16,1.27.02.07.03.14.05.2,0,.01,0,.03,0,.05-.17,0-.33,0-.5,0-.02,0-.05-.05-.06-.09-.05-.19-.05-.19-.25-.19-.29,0-.57,0-.86,0-.07,0-.09.03-.1.08-.04.2-.04.2-.25.2-.11,0-.22,0-.35,0,.04-.17.07-.33.11-.48.07-.25.1-.5.1-.77,0-1.12,0-2.25,0-3.37,0-.41.14-.61.53-.72.09-.03.13-.07.12-.17,0-.1,0-.19,0-.29,0-.13,0-.13.13-.12.02,0,.04,0,.07,0,0-.04,0-.07,0-.1,0-.7,0-1.41,0-2.11,0-.41-.3-.86-.84-.85-.21,0-.41,0-.62,0-3.64,0-7.27,0-10.91,0-.52,0-.86.34-.86.86,0,1.14,0,2.27,0,3.41,0,.06,0,.12,0,.18.01.1.08.13.18.16Zm3.85,3.3c0,.14,0,.27,0,.39,0,.07.02.09.09.09.4,0,.81,0,1.21,0,.07,0,.08-.03.08-.08,0-.1,0-.2,0-.3,0-.07-.02-.1-.1-.1-.23,0-.46,0-.7,0-.19,0-.38,0-.58,0Zm3.12.48s0,0,0,0c.2,0,.4,0,.6,0,.07,0,.1-.02.09-.09,0-.1,0-.19,0-.29,0-.08-.02-.1-.1-.1-.39,0-.79,0-1.18,0-.07,0-.09.03-.09.09,0,.1,0,.19,0,.29,0,.08.02.1.1.1.2,0,.39,0,.59,0Zm5.73-.03h.95q-.03-.19-.2-.19c-.2,0-.39,0-.59,0-.16,0-.18.03-.17.19Z"/>
  </g>
</svg>