<?xml version="1.0" encoding="UTF-8"?>
<svg id="Layer_2" data-name="Layer 2" xmlns="http://www.w3.org/2000/svg" viewBox="0 0 12.89 13.92">
  <defs>
    <style>
      .cls-1 {
        fill: #e95c28;
      }
    </style>
  </defs>
  <g id="Layer_1-2" data-name="Layer 1">
    <g>
      <path class="cls-1" d="m7.05,0c.28.09.47.27.51.57,0,.03.05.06.09.08.24.1.49.2.72.3.07.03.11.03.17-.01.26-.18.57-.16.8.05.25.23.49.47.72.72.21.22.23.54.06.79-.05.07-.04.12,0,.19.11.23.2.46.29.7.03.07.06.1.13.11.34.07.53.31.53.65,0,.31,0,.62,0,.92,0,.34-.2.58-.53.64-.07.01-.1.04-.13.11-.09.24-.19.48-.29.71-.03.07-.03.12.02.18.17.25.16.56-.05.78-.24.26-.49.51-.75.75-.21.2-.53.21-.77.05-.07-.05-.11-.05-.19-.02-.23.11-.46.2-.7.29-.07.03-.1.05-.12.12-.07.34-.31.54-.66.54-.3,0-.6,0-.9,0-.36,0-.59-.19-.67-.53-.01-.04-.06-.09-.1-.11-.24-.11-.48-.2-.73-.3-.04-.02-.11-.01-.15.01-.29.18-.6.16-.84-.08-.22-.22-.45-.44-.66-.66-.23-.24-.26-.55-.07-.83.04-.06.03-.1,0-.16-.11-.24-.2-.48-.31-.72-.02-.04-.07-.09-.12-.1-.34-.08-.54-.31-.54-.67,0-.3,0-.61,0-.91,0-.35.19-.58.53-.66.04-.01.1-.06.12-.1.11-.24.2-.48.3-.72.03-.07.02-.11-.02-.17-.18-.26-.16-.57.06-.8.23-.24.47-.48.71-.71.22-.21.54-.24.8-.06.07.05.11.04.18.01.23-.1.47-.2.7-.3.04-.02.1-.05.11-.08.04-.31.24-.48.51-.58h1.22Zm-3.08,1.22c-.06.04-.13.06-.17.1-.22.21-.44.43-.65.65-.11.12-.12.22-.02.34.14.16.14.33.05.51-.12.25-.22.51-.31.76-.07.19-.18.31-.39.32-.15.01-.23.1-.23.25,0,.31,0,.62,0,.92,0,.16.08.25.24.26.2.01.31.13.38.31.1.27.21.53.33.79.08.18.08.34-.04.49-.1.13-.1.23.02.35.21.22.43.43.65.64.12.12.22.12.35.02.16-.13.32-.13.5-.05.24.12.5.22.75.31.2.07.32.18.35.4.01.16.1.22.25.22.3,0,.61,0,.91,0,.17,0,.25-.08.26-.24.02-.19.12-.3.29-.37.28-.11.55-.22.82-.34.16-.07.31-.07.46.04.15.12.25.11.38-.02.21-.2.41-.41.61-.62.13-.13.14-.22.02-.37-.12-.16-.13-.31-.04-.49.12-.25.22-.5.31-.76.07-.19.18-.31.39-.34.17-.02.23-.09.23-.26,0-.3,0-.6,0-.9,0-.18-.07-.26-.25-.27-.18-.02-.29-.12-.36-.28-.11-.28-.23-.56-.35-.84-.07-.16-.07-.3.04-.45.12-.17.12-.25-.03-.4-.2-.2-.39-.39-.59-.58-.16-.16-.22-.16-.4-.03-.14.11-.28.12-.44.05-.28-.12-.57-.24-.85-.35-.16-.06-.26-.17-.28-.35-.02-.19-.09-.25-.28-.25-.29,0-.59,0-.88,0-.17,0-.25.07-.27.24-.02.2-.12.31-.3.38-.27.11-.54.22-.81.34-.17.08-.32.07-.47-.05-.05-.04-.11-.06-.17-.09Z"/>
      <path class="cls-1" d="m2.05,13.05c-.01.06-.02.12-.03.18-.06.25-.28.42-.56.43-.29,0-.59,0-.88,0-.34,0-.57-.24-.57-.58,0-1.43,0-2.85,0-4.28,0-.34.24-.57.58-.57.28,0,.56,0,.84,0,.37,0,.6.22.62.59,0,.03,0,.05,0,.04.4.08.79.12,1.15.23.36.11.71.28,1.03.47.41.24.83.36,1.3.4.6.06,1.2.12,1.79.21.64.09,1.05.59,1.05,1.23,0,.04,0,.08,0,.14.28-.12.54-.24.81-.36.82-.36,1.63-.72,2.45-1.07.15-.06.31-.11.47-.11.37-.01.68.25.77.62.08.33-.05.74-.38.92-1.16.64-2.32,1.3-3.47,1.96-.48.28-.99.41-1.55.4-.81-.02-1.62-.01-2.43,0-.45,0-.87-.07-1.28-.23-.51-.2-1.02-.38-1.54-.58-.05-.02-.1-.04-.16-.05Zm-.01-3.73c0,.18,0,.34,0,.5,0,.05,0,.1,0,.15-.01.13-.1.21-.21.2-.11,0-.19-.09-.19-.22,0-.36,0-.72,0-1.09,0-.18-.05-.24-.23-.24-.26,0-.52,0-.77,0-.17,0-.22.05-.22.22,0,1.39,0,2.79,0,4.18,0,.16.06.22.22.22.25,0,.5,0,.75,0,.21,0,.26-.05.26-.26,0-.66,0-1.31,0-1.97,0-.05,0-.09,0-.14.01-.1.08-.16.18-.17.1,0,.18.04.21.14.01.05.02.11.02.16,0,.48,0,.97,0,1.45,0,.1.03.15.12.19.63.23,1.26.47,1.89.7.26.1.52.14.8.14.85,0,1.69-.02,2.54,0,.54.02,1.02-.12,1.49-.38,1.14-.65,2.28-1.3,3.42-1.94.16-.09.23-.29.17-.47-.06-.19-.22-.31-.41-.29-.1.01-.2.04-.3.08-1.15.5-2.29,1.01-3.44,1.51-.06.02-.12.05-.18.05-.86,0-1.72,0-2.58,0-.14,0-.23-.08-.22-.2,0-.11.09-.19.21-.2.04,0,.08,0,.12,0,.71,0,1.41,0,2.12,0,.05,0,.1,0,.17,0,0-.09,0-.16,0-.23,0-.45-.29-.79-.75-.85-.5-.06-1-.11-1.5-.17-.37-.05-.75-.09-1.1-.2-.31-.1-.6-.3-.89-.45-.52-.28-1.07-.42-1.68-.43Z"/>
      <path class="cls-1" d="m4.21,5.6c.33-.3.5-.67.53-1.09.06-.83.59-1.47,1.39-1.65.25-.06.5-.05.75,0,.15.03.26.1.31.25.05.16-.02.27-.13.38-.24.24-.47.47-.71.71-.14.14-.13.19,0,.32.07.07.14.14.21.21.1.1.17.1.27,0,.24-.24.49-.49.73-.73.11-.11.22-.18.39-.14.16.05.22.17.25.32.24,1.04-.53,2.05-1.62,2.13-.44.03-.83.21-1.11.53.26.12.53.19.8.2,1.29.06,2.32-.74,2.59-2,.03-.16.12-.24.24-.22.13.02.19.13.16.29-.28,1.46-1.56,2.44-3.05,2.33-1.3-.09-2.43-1.16-2.59-2.45-.19-1.55.78-2.9,2.31-3.21,1.48-.29,3,.72,3.31,2.19.03.16-.02.27-.14.29-.13.03-.22-.04-.26-.21-.27-1.16-1.26-1.93-2.44-1.92-1.14.02-2.12.83-2.35,1.98-.1.49-.05.98.16,1.46Zm3.63-1.22s-.04,0-.06-.01c-.23.23-.45.46-.68.68-.25.24-.57.24-.81,0-.09-.09-.18-.18-.27-.27-.24-.25-.25-.57,0-.82.2-.21.41-.41.61-.62.02-.02.04-.05.07-.09-.07,0-.12-.02-.17-.02-.74-.03-1.34.53-1.4,1.27-.04.53-.24.98-.61,1.35-.04.04-.1.07-.18.12.26.26.48.48.7.7.05-.04.07-.05.09-.07.4-.42.88-.64,1.46-.68.58-.04,1.05-.45,1.18-1.02.04-.17.04-.34.05-.52Z"/>
    </g>
  </g>
</svg>