<?xml version="1.0" encoding="UTF-8"?>
<svg id="Layer_2" data-name="Layer 2" xmlns="http://www.w3.org/2000/svg" viewBox="0 0 13.13 12.88">
  <defs>
    <style>
      .cls-1 {
        fill: #e95c28;
      }
    </style>
  </defs>
  <g id="Layer_1-2" data-name="Layer 1">
    <path class="cls-1" d="m6.42,5.56c0,.17,0,.33,0,.49,0,.2-.08.27-.27.28q-.22,0-.22.23c0,1.99,0,3.98,0,5.97,0,.3-.05.35-.36.35-.42,0-.84,0-1.26,0-.22,0-.29-.06-.29-.29,0-2.01,0-4.02,0-6.04,0-.07,0-.14,0-.23-.12,0-.22,0-.32,0-.18-.01-.25-.08-.25-.26,0-.17,0-.33,0-.51-.05,0-.1-.02-.14-.02-.45,0-.9,0-1.35,0-.12,0-.17.03-.17.16,0,1.44,0,2.89,0,4.33,0,.12.04.17.16.15.04,0,.09,0,.13,0,.21,0,.29.08.29.3,0,.33,0,.67,0,1,0,.11.04.15.15.15.12,0,.25,0,.37,0,.15,0,.23.08.24.22,0,.27,0,.54,0,.8,0,.15-.09.22-.24.23-.87,0-1.75,0-2.62,0-.17,0-.25-.08-.25-.25,0-.25,0-.5,0-.76,0-.18.08-.25.26-.25.12,0,.25,0,.37,0,.1,0,.13-.04.13-.13,0-.34,0-.68,0-1.01,0-.22.06-.29.29-.29.1,0,.19,0,.3,0v-4.65c-.12,0-.24,0-.36,0-.15,0-.22-.08-.22-.22,0-.42,0-.85,0-1.27,0-.14.09-.21.23-.21.02,0,.03,0,.05,0,.36.08.6-.09.83-.35.89-.98,1.8-1.95,2.7-2.91.09-.1.16-.19.14-.34C4.71.09,4.81,0,4.93,0c.13,0,.22.09.22.24,0,.12.04.18.13.25,1.26.89,2.52,1.79,3.77,2.69.45.32.91.65,1.37.97.07.05.17.07.25.08.54.03,1.07.04,1.61.07.24.01.3.07.3.31,0,.23,0,.45,0,.68,0,.19-.07.26-.26.27-.35,0-.7,0-1.05,0-.11,0-.15.03-.15.14,0,.66,0,1.32,0,1.98,0,.07.04.15.08.19.37.36.75.71,1.13,1.06.05.05.14.07.21.08.1.01.2,0,.31,0,.18,0,.26.07.26.25,0,.61,0,1.21,0,1.82,0,.2-.08.26-.28.26-1.27,0-2.54,0-3.82,0-.2,0-.27-.07-.27-.26,0-.61,0-1.22,0-1.84,0-.17.08-.26.25-.24.29.04.48-.08.67-.28.3-.3.62-.57.93-.87.05-.05.09-.14.09-.21,0-.65,0-1.3,0-1.95,0-.09,0-.16-.13-.16-1.35,0-2.71,0-4.06,0-.02,0-.04,0-.08.01Zm3.22-1.38s.01-.03.02-.04c-1.49-1.06-2.98-2.12-4.49-3.2,0,.05-.02.07-.02.09,0,.61,0,1.22,0,1.83,0,.1.05.12.13.14.51.13.86.44,1.05.93.04.1.1.12.19.12.55.02,1.1.04,1.66.06.49.02.97.04,1.46.06Zm3.05,5.27s-.06-.02-.08-.02c-1.1,0-2.2,0-3.3,0-.1,0-.13.04-.13.13,0,.32,0,.63,0,.95q0,.39.39.39c.98,0,1.96,0,2.94,0,.13,0,.18-.04.17-.17,0-.21,0-.42,0-.63,0-.22,0-.44,0-.66ZM3.9,3.4s-.02.07-.02.09c0,.76,0,1.52,0,2.29,0,.11.04.13.14.13.6,0,1.2,0,1.8,0,.12,0,.16-.03.16-.15,0-.45,0-.89,0-1.34-.02-.43-.23-.77-.63-.93-.47-.18-.96-.04-1.45-.09Zm2.53,1.7h5.72c0-.07,0-.13,0-.19.02-.15-.03-.21-.19-.2-.25,0-.49-.01-.74-.02-1.25-.05-2.51-.1-3.76-.15-.34-.01-.68,0-1.03,0v.57Zm-1.71-3.98s-.03-.01-.04-.02c-.85.91-1.7,1.83-2.58,2.77.48.02.91.04,1.35.05,0-.25,0-.46,0-.68,0-.21.07-.28.28-.28.27,0,.55,0,.82,0,.12,0,.17-.02.17-.16,0-.41,0-.83,0-1.24,0-.15,0-.3,0-.46Zm-3.52,3.16v.82h2.24v-.73c-.74-.03-1.48-.06-2.24-.09Zm1.48,8.16c0-.07,0-.12,0-.18q0-.21-.21-.21c-.57,0-1.14,0-1.71,0q-.34,0-.32.35s0,.02.02.04h2.22Zm-1.49-1.82c0,.32,0,.61,0,.91,0,.03.06.09.1.09.18,0,.35.01.53,0,.04,0,.1-.07.1-.1,0-.26,0-.52,0-.79,0-.04-.06-.1-.1-.1-.2-.01-.4,0-.63,0Zm10.53-1.63l.02-.03c-.28-.26-.55-.52-.84-.78-.29.27-.57.53-.88.82h1.7Zm-7.27-.73c0,.3,0,.56,0,.81,0,.02.04.06.06.06.23,0,.45,0,.73,0-.28-.3-.52-.57-.79-.88Zm0,2.53h.77c-.26-.29-.5-.56-.77-.86v.86Zm0,.82v.82h.74c-.26-.28-.49-.54-.74-.82Zm.27-2.03c.26.29.49.54.75.83v-.83h-.75Zm.75-.84v-.82h-.75c.26.28.49.54.75.82Zm-.98-2.03s-.03,0-.05.01c0,.22,0,.45,0,.67,0,.03.05.08.08.08.21,0,.41,0,.67,0-.26-.28-.48-.52-.7-.76Zm.97,4.54h-.74c.26.28.49.54.74.82v-.82Zm-.73-4.92c.25.27.48.51.73.78v-.78h-.73Z"/>
  </g>
</svg>