<?xml version="1.0" encoding="UTF-8"?>
<svg id="Layer_2" data-name="Layer 2" xmlns="http://www.w3.org/2000/svg" viewBox="0 0 9.54 9.54">
  <defs>
    <style>
      .cls-1 {
        fill: #e95c28;
      }
    </style>
  </defs>
  <g id="Layer_1-2" data-name="Layer 1">
    <g>
      <path class="cls-1" d="m1.37,2.98c.26,0,.52,0,.77,0,.12,0,.25,0,.37,0,.02,0,.03,0,.05,0,.08.01.1.05.07.13-.03.07-.06.15-.08.23-.07.33.17.59.41.67.32.1.64.08.94-.09.29-.16.57-.32.86-.48.07-.04.08-.04.14.03.23.28.46.56.69.84.41.5.83,1.01,1.24,1.51.07.09.15.18.21.27.14.22.01.51-.24.56-.12.02-.22-.01-.31-.08-.03-.02-.05-.04-.09-.07.02.2-.04.35-.22.43-.18.08-.33.03-.48-.13.02.21-.03.37-.22.45-.18.08-.33,0-.48-.12,0,.06,0,.1,0,.15-.03.25-.29.39-.52.3-.07-.03-.07-.04-.04-.1.18-.31.11-.69-.17-.9-.07-.05-.16-.08-.24-.12-.03-.02-.07-.03-.09-.06-.08-.12-.19-.2-.33-.25-.02,0-.04-.03-.05-.05-.08-.2-.22-.33-.42-.41-.02,0-.04-.03-.05-.05-.2-.49-.8-.59-1.15-.2-.08.09-.15.19-.23.28-.02.02-.05.04-.08.04-.39,0-.78,0-1.17,0-.23,0-.42-.17-.45-.4-.05-.53-.05-1.06.06-1.59.17-.79.52-1.49,1.04-2.11.52-.62,1.16-1.06,1.9-1.35.41-.16.85-.26,1.29-.3.89-.08,1.75.07,2.55.47.2.1.39.22.59.33,0,0,.01-.02.02-.03.05-.07.1-.14.15-.21.04-.06.08-.09.15-.08.07,0,.1.06.13.12.07.18.14.36.2.53.1.26.2.52.3.77.06.15,0,.24-.16.23-.47-.02-.93-.05-1.4-.07-.02,0-.03,0-.05,0-.11-.02-.16-.13-.09-.22.04-.07.09-.13.14-.19.02-.02.03-.05.05-.07C5.22.36,2.44.86,1.37,2.98Z"/>
      <path class="cls-1" d="m8.46,5.78c-.07,0-.14,0-.21,0-.17,0-.34,0-.51,0-.1,0-.18.03-.25.09-.09.08-.09.08-.17-.02-.23-.28-.47-.56-.7-.84-.49-.59-.98-1.18-1.46-1.77-.03-.04-.07-.08-.1-.13-.09-.1-.17-.12-.29-.05-.25.14-.49.28-.74.41-.16.09-.32.17-.49.23-.16.06-.33.04-.48-.03-.18-.07-.21-.29-.06-.4.42-.33.84-.66,1.28-.97.36-.26.76-.3,1.17-.14.64.25,1.29.5,1.93.75.15.06.32.09.48.09.33,0,.66,0,.99,0,.24,0,.39.11.47.33.11.32.16.66.21.99.04.34.03.67-.02,1.01-.09.77-.36,1.48-.8,2.12-.65.95-1.54,1.57-2.63,1.9-.33.1-.66.15-1,.18-.31.02-.61.02-.92-.03-.82-.11-1.57-.42-2.23-.92-.05-.04-.08-.04-.11.02-.05.07-.1.13-.15.19-.04.05-.09.08-.15.07-.06-.01-.09-.06-.11-.11-.06-.19-.13-.39-.19-.58-.08-.25-.16-.5-.24-.76,0-.02-.01-.04-.01-.06-.02-.1.04-.18.15-.17.34.03.67.06,1.01.1.14.01.29.03.43.04.07,0,.12.03.15.1.03.07,0,.12-.04.17-.05.07-.11.13-.16.2-.02.03-.03.05,0,.07.42.32.89.53,1.41.65.43.1.86.13,1.29.08,1.22-.14,2.16-.74,2.83-1.76.2-.3.34-.62.44-.97,0-.02.01-.04.02-.06,0,0,0,0,0-.02Z"/>
      <path class="cls-1" d="m3.48,7.25c-.13.06-.25.06-.36-.03-.11-.08-.16-.19-.15-.33-.14.07-.27.06-.38-.03-.11-.09-.16-.2-.14-.35-.03,0-.05.02-.07.02-.15.05-.31,0-.41-.14-.09-.12-.09-.26.02-.39.09-.12.18-.23.28-.34.1-.11.26-.13.39-.06.12.07.18.22.14.37,0,.03-.02.06-.03.1.06-.01.11-.03.15-.04.22-.03.4.15.35.37,0,.03-.01.06-.02.1.02,0,.04,0,.06,0,.24-.07.42.09.42.31,0,0,0,0,0,.02.02,0,.04,0,.06-.01.24-.05.44.12.4.36-.03.16-.11.31-.28.37-.16.06-.36-.05-.41-.22,0-.02-.01-.04-.02-.07Z"/>
    </g>
  </g>
</svg>