<?xml version="1.0" encoding="UTF-8"?>
<svg id="Layer_2" data-name="Layer 2" xmlns="http://www.w3.org/2000/svg" viewBox="0 0 16.67 6.36">
  <defs>
    <style>
      .cls-1 {
        fill: #e95c28;
      }
    </style>
  </defs>
  <g id="Layer_1-2" data-name="Layer 1">
    <g>
      <path class="cls-1" d="m0,2.08c.02-.1.03-.19.05-.29C.23.97.9.43,1.78.43c2.97,0,5.94,0,8.92,0,.86,0,1.54.54,1.71,1.32.24,1.08-.55,2.06-1.68,2.08-.61.01-1.23,0-1.84,0-2.35,0-4.71,0-7.06,0-.91,0-1.59-.53-1.77-1.37-.02-.09-.03-.19-.05-.29,0-.03,0-.07,0-.1Z"/>
      <path class="cls-1" d="m16.67,5.3c-.1.13-.24.17-.4.16-.14,0-.28,0-.41,0-.18-.73-.55-1.07-1.11-1.04-.44.03-.93.34-.98,1.02h-2.64c-.02-.34-.15-.62-.43-.83-.19-.14-.41-.2-.64-.2-.54.02-.89.37-1.01,1.03h-.2v-.83h-2.22v.83h-.27c-.03-.36-.17-.66-.49-.87-.19-.12-.41-.18-.63-.16-.53.05-.86.4-.97,1.02h-.18c-.18-.72-.55-1.06-1.11-1.03-.54.03-.92.43-.98,1.04-.1,0-.2,0-.3,0-.28,0-.55,0-.83,0-.25,0-.35-.11-.35-.36,0-.17,0-.35,0-.53.05,0,.08-.01.12-.02.12,0,.18-.06.21-.18.1-.39.1-.39.51-.39,1.63,0,3.27,0,4.9,0,1.08,0,2.16,0,3.24,0,.58,0,1.16,0,1.74,0,.05,0,.11,0,.18,0v.33h1.75c0-.36,0-.72,0-1.08,0-.64,0-1.28,0-1.92,0-.19.1-.3.29-.3.57,0,1.14,0,1.71,0,.2,0,.29.12.3.33,0,.58,0,1.15,0,1.73v.2c.2,0,.39,0,.59,0,.11,0,.22,0,.33,0,.14,0,.23.07.31.17v1.86Zm-3.19-2.49h1.63c0-.41,0-.8,0-1.2,0-.13-.06-.21-.2-.21-.41,0-.82,0-1.23,0-.12,0-.19.07-.19.19,0,.4,0,.8,0,1.21Z"/>
      <path class="cls-1" d="m10.07,6.36c-.5,0-.89-.4-.89-.9,0-.49.41-.9.91-.89.49,0,.88.41.88.9,0,.5-.4.9-.9.89Zm.38-.89c0-.21-.17-.39-.38-.39-.21,0-.38.17-.38.38,0,.21.16.39.37.39.21,0,.38-.17.39-.38Z"/>
      <path class="cls-1" d="m3.02,6.36c-.5,0-.9-.4-.9-.9,0-.49.41-.9.9-.9.49,0,.89.41.89.91,0,.49-.4.88-.89.88Zm-.38-.9c0,.21.16.39.37.39.21,0,.38-.17.39-.38,0-.21-.16-.39-.37-.39-.21,0-.38.17-.39.38Z"/>
      <path class="cls-1" d="m15.69,5.47c0,.49-.39.89-.88.89-.5,0-.9-.4-.91-.89,0-.49.41-.9.9-.9.5,0,.89.4.89.9Zm-.51,0c0-.21-.17-.38-.38-.39-.21,0-.38.17-.38.38,0,.21.17.39.38.39.21,0,.38-.17.38-.38Z"/>
      <path class="cls-1" d="m6.19,5.47c0,.49-.4.88-.89.88-.5,0-.9-.4-.9-.9,0-.49.42-.9.9-.89.5,0,.89.41.89.91Zm-1.27-.01c0,.21.17.38.38.39.21,0,.38-.17.38-.39,0-.21-.17-.38-.38-.38-.21,0-.38.17-.38.38Z"/>
      <path class="cls-1" d="m3.34,0c.21,0,.42,0,.63,0,.12,0,.22.04.22.18,0,.13-.1.17-.21.17-.43,0-.85,0-1.28,0-.12,0-.21-.05-.21-.17,0-.13.1-.18.22-.18.21,0,.42,0,.63,0Z"/>
      <path class="cls-1" d="m9.11.35c-.21,0-.41,0-.62,0-.12,0-.23-.02-.23-.17,0-.15.11-.18.23-.18.41,0,.82,0,1.24,0,.12,0,.23.03.23.17,0,.15-.11.18-.24.18-.21,0-.41,0-.62,0Z"/>
    </g>
  </g>
</svg>