<?xml version="1.0" encoding="UTF-8"?>
<svg id="Layer_2" data-name="Layer 2" xmlns="http://www.w3.org/2000/svg" viewBox="0 0 11.08 11.07">
  <defs>
    <style>
      .cls-1 {
        fill: #e95c28;
      }
    </style>
  </defs>
  <g id="Layer_1-2" data-name="Layer 1">
    <g>
      <path class="cls-1" d="m4.44,0c.68.62,1.36,1.25,2.04,1.87.73.67,1.46,1.35,2.19,2.02.02.02.05.03.06.05.02.05.06.11.04.15-.01.05-.07.11-.12.12-.09.02-.19.01-.29.01-.05,0-.09,0-.15,0,0,.18,0,.35,0,.52,0,.11,0,.22,0,.33,0,.1-.07.16-.16.17-.1,0-.17-.06-.17-.17,0-.24,0-.48,0-.72,0-.04,0-.07,0-.12H.92v6.48h6.96c0-.13,0-.26,0-.4,0-.04,0-.08,0-.12.02-.09.08-.13.17-.13.09,0,.14.06.14.15,0,.22,0,.43,0,.65,0,.14-.07.19-.23.19-.56,0-1.11,0-1.67,0-1.82,0-3.63,0-5.45,0-.04,0-.07,0-.11,0-.12,0-.18-.06-.18-.19,0-.21,0-.41,0-.62,0-1.95,0-3.9,0-5.85,0-.06,0-.13,0-.2-.11,0-.21,0-.31,0-.09,0-.2.01-.24-.1-.04-.11.03-.18.1-.24.69-.64,1.39-1.27,2.08-1.91.67-.61,1.34-1.23,2.01-1.84.05-.04.1-.08.15-.12.03,0,.06,0,.09,0ZM.62,3.89h7.57c-1.27-1.17-2.53-2.32-3.78-3.48C3.14,1.57,1.89,2.72.62,3.89Z"/>
      <path class="cls-1" d="m9.06,9.88h-1.26c-.14.49-.38.71-.78.69-.38-.01-.61-.24-.72-.7-.18,0-.37,0-.56,0-.19,0-.24-.05-.24-.24,0-.26,0-.51,0-.77,0-.19.05-.24.25-.24,1,0,2,0,3,0,.04,0,.09,0,.14,0,0-.05,0-.09,0-.14,0-.59,0-1.19,0-1.78,0-.19.05-.24.24-.24.29,0,.58,0,.86,0,.18,0,.33.1.42.25.2.31.39.63.57.95.05.09.08.21.08.32,0,.55,0,1.1,0,1.65,0,.17-.05.22-.23.23-.1,0-.2,0-.31,0-.03.24-.13.43-.32.57-.14.1-.29.14-.46.13-.38-.02-.62-.25-.71-.69Zm-3.19-.36c.17,0,.33,0,.48,0,.03,0,.06-.03.08-.06.31-.48.93-.48,1.25,0,.02.03.07.06.1.06.43,0,.85,0,1.28,0,.03,0,.07-.03.09-.05.32-.49.93-.49,1.25,0,.02.02.05.05.07.05.09,0,.18,0,.27,0v-.56h-4.87v.56Zm4.79-1.77c-.18-.3-.34-.58-.51-.86-.03-.04-.1-.08-.15-.09-.25,0-.49,0-.75,0v.95h1.41Zm-1.41.86h1.49v-.51h-1.49v.51Zm-2.6,1.23c0,.22.18.4.4.4.21,0,.4-.19.41-.4,0-.22-.18-.4-.41-.4-.22,0-.4.18-.4.4Zm2.73,0c0,.22.18.4.39.41.21,0,.4-.19.41-.41,0-.21-.18-.39-.39-.39-.22,0-.4.18-.4.39Z"/>
      <path class="cls-1" d="m7.13,5.53c.45,0,.9,0,1.35,0,.18,0,.23.05.23.23,0,.81,0,1.63,0,2.44,0,.2-.05.25-.25.25-.9,0-1.8,0-2.7,0-.17,0-.22-.05-.22-.22,0-.82,0-1.65,0-2.47,0-.17.05-.23.23-.23.45,0,.91,0,1.36,0Zm-1.24,2.57h2.48v-2.23h-2.48v2.23Z"/>
      <path class="cls-1" d="m2.15,6.66c.23,0,.45,0,.68,0,.15,0,.21.06.21.21,0,.46,0,.92,0,1.38,0,.15-.06.2-.21.2-.46,0-.92,0-1.38,0-.13,0-.19-.05-.19-.18,0-.47,0-.95,0-1.43,0-.13.06-.18.2-.19.23,0,.46,0,.69,0h0Zm.55.36h-1.09v1.11h1.09v-1.11Z"/>
      <path class="cls-1" d="m2.16,4.58c.23,0,.45,0,.68,0,.14,0,.2.05.2.19,0,.48,0,.95,0,1.43,0,.12-.06.18-.18.18-.47,0-.94,0-1.41,0-.13,0-.18-.06-.19-.19,0-.47,0-.94,0-1.42,0-.14.06-.19.2-.19.23,0,.47,0,.7,0h0Zm-.56.35v1.11h1.09v-1.11h-1.09Z"/>
      <path class="cls-1" d="m1.26,9.57c0-.22,0-.45,0-.67,0-.16.05-.21.22-.21.45,0,.9,0,1.35,0,.16,0,.21.05.21.22,0,.45,0,.9,0,1.35,0,.17-.06.23-.23.23-.44,0-.88,0-1.32,0-.18,0-.23-.05-.24-.23,0-.23,0-.45,0-.68,0,0,0,0,0,0Zm1.44.57v-1.11h-1.09v1.11h1.09Z"/>
      <path class="cls-1" d="m4.2,4.58c.22,0,.45,0,.67,0,.15,0,.2.05.2.2,0,.46,0,.92,0,1.38,0,.16-.06.21-.22.21-.45,0-.89,0-1.34,0-.17,0-.22-.06-.22-.22,0-.45,0-.91,0-1.36,0-.16.05-.21.21-.22.23,0,.46,0,.69,0h0Zm.54.36h-1.1v1.11h1.1v-1.11Z"/>
      <path class="cls-1" d="m5.07,7.56c0,.23,0,.45,0,.68,0,.17-.05.21-.21.22-.45,0-.9,0-1.35,0-.15,0-.21-.05-.21-.21,0-.46,0-.92,0-1.38,0-.15.06-.2.21-.2.45,0,.91,0,1.36,0,.16,0,.21.05.21.21,0,.23,0,.46,0,.69Zm-1.43-.54v1.11h1.09v-1.11h-1.09Z"/>
      <path class="cls-1" d="m5.07,9.59c0,.23,0,.45,0,.68,0,.16-.05.21-.21.21-.45,0-.9,0-1.35,0-.16,0-.22-.06-.22-.22,0-.45,0-.9,0-1.35,0-.17.05-.22.22-.22.45,0,.91,0,1.36,0,.15,0,.2.05.2.2,0,.23,0,.47,0,.7h0Zm-.34-.56h-1.09v1.1h1.09v-1.1Z"/>
      <path class="cls-1" d="m4.4,3.64c-.65,0-1.2-.54-1.19-1.19,0-.65.55-1.2,1.19-1.19.66,0,1.19.54,1.19,1.19,0,.65-.53,1.19-1.19,1.19Zm0-2.02c-.47,0-.85.37-.86.85,0,.47.38.85.85.86.46,0,.86-.39.86-.85,0-.46-.39-.85-.85-.86Z"/>
    </g>
  </g>
</svg>