<?xml version="1.0" encoding="UTF-8"?>
<svg id="Layer_2" data-name="Layer 2" xmlns="http://www.w3.org/2000/svg" viewBox="0 0 12.41 8.97">
  <defs>
    <style>
      .cls-1 {
        fill: #e85d27;
      }
    </style>
  </defs>
  <g id="Layer_1-2" data-name="Layer 1">
    <g>
      <path class="cls-1" d="m6.2,8.97c-2.01,0-4.01,0-6.02,0-.18,0-.18,0-.18-.18,0-.27-.04-.23.24-.23.16,0,.32,0,.48,0,.09,0,.12-.03.11-.11,0-.04,0-.07,0-.11,0-2.06,0-4.12,0-6.17,0-.13.03-.18.15-.23C2.67,1.31,4.37.67,6.06.03c.1-.04.19-.04.29,0,1.69.64,3.39,1.28,5.08,1.91.11.04.15.09.15.22,0,2.08,0,4.15,0,6.23,0,.13.03.19.17.18.18-.01.37,0,.55,0,.07,0,.1.02.11.1.02.31.02.31-.29.31-1.97,0-3.94,0-5.91,0Zm0-5.3c-1.23,0-2.45,0-3.68,0-.11,0-.15.02-.15.14,0,1.53,0,3.07,0,4.6,0,.12.03.15.15.15.6,0,1.2,0,1.8,0,.11,0,.14-.03.14-.14,0-.4,0-.81,0-1.21,0-.11.03-.14.14-.14.68,0,1.37,0,2.05,0,.1,0,.14.03.13.13,0,.36,0,.72,0,1.07,0,.29,0,.28.29.29.12,0,.14-.04.14-.15,0-.4,0-.81,0-1.21,0-.09.02-.13.12-.13.69,0,1.39,0,2.08,0,.1,0,.12.04.12.13,0,.34,0,.69,0,1.03,0,.33,0,.32.33.33.13,0,.17-.04.17-.17,0-1.52,0-3.03,0-4.55,0-.14-.03-.18-.17-.18-1.22,0-2.44,0-3.66,0Zm0-1.09c1.35,0,2.71,0,4.06,0,.23,0,.2-.02.2.21,0,1.85,0,3.69,0,5.54,0,.04,0,.08,0,.12,0,.08.03.1.11.1.15,0,.29,0,.44,0,.12,0,.15-.04.15-.16,0-1.99,0-3.99,0-5.98,0-.11-.03-.16-.14-.2-1.57-.59-3.14-1.18-4.71-1.77-.07-.03-.16-.03-.23,0-1.57.58-3.13,1.18-4.7,1.76-.12.05-.15.1-.15.23,0,1.97,0,3.95,0,5.92,0,.03,0,.06,0,.08,0,.08.03.11.1.1.14,0,.28,0,.41,0q.18,0,.18-.18c0-1.87,0-3.75,0-5.62,0-.14.03-.18.17-.18,1.36,0,2.73,0,4.09,0Zm-3.81.45c-.04.22-.04.22.16.22,2.43,0,4.87,0,7.3,0,.2,0,.22-.02.16-.22H2.39Zm3.03,4.97c0-.15,0-.28,0-.41,0-.08-.02-.12-.11-.12-.11,0-.22,0-.33,0-.09,0-.11.03-.11.11,0,.28,0,.56,0,.84,0,.08.03.11.11.11.43,0,.85,0,1.28,0,.07,0,.11-.02.11-.1,0-.29,0-.58,0-.87,0-.07-.03-.1-.1-.1-.11,0-.22,0-.33,0-.08,0-.11.03-.11.11,0,.14,0,.27,0,.41h-.41Zm2.77,0s0-.08,0-.12c0-.13.03-.32-.04-.38-.09-.07-.26-.02-.4-.03-.09,0-.11.03-.11.11,0,.28,0,.56,0,.84,0,.08.03.11.11.11.43,0,.85,0,1.28,0,.07,0,.11-.02.11-.1,0-.29,0-.58,0-.87,0-.07-.03-.1-.1-.1-.11,0-.22,0-.33,0-.08,0-.11.03-.11.11,0,.14,0,.27,0,.41h-.4Z"/>
      <path class="cls-1" d="m9.52,6.61h-2.3s-.01-.07-.01-.1c0-.55,0-1.1,0-1.65,0-.09.02-.13.12-.13.69,0,1.39,0,2.08,0,.08,0,.13.01.12.11,0,.56,0,1.13,0,1.69,0,.02,0,.04-.01.08Zm-1.34-.94s0-.08,0-.12c0-.13.03-.32-.04-.38-.09-.07-.26-.02-.4-.03,0,0,0,0-.01,0-.07,0-.1.03-.1.1,0,.29,0,.58,0,.87,0,.07.02.1.09.1.44,0,.87,0,1.31,0,.07,0,.1-.03.1-.1,0-.29,0-.58,0-.87,0-.07-.02-.1-.1-.1-.11,0-.21,0-.32,0-.09,0-.13.03-.13.12,0,.13,0,.26,0,.4h-.4Z"/>
    </g>
  </g>
</svg>