<?xml version="1.0" standalone="no"?>
<!DOCTYPE svg PUBLIC "-//W3C//DTD SVG 20010904//EN"
 "http://www.w3.org/TR/2001/REC-SVG-20010904/DTD/svg10.dtd">
<svg version="1.0" xmlns="http://www.w3.org/2000/svg"
 width="576.000000pt" height="576.000000pt" viewBox="0 0 576.000000 576.000000"
 preserveAspectRatio="xMidYMid meet">
<metadata>
Created by potrace 1.14, written by Peter Selinger 2001-2017
</metadata>
<g transform="translate(0.000000,576.000000) scale(0.100000,-0.100000)"
fill="#000000" stroke="none">
<path d="M2758 5435 c-2 -2 -30 -6 -63 -9 -54 -6 -93 -12 -150 -22 -11 -2 -40
-7 -65 -10 -25 -3 -48 -8 -53 -11 -4 -2 -18 -6 -31 -9 -47 -8 -203 -56 -281
-85 -130 -50 -395 -183 -415 -210 -3 -3 -16 -12 -30 -19 -24 -13 -170 -117
-180 -129 -3 -3 -38 -35 -78 -69 -68 -60 -140 -132 -211 -212 -17 -19 -41 -46
-54 -60 -12 -14 -34 -41 -47 -60 -13 -19 -29 -40 -36 -47 -6 -6 -26 -35 -45
-65 -18 -29 -37 -54 -41 -56 -5 -2 -8 -7 -8 -12 0 -4 -18 -38 -41 -75 -93
-154 -192 -414 -225 -589 -2 -16 -7 -32 -9 -36 -4 -6 -7 -22 -20 -100 -3 -16
-7 -44 -10 -61 -8 -43 -15 -121 -20 -213 -3 -44 -7 -81 -9 -84 -3 -2 -1 -15 4
-28 5 -13 6 -24 2 -24 -4 0 -6 -15 -5 -32 1 -18 4 -71 7 -118 9 -147 32 -307
58 -405 5 -22 12 -48 14 -57 2 -10 6 -27 9 -38 3 -11 7 -28 9 -38 28 -110 179
-472 193 -459 2 2 -6 33 -16 68 -31 101 -76 289 -86 359 -1 8 -5 33 -8 55 -34
217 -39 473 -13 665 2 14 6 48 10 75 6 41 29 150 51 239 2 11 15 49 27 85 12
36 22 68 23 71 1 11 50 127 93 220 27 58 143 255 153 258 5 2 9 10 9 17 0 7 3
15 8 17 4 2 18 19 32 39 56 81 156 195 234 268 27 25 58 55 70 66 12 11 55 45
96 75 41 30 77 58 78 62 2 5 10 8 17 8 7 0 15 3 17 8 10 22 215 144 363 215
232 112 467 159 639 126 51 -9 160 -58 151 -67 -3 -3 4 -11 15 -19 11 -8 20
-21 20 -29 0 -8 4 -14 9 -14 6 0 23 -28 40 -62 26 -55 30 -73 28 -138 -3 -93
-36 -165 -112 -243 -107 -110 -184 -157 -304 -185 -109 -26 -352 -113 -462
-166 -42 -20 -81 -36 -87 -36 -7 0 -12 -3 -12 -8 0 -4 -15 -13 -32 -21 -18 -8
-51 -26 -73 -40 -59 -38 -78 -49 -95 -57 -8 -4 -17 -10 -20 -14 -3 -3 -21 -17
-40 -30 -139 -94 -308 -268 -412 -426 -108 -163 -209 -420 -233 -594 -3 -25
-8 -58 -11 -74 -4 -16 -7 -90 -9 -164 -2 -121 1 -157 20 -272 4 -19 8 -46 10
-60 4 -25 5 -31 24 -110 29 -129 115 -352 178 -463 18 -33 33 -63 33 -68 0 -5
4 -9 8 -9 5 0 13 -10 19 -23 20 -44 135 -187 211 -264 87 -87 102 -100 187
-163 33 -25 61 -48 63 -52 2 -5 10 -8 17 -8 8 0 20 -6 27 -12 36 -33 239 -133
355 -174 242 -86 415 -114 683 -109 208 4 285 10 390 30 13 3 42 7 64 11 22 3
43 7 46 9 3 2 21 6 40 9 83 13 390 115 414 137 6 5 18 9 28 9 10 0 18 5 18 10
0 6 6 10 14 10 39 0 349 194 461 289 62 53 261 254 295 298 19 25 40 50 45 57
30 33 118 162 165 241 29 50 72 122 95 160 68 112 113 211 131 290 43 186 34
324 -31 472 -32 72 -98 160 -151 203 -44 35 -120 81 -139 84 -5 1 -14 4 -20 8
-13 8 -89 28 -128 34 -59 8 -132 6 -182 -7 -44 -11 -196 -83 -228 -109 -7 -5
-50 -39 -97 -76 -96 -75 -273 -253 -331 -330 -118 -160 -365 -363 -533 -439
-129 -58 -198 -76 -326 -81 -198 -8 -353 70 -419 211 -25 54 -26 55 -36 133
-13 98 -3 232 20 268 38 59 322 206 490 254 36 10 104 29 125 34 50 13 179 37
242 47 72 10 107 14 243 23 39 3 103 12 142 20 40 9 87 18 105 21 72 12 236
47 288 62 68 19 230 82 249 97 8 6 38 25 66 41 196 112 356 327 398 532 14 71
16 255 3 318 -50 245 -154 426 -356 625 -151 149 -360 293 -620 428 -64 34
-230 94 -295 108 -11 3 -40 9 -65 14 -25 5 -56 12 -70 15 -43 9 -73 14 -130
20 -30 3 -68 8 -85 11 -16 2 -52 7 -80 10 -56 6 -412 14 -417 9z m-568 -3210
c-6 -30 -8 -33 -9 -13 -1 25 8 62 14 56 2 -2 -1 -21 -5 -43z m-13 -97 c-3 -8
-6 -5 -6 6 -1 11 2 17 5 13 3 -3 4 -12 1 -19z m174 -565 c13 -16 12 -17 -3 -4
-10 7 -18 15 -18 17 0 8 8 3 21 -13z m30 -40 c13 -16 12 -17 -3 -4 -10 7 -18
15 -18 17 0 8 8 3 21 -13z m53 -52 c-2 -3 -12 3 -22 13 -16 17 -16 18 5 5 12
-7 20 -15 17 -18z m79 -60 c7 -8 -7 -2 -30 14 -24 15 -43 30 -43 32 0 7 61
-31 73 -46z m51 -40 c-2 -3 -12 3 -22 13 -16 17 -16 18 5 5 12 -7 20 -15 17
-18z m31 -11 c3 -5 1 -10 -4 -10 -6 0 -11 5 -11 10 0 6 2 10 4 10 3 0 8 -4 11
-10z m45 -20 c8 -5 11 -10 5 -10 -5 0 -17 5 -25 10 -8 5 -10 10 -5 10 6 0 17
-5 25 -10z m45 -28 c-3 -3 -11 0 -18 7 -9 10 -8 11 6 5 10 -3 15 -9 12 -12z
m758 -99 c-7 -2 -19 -2 -25 0 -7 3 -2 5 12 5 14 0 19 -2 13 -5z"/>
</g>
</svg>
