<?xml version="1.0" encoding="UTF-8"?>
<svg id="Layer_2" data-name="Layer 2" xmlns="http://www.w3.org/2000/svg" viewBox="0 0 12.49 9.31">
  <defs>
    <style>
      .cls-1 {
        fill: #e95c28;
      }
    </style>
  </defs>
  <g id="Layer_1-2" data-name="Layer 1">
    <g>
      <path class="cls-1" d="m8.68,8.22c0,.11,0,.2,0,.3,0,.07-.01.09-.09.09-.3,0-.59,0-.89,0-.03,0-.07,0-.11,0,0-.05,0-.09,0-.13,0-.52,0-1.05,0-1.57,0-.29-.1-.54-.3-.75-.02-.02-.04-.05-.06-.07.05-.02.1-.03.12-.06.02-.03,0-.09.01-.13.07,0,.13,0,.18,0,.07,0,.08-.02.08-.08,0-.17,0-.35,0-.52,0-.06.02-.08.08-.08.05,0,.1,0,.1.08,0,.18,0,.35,0,.53,0,.05.02.07.07.07.16,0,.16,0,.16-.15,0-.3,0-.6,0-.9,0-.06,0-.12.02-.18.05-.23.23-.37.47-.37.06,0,.06.04.06.08,0,.04.03.1-.06.1-.22,0-.32.13-.32.34,0,.34,0,.68,0,1.01,0,.02,0,.04,0,.06.07,0,.14,0,.21,0,.06,0,.08.01.08.07,0,.11,0,.11.11.1.06,0,.08.02.08.08,0,.57,0,1.13,0,1.7,0,.12.02.14.13.11.14-.03.29-.16.29-.36,0-.8,0-1.61,0-2.41,0-1.09,0-2.19,0-3.28,0-.41.3-.66.65-.65.22,0,.43,0,.65,0,.34,0,.57.2.63.53,0,.04.02.08.06.09.02,0,.04.04.04.06,0,.06.03.07.08.09.51.13.87.6.87,1.13,0,1.79,0,3.57,0,5.36,0,.03,0,.06,0,.09-.05,0-.09,0-.13,0-.71,0-1.42,0-2.13,0-.07,0-.09-.02-.09-.09,0-1.79,0-3.58,0-5.37,0-.52.37-.99.88-1.12.02,0,.04-.04.06-.06.02-.03.03-.07.06-.09.04-.03.05-.06.03-.1-.04-.15-.17-.25-.33-.25-.23,0-.46,0-.7,0-.22,0-.36.15-.36.37,0,.3,0,.6,0,.9,0,1.58,0,3.17,0,4.75,0,.1,0,.2-.04.29-.08.24-.3.39-.55.4-.03,0-.05,0-.09,0Zm-.59-.48h0c0,.19,0,.37,0,.56,0,.04,0,.09.06.09.06,0,.06-.04.06-.08,0-.37,0-.74,0-1.11,0-.04,0-.09-.06-.09-.06,0-.05.05-.05.09,0,.18,0,.37,0,.55Zm.39,0s0,0,0,0c0-.19,0-.37,0-.56,0-.04,0-.08-.06-.08-.06,0-.05.05-.05.08,0,.37,0,.74,0,1.11,0,.04,0,.08.06.08.06,0,.05-.04.05-.08,0-.19,0-.37,0-.56Z"/>
      <path class="cls-1" d="m.43,8.6s0-.05,0-.08c0-.56,0-1.11,0-1.67,0-.2.09-.37.22-.51.2-.21.45-.35.71-.46.5-.21,1.02-.33,1.55-.39.47-.05.94-.07,1.41-.04.76.04,1.51.17,2.2.5.28.13.54.29.7.57.05.09.09.2.09.3,0,.6,0,1.19,0,1.79H.43Zm1.97-1.3s0-.03.01-.04c.1-.15.04-.27-.14-.29-.1-.01-.21,0-.31,0-.05,0-.07.02-.07.07,0,.19,0,.38,0,.56,0,.02.03.05.04.05.12,0,.25,0,.37,0,.1,0,.17-.06.19-.14.02-.09-.02-.15-.1-.2Zm1.28,0c0-.18-.15-.34-.34-.35-.22-.01-.38.13-.39.35-.01.19.15.35.36.35.21,0,.36-.14.37-.35Zm.74.13s0-.02,0-.03c0-.05.01-.12-.07-.11-.08,0-.05.07-.05.11,0,.11-.02.13-.13.13-.15,0-.25-.09-.26-.23,0-.15.09-.25.25-.24.05,0,.1.03.15.04.03,0,.06,0,.09,0-.01-.03-.01-.07-.03-.09-.11-.08-.32-.08-.44.01-.13.1-.17.26-.12.41.05.14.2.23.36.22.2,0,.26-.06.25-.22Zm.82.19s0-.02,0-.02c-.09-.2-.18-.39-.27-.59-.01-.03-.05-.05-.08-.05-.03,0-.07.03-.09.06-.05.1-.1.21-.15.32-.04.1-.09.2-.13.3.06.02.13.03.14-.04.03-.11.1-.12.19-.11.04,0,.07,0,.11,0,.07,0,.1.01.13.08.03.09.06.1.15.06Zm.37-.68s-.08,0-.12.02c-.11.03-.17.1-.17.18,0,.09.04.15.16.18.06.02.13.03.18.06.03.01.05.05.05.07,0,.02-.04.06-.06.06-.09.03-.18,0-.26-.03-.03-.01-.06-.03-.07.02,0,.03,0,.07.03.08.12.05.24.08.36.03.09-.03.14-.09.13-.19,0-.08-.05-.13-.14-.16-.07-.02-.14-.03-.2-.06-.03-.01-.06-.05-.05-.08,0-.03.04-.07.07-.07.07,0,.15.01.22.02.02,0,.05-.02.07-.02-.01-.02-.02-.06-.04-.07-.05-.02-.11-.03-.16-.04Zm-2.95.34s0,0,0,0c0,.1,0,.2,0,.29,0,.05.03.06.07.06.02,0,.05-.03.05-.05,0-.19,0-.38,0-.57,0-.04-.02-.07-.06-.07-.05,0-.06.02-.06.07,0,.09,0,.18,0,.27Z"/>
      <path class="cls-1" d="m6.24,9.31c-2.05,0-4.1,0-6.15,0-.08,0-.11-.02-.1-.1,0-.09,0-.19,0-.28,0-.05.02-.07.07-.07,2.69,0,5.37,0,8.06,0,1.43,0,2.85,0,4.28,0,.06,0,.08.01.08.07,0,.1,0,.21,0,.31,0,.05-.03.06-.07.06-.22,0-.43,0-.65,0-1.84,0-3.68,0-5.53,0Z"/>
      <path class="cls-1" d="m6.63,4.06c0,.15,0,.3,0,.45,0,.02.02.06.04.06.07,0,.1.05.09.12,0,.07-.06.06-.11.07,0,0,0,0-.02.01,0,.15,0,.31,0,.47,0,.02.03.04.05.05.05.01.08.03.08.09,0,.05-.03.08-.08.09-.05,0-.06.03-.06.07,0,.06,0,.11,0,.18-.03,0-.04-.01-.06-.02-.22-.08-.43-.17-.65-.25-.04-.02-.08-.02-.08-.08,0-.05.03-.07.08-.08.05,0,.06-.04.06-.09,0-.12,0-.24,0-.36,0-.05-.01-.08-.06-.09-.04,0-.08-.03-.07-.08,0-.05.02-.09.08-.09.05,0,.06-.03.05-.07,0-.13,0-.26,0-.39,0-.05-.02-.06-.06-.06-.06,0-.08-.04-.08-.1,0-.06.03-.07.07-.08.05,0,.06-.03.06-.08,0-.13,0-.25,0-.38,0-.04,0-.07-.06-.07-.05,0-.08-.03-.08-.09,0-.06.03-.08.08-.09.05,0,.06-.03.06-.07,0-.13,0-.26,0-.39,0-.05-.01-.07-.06-.07-.05,0-.07-.02-.08-.08,0-.05.02-.08.07-.09.06,0,.07-.04.07-.09,0-.12,0-.24,0-.36,0-.05,0-.07-.06-.08-.05,0-.09-.04-.07-.1,0-.03.04-.07.08-.08.05-.01.06-.03.06-.08,0-.12,0-.24,0-.36,0-.05,0-.08-.06-.09-.05,0-.08-.03-.08-.09,0-.06.04-.07.08-.09.03-.01.06-.05.06-.08,0-.14,0-.29,0-.44-.03,0-.06,0-.07-.02-.03-.02-.05-.05-.06-.09-.01-.04.02-.08.06-.08.06,0,.08-.04.07-.1,0-.08,0-.16,0-.25.12,0,.24,0,.36,0,.08,0,.15,0,.23,0,.04,0,.06.01.06.06,0,.07,0,.14,0,.22,0,.04,0,.07.06.07.05,0,.08.04.08.09,0,.06-.04.07-.08.08-.02,0-.05.04-.05.06,0,.14,0,.27,0,.41,0,.02.03.05.04.06.06.01.09.04.09.1,0,.06-.05.07-.1.07,0,0-.01,0-.03,0,0,.11,0,.22,0,.33,0,.04,0,.08,0,.12,0,.04,0,.07.05.08.05,0,.09.03.09.09,0,.06-.04.09-.1.09,0,0-.01,0-.03,0,0,.11,0,.22,0,.33,0,.04,0,.07,0,.11,0,.04,0,.07.05.08.06,0,.08.04.08.1,0,.06-.05.07-.09.07-.01,0-.03,0-.05.02,0,.15,0,.3,0,.45,0,.02.03.05.05.06.04.02.09.03.09.09,0,.06-.04.08-.09.09-.02,0-.05.04-.05.06,0,.13,0,.27,0,.4,0,.02.02.05.04.06.05.01.09.03.09.09,0,.06-.04.08-.09.09-.01,0-.02,0-.04.01Z"/>
      <path class="cls-1" d="m2.04,7.55q-.03-.21.16-.2s.07,0,.11.01c.05.01.09.04.07.09,0,.03-.05.07-.08.08-.08.02-.17.01-.26.02Z"/>
      <path class="cls-1" d="m2.14,7.26q-.12,0-.12-.09c0-.1,0-.1.1-.1.04,0,.09,0,.13,0,.03.01.08.05.08.08,0,.03-.04.07-.07.09-.03.02-.08.01-.12.02Z"/>
      <path class="cls-1" d="m3.55,7.32c0,.14-.11.23-.25.22-.14,0-.23-.11-.23-.25,0-.14.11-.23.27-.22.12,0,.22.11.21.25Z"/>
      <path class="cls-1" d="m4.76,7.39c.05-.1.09-.19.13-.29.04.11.08.19.12.29h-.25Z"/>
    </g>
  </g>
</svg>