<?xml version="1.0" encoding="UTF-8"?>
<svg id="Layer_2" data-name="Layer 2" xmlns="http://www.w3.org/2000/svg" viewBox="0 0 11.37 12.65">
  <defs>
    <style>
      .cls-1 {
        fill: #e95c28;
      }
    </style>
  </defs>
  <g id="Layer_1-2" data-name="Layer 1">
    <g>
      <path class="cls-1" d="m.43,11.16v-.13c0-3.23,0-6.47,0-9.7C.43.56.99,0,1.74,0,3.3,0,4.86,0,6.41,0c.63,0,1.16.42,1.27,1.03.02.13.03.26.03.39,0,1.48,0,2.96,0,4.44v.15c.07,0,.13,0,.19,0,.33-.02.65.02.94.2.38.23.59.55.59,1.01,0,1.02,0,2.04,0,3.06,0,.38.27.66.65.66.13,0,.26,0,.38-.02.27-.06.46-.3.47-.57,0-.16,0-.32,0-.48,0-1.3,0-2.6,0-3.9,0-.05,0-.11,0-.17h-.25c-.3,0-.61,0-.91,0-.1,0-.12-.04-.12-.13,0-.8,0-1.59,0-2.39,0-.12-.04-.18-.14-.26-.23-.18-.47-.26-.76-.23-.1.01-.21,0-.31,0-.05,0-.08-.02-.08-.07,0-.11,0-.23,0-.36.12,0,.24.01.35,0,.38-.05.7.07,1.01.3.51.37,1.04.7,1.56,1.04.07.04.08.1.08.17,0,2.03,0,4.06,0,6.09,0,.17,0,.35-.02.52-.07.45-.45.81-.9.86-.26.03-.51.03-.75-.06-.42-.16-.69-.55-.69-1.02,0-1.03,0-2.06,0-3.09,0-.24-.1-.42-.29-.55-.19-.14-.39-.21-.63-.21-.12,0-.24,0-.37,0v4.73c.07,0,.13,0,.2,0,.14.01.22.08.22.23,0,.34,0,.69,0,1.03,0,.13-.08.21-.21.23-.04,0-.09,0-.13,0-2.49,0-4.98,0-7.46,0-.27,0-.34-.07-.34-.34,0-.27,0-.54,0-.82,0-.27.07-.34.34-.34.02,0,.05,0,.09,0Zm6.86,0s0-.05,0-.06c0-3.27,0-6.53,0-9.8,0-.25-.1-.46-.28-.64-.2-.2-.45-.23-.72-.23-.8,0-1.6,0-2.4,0-.73,0-1.46,0-2.19,0-.48,0-.84.39-.84.86,0,3.24,0,6.48,0,9.72,0,.05,0,.09,0,.14h6.43ZM.43,12.22h7.28v-.64H.43v.64Zm9.64-6.86h.86c0-.45,0-.9,0-1.34,0-.03-.04-.07-.07-.08-.23-.16-.46-.31-.69-.46-.03-.02-.06-.04-.1-.06v1.95Z"/>
      <path class="cls-1" d="m4.29,8.93c0,.34-.02.68,0,1.03,0,.15.1.29.15.43.01.03.03.06.05.11h-.85c.32-.5.19-1.05.21-1.56-.31-.07-.61-.11-.89-.22-.79-.29-1.28-.85-1.44-1.69-.08-.45.01-.88.15-1.3.28-.83.66-1.62,1.09-2.38.4-.73.84-1.45,1.26-2.17.01-.02.03-.03.06-.06.29.49.58.96.85,1.44.47.83.93,1.68,1.29,2.57.16.4.31.81.39,1.23.07.36,0,.7-.1,1.04-.25.73-.78,1.15-1.49,1.36-.23.07-.47.1-.72.16Zm-.22-7.04s-.02.03-.03.04c-.33.59-.66,1.19-.98,1.78-.37.69-.7,1.39-.97,2.12-.16.43-.24.88-.09,1.33.18.54.56.9,1.07,1.13.25.11.5.17.78.18,0-.16,0-.31,0-.46,0-.04-.02-.09-.05-.12-.15-.15-.3-.29-.45-.44-.29-.29-.58-.59-.86-.88-.03-.03-.06-.07-.09-.11-.05-.08-.04-.17.03-.23.07-.07.15-.09.23-.04.05.03.09.06.12.1.24.24.48.48.72.72.11.11.23.21.34.32,0-.03,0-.07,0-.1,0-.38,0-.76,0-1.14,0-.15.04-.32-.01-.46-.05-.13-.2-.22-.31-.33-.19-.19-.38-.38-.57-.57-.08-.08-.07-.2,0-.28.08-.08.2-.08.29,0,.06.06.11.12.16.17.14.14.28.27.44.43,0-.06,0-.1,0-.13,0-.24,0-.49,0-.73,0-.05,0-.1.02-.15.03-.08.09-.14.19-.13.1,0,.17.05.2.15.01.05.02.11.02.17,0,.6,0,1.19,0,1.79,0,.04,0,.07,0,.11.01,0,.02.01.03.02.05-.06.1-.12.16-.17.18-.18.36-.36.54-.54.08-.08.19-.07.27,0,.08.08.08.18.01.27-.02.03-.04.05-.06.07-.29.29-.59.59-.88.88-.05.05-.07.09-.07.16,0,.51,0,1.03,0,1.54,0,.03,0,.07,0,.11.34-.03.64-.11.93-.25.73-.36,1.12-1.11.97-1.9-.06-.32-.18-.64-.31-.94-.49-1.19-1.12-2.31-1.76-3.42-.01-.02-.03-.04-.06-.08Z"/>
    </g>
  </g>
</svg>