<?xml version="1.0" encoding="UTF-8"?>
<svg id="Layer_2" data-name="Layer 2" xmlns="http://www.w3.org/2000/svg" viewBox="0 0 11.25 11.22">
  <defs>
    <style>
      .cls-1 {
        fill: #e95c28;
      }
    </style>
  </defs>
  <g id="Layer_1-2" data-name="Layer 1">
    <g>
      <path class="cls-1" d="m.6,8.22c-.01-.27.07-.49.32-.6.21-.1.42-.07.61.08.1.08.18.18.27.27.04.04.08.07.12.12.03-.05.05-.1.07-.14.13-.22.43-.32.64-.17.19.13.35.31.51.48.03.03.02.14-.01.17-.03.03-.13.03-.17,0-.13-.11-.24-.23-.36-.35-.1-.1-.21-.15-.33-.04-.12.11-.09.23,0,.33.15.17.3.34.45.51.06.07.13.14.04.23-.1.1-.17.02-.24-.05-.35-.35-.7-.71-1.06-1.06-.04-.04-.08-.09-.13-.12-.13-.09-.26-.08-.38.03-.11.11-.13.25-.03.37.07.09.16.17.25.22.49.29.99.57,1.48.86.02.01.04.03.06.04.08.05.2.1.11.21-.03.04-.17.03-.23,0-.36-.19-.71-.4-1.07-.6-.27-.15-.53-.31-.8-.46-.17-.1-.34-.07-.43.07-.1.15-.07.3.1.42.9.62,1.8,1.24,2.71,1.85.06.04.15.06.22.06,1.11-.07,2.22-.14,3.33-.22.27-.02.52-.12.81-.18-.06-.25-.11-.46-.17-.68-.03-.1-.07-.21-.08-.31-.04-.52-.33-.88-.77-1.13-.2-.11-.39-.17-.62-.1-.72.22-1.44.44-2.16.66-.14.04-.27.11-.26.28,0,.1.07.21.15.28.05.04.16.04.23.02.61-.18,1.21-.36,1.81-.54.04-.01.08-.04.12-.03.07.02.13.05.19.08-.04.06-.07.14-.12.16-.29.1-.58.18-.88.27-.35.11-.7.22-1.05.32-.32.09-.61-.06-.7-.36-.09-.3.06-.6.38-.7.73-.23,1.46-.46,2.19-.68.33-.1.64-.04.92.18.08.06.16.12.27.2-.01-.09-.02-.14-.03-.19-.02-.18.06-.33.24-.37.48-.13.95-.25,1.43-.36.23-.06.38.04.44.26.15.56.28,1.12.43,1.68.02.1.02.17-.09.2-.11.03-.14-.05-.17-.14-.13-.52-.27-1.05-.4-1.57-.04-.15-.09-.2-.25-.15-.4.11-.81.21-1.22.31-.14.03-.17.08-.14.22.21.81.42,1.63.62,2.45.03.11.07.16.2.12.42-.12.84-.22,1.26-.32.14-.03.19-.09.13-.22-.02-.04-.03-.1-.02-.14.01-.04.05-.09.09-.1.04-.01.1,0,.13.04.19.21.09.58-.19.66-.42.11-.85.22-1.27.33-.37.09-.47.04-.6-.33-.16.04-.31.1-.48.12-.54.07-1.09.13-1.63.17-.7.05-1.41.09-2.11.12-.11,0-.24-.03-.33-.09-.91-.61-1.81-1.23-2.71-1.85-.2-.13-.3-.31-.27-.55.02-.22.14-.37.34-.45.08-.03.16-.04.26-.06Z"/>
      <path class="cls-1" d="m9.33,7.15c-.28,0-.38-.1-.46-.26-.12-.23-.22-.28-.47-.21-.05.02-.1.09-.13.15-.16.43-.28.49-.72.35-.13-.04-.25-.08-.38-.12-.23-.08-.32-.27-.26-.5,0-.03.02-.07.03-.1.06-.13.05-.23-.08-.33-.12-.09-.21-.16-.38-.07-.33.19-.5.12-.68-.22-.06-.11-.11-.23-.17-.34-.15-.31-.1-.49.21-.64.13-.06.21-.12.2-.29-.01-.19-.07-.28-.26-.33-.32-.09-.4-.28-.3-.59.04-.12.08-.24.12-.36.12-.38.28-.46.65-.33.13.05.21.03.31-.08.14-.14.14-.26.05-.42-.15-.28-.08-.47.21-.62.14-.07.28-.14.42-.21.26-.12.46-.07.58.2.08.18.18.27.4.23.13-.03.19-.07.22-.19.04-.16.1-.33.29-.38.06-.02.13-.03.19-.01.22.06.44.13.65.21.18.07.26.26.22.45-.01.04-.02.08-.04.12-.12.19.02.28.14.4.12.12.22.05.32,0,.32-.16.5-.1.66.22.06.11.11.23.17.34.16.34.11.51-.22.67-.14.07-.19.14-.18.3,0,.18.09.26.26.31.32.09.4.27.3.59-.04.14-.09.27-.13.41-.1.3-.28.4-.58.29-.17-.06-.28-.04-.4.11-.09.12-.1.21-.03.34.18.33.11.51-.23.68-.19.1-.39.19-.51.25Zm-2.3-4.48c-.02.31-.41.65-.69.61-.13-.02-.29-.09-.37-.04-.09.06-.1.23-.15.35-.01.03-.02.06-.03.09-.08.24-.08.24.16.31.15.05.31.1.34.26.08.4.16.68-.31.87-.12.05-.17.12-.09.25.05.08.09.17.13.26.14.28.14.26.42.15.13-.05.33-.07.42,0,.31.24.54.3.33.82-.04.1-.01.16.09.2.16.05.32.11.48.15.05.01.13-.04.18-.09.03-.03.04-.1.06-.15.11-.32.7-.47.95-.23.04.04.07.09.09.13.03.05.06.11.08.16.05.1.11.11.2.06.13-.07.25-.14.38-.2.15-.06.18-.14.09-.28-.02-.03-.03-.06-.05-.1-.15-.32.17-.83.53-.83.02,0,.05,0,.07,0,.13.02.31.1.38.05.1-.07.11-.25.16-.39,0,0,0-.01,0-.02q.09-.27-.18-.36c-.32-.11-.49-.67-.27-.93.08-.09.2-.14.31-.21.09-.05.12-.1.07-.2-.08-.14-.15-.29-.22-.43-.05-.1-.12-.13-.22-.07-.04.03-.08.05-.13.07-.31.15-.83-.17-.84-.51,0-.03,0-.06.01-.09.02-.13.1-.29.05-.37-.06-.09-.23-.1-.35-.15-.02,0-.05-.01-.07-.02q-.26-.08-.34.17c-.11.33-.62.51-.9.31-.1-.07-.17-.21-.24-.33-.05-.09-.1-.12-.2-.07-.14.07-.28.15-.42.21-.13.06-.13.13-.07.24.06.1.09.22.14.33Z"/>
      <path class="cls-1" d="m4.51,4.07c-.07,0-.12,0-.18,0-.29,0-.29,0-.32.28-.02.22-.21.26-.36.33-.13.06-.26.04-.37-.05-.05-.04-.1-.09-.16-.15-.11.12-.22.24-.33.35.03.04.05.07.08.09.15.13.2.27.13.46-.08.21-.17.38-.43.36-.12,0-.17.04-.15.16,0,.04,0,.08,0,.13-.02.18.04.25.23.23.16-.02.26.08.33.23.08.17.15.33,0,.5-.04.05-.09.1-.14.15.11.12.22.23.34.34.04-.03.06-.04.08-.06.23-.29.43-.21.71-.04.08.05.11.2.12.31.02.11.04.16.16.15.11-.01.22-.01.36-.02-.03-.26,0-.45.27-.57.27-.11.44-.03.6.18.12-.12.23-.23.35-.35-.07-.07-.13-.13-.18-.2-.06-.08-.12-.19,0-.27.11-.08.17,0,.23.09.02.04.07.07.1.1.18.18.18.35,0,.54-.07.08-.15.16-.23.23-.17.17-.32.17-.5.01-.07-.06-.12-.13-.25-.07-.13.06-.13.13-.13.24,0,.23-.1.34-.34.35-.13,0-.26,0-.4,0-.21,0-.32-.12-.32-.33,0-.1,0-.19-.13-.24-.13-.05-.18.02-.26.09-.15.15-.33.15-.48.02-.09-.08-.17-.17-.26-.25-.18-.18-.18-.33-.01-.52.07-.08.11-.13.06-.25-.05-.12-.13-.12-.23-.12-.25,0-.35-.1-.36-.34,0-.12,0-.24,0-.36,0-.24.1-.34.34-.35.1,0,.18,0,.23-.12.05-.13,0-.18-.08-.26-.16-.16-.16-.34,0-.51.08-.08.16-.17.24-.25.17-.17.32-.17.5-.01.07.07.13.12.25.07.13-.05.12-.14.13-.24,0-.24.11-.34.34-.35.13,0,.25-.01.38,0,.22,0,.34.11.34.33,0,.12,0,.21.15.25.04.01.07.12.06.18,0,.03-.1.08-.15.07-.2-.02-.31-.15-.33-.35,0-.06,0-.12-.02-.2Z"/>
      <path class="cls-1" d="m6.67,1.21c-.05-.11-.1-.2-.14-.29-.5.11-.71-.08-.6-.55-.1-.04-.2-.07-.31-.12-.07.17-.14.32-.37.32-.22,0-.34-.07-.41-.29-.12.05-.22.1-.32.14.2.39-.11.76-.54.6-.04.1-.08.2-.12.32.19.06.32.14.33.37.01.22-.09.34-.3.41.05.11.1.21.14.31.41-.21.78.17.6.54.1.04.2.07.31.12.02-.05.05-.08.07-.13.05-.16.18-.2.33-.18.05,0,.11.06.12.1,0,.04-.05.09-.09.13-.05.05-.11.1-.16.15-.02.03-.03.07-.06.09-.22.19-.42,0-.62-.06-.15-.05-.17-.18-.14-.33.01-.06,0-.15-.03-.2-.03-.03-.12-.02-.18,0-.18.05-.29.02-.37-.15-.03-.06-.06-.13-.09-.2-.11-.24-.08-.32.13-.46.04-.03.08-.09.08-.13,0-.04-.05-.1-.09-.13-.23-.11-.27-.19-.18-.43.03-.07.05-.15.08-.22.07-.17.18-.22.36-.18.06.01.16.01.18-.02.03-.05.03-.14.01-.2-.05-.17-.02-.28.14-.36.08-.05.17-.08.26-.12.18-.08.29-.03.39.13.03.05.1.11.15.11.05,0,.1-.08.14-.13.02-.03.03-.07.05-.09.22-.21.42-.02.62.04.15.05.17.18.15.33-.01.07-.01.16.03.2.04.03.13.02.2,0,.16-.04.29,0,.36.15.04.08.08.16.12.24.08.2.05.29-.14.41-.05.03-.08.1-.13.14-.04.03-.1.08-.13.07-.04-.02-.11-.09-.1-.12.02-.09.07-.17.12-.24.03-.04.1-.06.16-.09Z"/>
      <path class="cls-1" d="m5.12,5.96c0,.45-.36.81-.81.81-.46,0-.82-.37-.81-.83,0-.44.36-.79.81-.79.46,0,.81.36.81.81Zm-.25,0c0-.3-.26-.57-.56-.57-.3,0-.55.25-.56.55,0,.3.26.57.56.57.29,0,.55-.26.56-.55Z"/>
      <path class="cls-1" d="m5.92,1.68c0,.36-.29.65-.66.64-.35,0-.63-.29-.63-.65,0-.36.29-.65.65-.65.37,0,.64.29.64.66Zm-.23,0c0-.23-.2-.43-.42-.43-.22,0-.41.19-.41.42,0,.23.19.43.42.43.22,0,.41-.2.41-.42Z"/>
      <path class="cls-1" d="m9.43,4.37c0,.6-.48,1.07-1.08,1.06-.6,0-1.06-.48-1.06-1.09,0-.6.48-1.07,1.07-1.06.62,0,1.08.48,1.08,1.09Zm-1.06-.82c-.45,0-.82.36-.82.8,0,.44.38.82.81.82.44,0,.81-.37.81-.8,0-.45-.36-.82-.8-.82Z"/>
    </g>
  </g>
</svg>