<?xml version="1.0" encoding="UTF-8"?>
<svg id="Layer_2" data-name="Layer 2" xmlns="http://www.w3.org/2000/svg" viewBox="0 0 15.25 19.49">
  <defs>
    <style>
      .cls-1 {
        fill: #e95c28;
      }
    </style>
  </defs>
  <g id="Layer_1-2" data-name="Layer 1">
    <g>
      <circle class="cls-1" cx=".21" cy=".21" r=".21"/>
      <circle class="cls-1" cx="2.33" cy=".21" r=".21"/>
      <circle class="cls-1" cx="4.45" cy=".21" r=".21"/>
      <circle class="cls-1" cx="6.56" cy=".21" r=".21"/>
      <circle class="cls-1" cx="8.68" cy=".21" r=".21"/>
      <circle class="cls-1" cx="10.8" cy=".21" r=".21"/>
      <circle class="cls-1" cx="12.92" cy=".21" r=".21"/>
      <circle class="cls-1" cx="15.04" cy=".21" r=".21"/>
      <circle class="cls-1" cx=".21" cy="2.33" r=".21"/>
      <circle class="cls-1" cx="2.33" cy="2.33" r=".21"/>
      <circle class="cls-1" cx="4.45" cy="2.33" r=".21"/>
      <circle class="cls-1" cx="6.56" cy="2.33" r=".21"/>
      <circle class="cls-1" cx="8.68" cy="2.33" r=".21"/>
      <circle class="cls-1" cx="10.8" cy="2.33" r=".21"/>
      <circle class="cls-1" cx="12.92" cy="2.33" r=".21"/>
      <circle class="cls-1" cx="15.04" cy="2.33" r=".21"/>
      <circle class="cls-1" cx=".21" cy="4.45" r=".21"/>
      <circle class="cls-1" cx="2.33" cy="4.45" r=".21"/>
      <circle class="cls-1" cx="4.45" cy="4.45" r=".21"/>
      <circle class="cls-1" cx="6.56" cy="4.45" r=".21"/>
      <circle class="cls-1" cx="8.68" cy="4.45" r=".21"/>
      <circle class="cls-1" cx="10.8" cy="4.45" r=".21"/>
      <circle class="cls-1" cx="12.92" cy="4.45" r=".21"/>
      <circle class="cls-1" cx="15.04" cy="4.45" r=".21"/>
      <circle class="cls-1" cx=".21" cy="6.56" r=".21"/>
      <circle class="cls-1" cx="2.33" cy="6.56" r=".21"/>
      <circle class="cls-1" cx="4.45" cy="6.56" r=".21"/>
      <circle class="cls-1" cx="6.56" cy="6.56" r=".21"/>
      <circle class="cls-1" cx="8.68" cy="6.56" r=".21"/>
      <circle class="cls-1" cx="10.8" cy="6.56" r=".21"/>
      <circle class="cls-1" cx="12.92" cy="6.56" r=".21"/>
      <circle class="cls-1" cx="15.04" cy="6.56" r=".21"/>
      <circle class="cls-1" cx=".21" cy="8.68" r=".21"/>
      <circle class="cls-1" cx="2.33" cy="8.68" r=".21"/>
      <circle class="cls-1" cx="4.45" cy="8.68" r=".21"/>
      <circle class="cls-1" cx="6.56" cy="8.68" r=".21"/>
      <circle class="cls-1" cx="8.68" cy="8.68" r=".21"/>
      <circle class="cls-1" cx="10.8" cy="8.68" r=".21"/>
      <circle class="cls-1" cx="12.92" cy="8.68" r=".21"/>
      <circle class="cls-1" cx="15.04" cy="8.68" r=".21"/>
      <circle class="cls-1" cx=".21" cy="10.8" r=".21"/>
      <circle class="cls-1" cx="2.33" cy="10.8" r=".21"/>
      <circle class="cls-1" cx="4.45" cy="10.8" r=".21"/>
      <circle class="cls-1" cx="6.56" cy="10.8" r=".21"/>
      <circle class="cls-1" cx="8.68" cy="10.8" r=".21"/>
      <circle class="cls-1" cx="10.8" cy="10.8" r=".21"/>
      <circle class="cls-1" cx="12.92" cy="10.8" r=".21"/>
      <circle class="cls-1" cx="15.04" cy="10.8" r=".21"/>
      <circle class="cls-1" cx=".21" cy="12.92" r=".21"/>
      <circle class="cls-1" cx="2.33" cy="12.92" r=".21"/>
      <circle class="cls-1" cx="4.45" cy="12.92" r=".21"/>
      <circle class="cls-1" cx="6.56" cy="12.92" r=".21"/>
      <circle class="cls-1" cx="8.68" cy="12.92" r=".21"/>
      <circle class="cls-1" cx="10.8" cy="12.92" r=".21"/>
      <circle class="cls-1" cx="12.92" cy="12.92" r=".21"/>
      <circle class="cls-1" cx="15.04" cy="12.92" r=".21"/>
      <circle class="cls-1" cx=".21" cy="15.04" r=".21"/>
      <circle class="cls-1" cx="2.33" cy="15.04" r=".21"/>
      <circle class="cls-1" cx="4.45" cy="15.04" r=".21"/>
      <circle class="cls-1" cx="6.56" cy="15.04" r=".21"/>
      <circle class="cls-1" cx="8.68" cy="15.04" r=".21"/>
      <circle class="cls-1" cx="10.8" cy="15.04" r=".21"/>
      <circle class="cls-1" cx="12.92" cy="15.04" r=".21"/>
      <circle class="cls-1" cx="15.04" cy="15.04" r=".21"/>
      <circle class="cls-1" cx=".21" cy="17.16" r=".21"/>
      <circle class="cls-1" cx="2.33" cy="17.16" r=".21"/>
      <circle class="cls-1" cx="4.45" cy="17.16" r=".21"/>
      <circle class="cls-1" cx="6.56" cy="17.16" r=".21"/>
      <circle class="cls-1" cx="8.68" cy="17.16" r=".21"/>
      <circle class="cls-1" cx="10.8" cy="17.16" r=".21"/>
      <circle class="cls-1" cx="12.92" cy="17.16" r=".21"/>
      <circle class="cls-1" cx="15.04" cy="17.16" r=".21"/>
      <circle class="cls-1" cx=".21" cy="19.28" r=".21"/>
      <circle class="cls-1" cx="2.33" cy="19.28" r=".21"/>
      <circle class="cls-1" cx="4.45" cy="19.28" r=".21"/>
      <circle class="cls-1" cx="6.56" cy="19.28" r=".21"/>
      <circle class="cls-1" cx="8.68" cy="19.28" r=".21"/>
      <circle class="cls-1" cx="10.8" cy="19.28" r=".21"/>
      <circle class="cls-1" cx="12.92" cy="19.28" r=".21"/>
      <circle class="cls-1" cx="15.04" cy="19.28" r=".21"/>
    </g>
  </g>
</svg>