<?xml version="1.0" encoding="UTF-8"?>
<svg id="Layer_2" data-name="Layer 2" xmlns="http://www.w3.org/2000/svg" viewBox="0 0 20.68 22.11">
  <defs>
    <style>
      .cls-1 {
        fill: #e95c28;
      }
    </style>
  </defs>
  <g id="Layer_1-2" data-name="Layer 1">
    <g>
      <path class="cls-1" d="m13.35,17.02c.35.07.39.12.39.47,0,.26,0,.51,0,.77,0,.41-.02.43-.43.47v.54c.42.06.43.06.43.49,0,.27,0,.54,0,.81,0,.25-.09.36-.32.33-.33-.05-.49.09-.57.4-.05.2-.15.38-.23.57-.06.15-.16.23-.33.23-1.29,0-2.58,0-3.88,0-.17,0-.27-.07-.34-.23-.11-.27-.23-.54-.33-.82-.04-.12-.1-.15-.23-.15-.57,0-.57,0-.57-.58,0-.19,0-.38,0-.57,0-.44,0-.45.43-.49v-.54c-.42-.05-.43-.06-.43-.5,0-.26,0-.51,0-.77,0-.33.05-.39.39-.45-.14-.73-.49-1.34-1.08-1.8-.67-.51-1.26-1.1-1.71-1.82-1.59-2.55-1.21-5.79.93-7.9,2.83-2.78,7.37-2.65,10.03.29,2.32,2.57,2.11,6.57-.48,8.92-.36.33-.75.64-1.08,1-.33.36-.51.81-.6,1.3Zm-.56.02c.05-.18.08-.35.13-.51.25-.83.8-1.42,1.47-1.95,2.36-1.88,2.89-5.24,1.24-7.74-2.16-3.26-6.9-3.77-9.7-1.03-1.46,1.43-2.08,3.17-1.75,5.2.25,1.54,1.05,2.77,2.29,3.7.62.47,1.06,1.07,1.29,1.82.05.17.09.34.13.5h4.9Zm-.03,1.68c-.87,0-1.71,0-2.55,0-.08,0-.18.03-.24,0-.09-.06-.2-.15-.23-.25-.03-.15.08-.24.23-.27.06,0,.12,0,.18,0,.94,0,1.88,0,2.82,0,.08,0,.15,0,.23,0v-.6h-5.7v.6c.21,0,.41,0,.61,0,.17,0,.29.08.29.26,0,.18-.11.26-.28.27-.06,0-.13,0-.18.01v.55h4.82v-.56Zm.44,1.12h-5.71v.55h5.71v-.55Zm-4.94,1.09c.08.2.15.39.24.58.02.04.09.07.14.07,1.14,0,2.27,0,3.41,0,.05,0,.13-.03.14-.06.09-.19.16-.38.24-.59h-4.16Z"/>
      <path class="cls-1" d="m15.8,5.18c-.23,0-.36-.2-.27-.37.03-.05.07-.1.11-.14.53-.53,1.05-1.06,1.59-1.58.07-.07.21-.13.3-.12.2.02.27.28.11.44-.55.57-1.12,1.12-1.68,1.68-.05.05-.12.07-.16.09Z"/>
      <path class="cls-1" d="m5.18,4.88c0,.22-.19.35-.35.28-.06-.02-.11-.07-.16-.12-.53-.53-1.06-1.06-1.59-1.59-.17-.17-.18-.32-.05-.44.13-.11.26-.09.37.02.56.56,1.12,1.12,1.68,1.68.05.05.07.12.09.16Z"/>
      <path class="cls-1" d="m1.46,10.61c-.37,0-.75,0-1.12,0-.19,0-.32-.06-.34-.26-.01-.16.12-.27.33-.27.76,0,1.51,0,2.27,0,.18,0,.32.06.34.26.01.17-.12.27-.35.27-.37,0-.75,0-1.12,0Z"/>
      <path class="cls-1" d="m19.2,10.61c-.37,0-.75,0-1.12,0-.22,0-.34-.1-.33-.27.01-.21.15-.26.34-.26.76,0,1.51,0,2.27,0,.21,0,.34.11.33.27-.02.2-.15.26-.34.26-.38,0-.76,0-1.14,0Z"/>
      <path class="cls-1" d="m10.61,1.49c0,.37,0,.73,0,1.1,0,.19-.06.32-.26.34-.17.02-.27-.12-.27-.35,0-.75,0-1.5,0-2.25,0-.18.05-.32.26-.34.17-.02.27.11.27.35,0,.38,0,.76,0,1.14Z"/>
      <path class="cls-1" d="m3.26,17.72c-.25,0-.37-.21-.27-.38.03-.05.07-.09.11-.13.52-.52,1.05-1.05,1.57-1.57.16-.16.32-.18.44-.06.12.12.1.27-.07.44-.52.52-1.05,1.05-1.57,1.57-.07.07-.16.11-.21.14Z"/>
      <path class="cls-1" d="m17.47,17.76c-.1-.06-.18-.1-.24-.16-.54-.54-1.08-1.08-1.62-1.62-.12-.12-.17-.26-.04-.41.11-.12.27-.11.42.04.54.54,1.08,1.07,1.61,1.62.07.07.1.22.09.33-.01.07-.13.12-.22.2Z"/>
      <path class="cls-1" d="m14.76,10.12c.36.41.54.87.44,1.41-.09.48-.33.85-.75,1.08-.18.1-.18.21-.19.37,0,.67-.43,1.17-1.08,1.27-.06.01-.14.03-.2.01-.35-.11-.67-.01-1.02.08-.78.22-1.54-.39-1.54-1.21,0-2.27,0-4.53,0-6.8,0-.58.44-1.05,1-1.09.57-.05,1.06.33,1.17.91.01.06.02.11.03.17.21.02.41.02.61.06.79.17,1.3.92,1.22,1.72,0,.07.02.16.06.2.62.53.71,1.15.23,1.82Zm-2.08,2.31c-.23-.06-.44-.1-.62-.17-.21-.09-.27-.25-.18-.4.11-.18.25-.16.42-.07.26.13.38.1.54-.14.03-.04.06-.08.1-.12.11-.13.25-.17.39-.05.14.11.12.25.02.39-.21.29-.2.47.04.76.01-.28.22-.29.42-.32.5-.07.87-.47.91-.96.04-.5-.28-.96-.77-1.1-.09-.03-.19-.03-.28-.04-.17-.03-.28-.11-.26-.29.02-.16.13-.25.29-.23.17.02.34.04.49.09.13.04.19,0,.25-.09.2-.3.12-.68-.13-.87-.16,0-.29.03-.38,0-.19-.09-.16-.25-.09-.41.21-.48.11-.96-.26-1.28-.36-.3-.83-.34-1.27-.07-.15.09-.29.12-.41-.03-.11-.14-.04-.26.07-.39.07-.08.12-.2.12-.31,0-.29-.24-.53-.53-.54-.29-.02-.54.19-.59.49-.01.07,0,.15,0,.22,0,2.18,0,4.36,0,6.54,0,.07,0,.13,0,.2.05.51.6.8,1.01.58-.07-.23-.16-.44-.21-.67-.04-.2.06-.34.22-.37.17-.02.27.08.3.3.06.44.4.73.79.68.43-.05.69-.4.64-.85-.12-.05-.22-.1-.29-.13-.12.08-.24.22-.35.21-.31-.03-.32-.34-.41-.53Z"/>
      <path class="cls-1" d="m8.7,13.79c.45.25,1.01-.09,1.02-.66,0-.98,0-1.95,0-2.93,0-.33.08-.47.27-.46.19,0,.26.13.26.45,0,.95,0,1.91,0,2.86,0,1.08-.99,1.66-1.93,1.15-.06-.03-.15-.03-.22-.01-.87.28-1.68-.3-1.67-1.22,0-.19-.05-.28-.21-.38-.81-.49-1-1.57-.42-2.32.04-.05.08-.1.13-.16-.31-.39-.4-.83-.19-1.28.09-.19.27-.34.4-.51.04-.06.11-.13.1-.19-.15-.94.64-1.88,1.7-1.8.04,0,.07,0,.12,0,.01-.06.03-.12.04-.17.1-.56.57-.95,1.12-.92.55.02,1.03.47,1.05,1.03.02.62,0,1.23,0,1.85,0,.17-.09.28-.27.28-.18,0-.26-.12-.26-.29,0-.58,0-1.16,0-1.74,0-.23-.09-.41-.3-.53-.2-.11-.4-.1-.58.03-.28.19-.33.55-.09.78.11.11.14.23.04.35-.1.13-.23.15-.37.05-.26-.18-.55-.25-.86-.17-.67.16-1,.85-.72,1.48.1.24.08.39-.09.44-.09.03-.21,0-.36-.02-.25.14-.34.61-.12.9.04.05.14.08.21.07.18-.02.36-.07.54-.09.15-.01.25.08.27.23.02.15-.07.25-.22.28-.04.01-.09.01-.13.02-.55.05-.95.49-.96,1.02-.01.54.37.99.91,1.07.34.05.35.06.43.3.22-.28.23-.45.02-.75-.1-.14-.11-.28.03-.39.14-.11.27-.06.39.06.03.03.06.07.08.1.18.26.28.29.58.14.17-.08.31-.07.39.1.09.17,0,.31-.16.37-.2.08-.41.13-.65.2-.09.17-.1.49-.42.52-.1,0-.21-.12-.34-.21-.06.03-.16.08-.28.13-.06.42.19.77.61.84.39.06.75-.23.82-.66.04-.24.13-.34.3-.32.17.03.27.18.21.41-.05.21-.13.41-.2.62Z"/>
      <path class="cls-1" d="m4.58,9.84c.12-1.87.99-3.31,2.53-4.36.15-.1.3-.11.4.05.12.17.02.3-.13.4-.89.6-1.55,1.38-1.95,2.38-.2.5-.3,1.02-.33,1.56-.01.27-.1.4-.28.38-.18-.01-.26-.14-.25-.42Z"/>
      <path class="cls-1" d="m9.09,9.81c.12.06.24.1.34.16.14.08.18.22.1.36-.08.13-.2.16-.34.1-.41-.16-.57-.07-.62.36-.02.16-.09.27-.26.27-.18,0-.26-.11-.27-.28-.02-.32.09-.59.35-.77.17-.12.17-.23.09-.39-.11-.22-.09-.35.06-.43.15-.08.3-.02.4.19.07.14.1.29.15.44Z"/>
      <path class="cls-1" d="m8.17,7.17c.17.09.35.16.51.27.1.07.16.1.26.02.14-.11.29-.12.4.03.1.13.06.31-.12.41-.2.1-.35.22-.43.45-.02.07-.21.13-.31.1-.15-.03-.2-.17-.15-.33.07-.24,0-.37-.22-.36-.19,0-.34-.03-.36-.26-.01-.18.13-.28.4-.33Z"/>
      <path class="cls-1" d="m7.58,8.75c0,.13-.11.32.03.52.03.04-.04.21-.11.25-.08.04-.2,0-.3-.02-.07-.02-.13-.09-.2-.11-.24-.09-.28-.3-.1-.47.07-.07.14-.16.15-.24.03-.27.09-.37.27-.37.18,0,.27.13.27.44Z"/>
      <path class="cls-1" d="m7.95,5.6c-.08-.07-.19-.13-.21-.2-.03-.08,0-.23.05-.27.13-.09.29-.16.45-.19.07-.01.2.08.23.15.03.07,0,.23-.05.27-.13.1-.29.15-.47.24Z"/>
      <path class="cls-1" d="m11.57,9.83c.08-.19.14-.38.23-.54.08-.14.22-.18.36-.09.14.09.17.22.08.36-.13.2-.12.34.1.49.24.17.32.44.3.74-.01.16-.09.26-.26.26-.17,0-.24-.11-.26-.27,0-.08,0-.16-.04-.24-.09-.21-.3-.25-.56-.13-.16.07-.29.05-.37-.11-.08-.15-.02-.28.12-.35.11-.06.23-.1.31-.14Z"/>
      <path class="cls-1" d="m12.91,7.51c-.02.15-.11.24-.28.25-.32.01-.37.07-.29.39.04.15-.02.26-.16.32-.15.06-.29,0-.32-.13-.06-.21-.19-.31-.38-.4-.2-.1-.25-.28-.16-.42.08-.14.22-.14.44-.03.06.03.17.01.22-.03.19-.17.41-.25.67-.21.16.02.25.11.26.28Z"/>
      <path class="cls-1" d="m13.3,8.31c.24.02.34.11.33.28,0,.15.03.24.15.34.2.16.15.38-.09.47-.07.02-.13.06-.18.1-.12.09-.26.12-.35,0-.06-.08-.05-.22-.05-.33,0-.09.03-.17.03-.26,0-.13-.03-.27,0-.39.02-.09.13-.16.17-.22Z"/>
    </g>
  </g>
</svg>