<?xml version="1.0" encoding="UTF-8"?>
<svg id="Layer_2" data-name="Layer 2" xmlns="http://www.w3.org/2000/svg" viewBox="0 0 12.45 9.18">
  <defs>
    <style>
      .cls-1 {
        fill: #e95c28;
      }
    </style>
  </defs>
  <g id="Layer_1-2" data-name="Layer 1">
    <g>
      <path class="cls-1" d="m3.54.65h1.17c0-.15,0-.3,0-.45q0-.14.14-.14c.07,0,.14,0,.21,0,.04,0,.06.02.06.06,0,.17,0,.35,0,.53.02,0,.04,0,.06,0,.65,0,1.31,0,1.96,0,.06,0,.07-.01.07-.07,0-.16,0-.33,0-.49,0-.1,0-.1.09-.1.6,0,1.2,0,1.8,0,.06,0,.08.02.07.07,0,.17,0,.34,0,.5,0,.06.01.08.08.08.36-.01.72.04,1.06.16.6.22,1.08.59,1.43,1.13.37.57.51,1.19.43,1.86-.1.84-.51,1.5-1.2,1.99-.05.03-.1.06-.15.11h.84v.79c.12,0,.24,0,.36,0,.01,0,.03-.03.03-.05,0-.08,0-.15,0-.23,0-.04,0-.06.06-.06.09,0,.18,0,.28,0,.04,0,.06,0,.06.05,0,.31,0,.63,0,.94,0,.04-.01.05-.05.05-.1,0-.2,0-.3,0-.04,0-.05-.01-.05-.05,0-.07,0-.15,0-.22,0-.04-.01-.06-.06-.06-.11,0-.22,0-.33,0,0,.03,0,.05,0,.07,0,.3,0,.6,0,.89q0,.08-.08.08c-.31,0-.63,0-.94,0-.03,0-.07,0-.1,0,.02.09.05.18.06.27.04.36-.2.69-.56.77-.34.08-.7-.12-.82-.46-.01-.04-.03-.05-.07-.05-.07,0-.15,0-.22,0-.04,0-.05.01-.07.05-.15.38-.6.59-.99.4-.17-.08-.29-.21-.36-.39-.02-.04-.04-.06-.08-.06-.8,0-1.61,0-2.41,0-.05,0-.08.02-.09.07-.1.27-.37.46-.67.45-.3,0-.57-.18-.67-.46-.02-.04-.03-.06-.08-.06-.07,0-.15,0-.22,0-.02,0-.04.02-.05.03-.12.31-.43.51-.76.48-.31-.03-.57-.27-.63-.58-.03-.13-.01-.27.04-.4,0-.02.01-.03.02-.06-.03,0-.05,0-.08,0-.32,0-.65,0-.97,0-.06,0-.08-.02-.08-.08,0-.31,0-.62,0-.93,0-.01,0-.02,0-.04h-.39c0,.08,0,.17,0,.25,0,.06-.02.07-.07.07-.09,0-.18,0-.26,0-.04,0-.06-.01-.06-.06,0-.31,0-.63,0-.94,0-.03,0-.06.04-.06.11,0,.23,0,.36,0,0,.1,0,.18,0,.27,0,.05.01.06.06.06.1,0,.21,0,.32,0,0-.02,0-.05,0-.07,0-.22,0-.43,0-.65,0-.05.01-.07.07-.07.23,0,.47,0,.7,0,.02,0,.05,0,.09-.01-.03-.02-.05-.03-.06-.04-.69-.44-1.13-1.06-1.27-1.87-.18-1.06.15-1.97.97-2.67.5-.43,1.1-.64,1.77-.65.11,0,.1.01.1-.1,0-.14,0-.29,0-.43,0-.04,0-.05.05-.05.1,0,.19,0,.29,0,.04,0,.06.02.06.06,0,.15,0,.31,0,.46,0,.02,0,.04,0,.07Zm-.39,4.79s0-.04,0-.05c0-1.43,0-2.86,0-4.28,0-.04,0-.05-.05-.05-.48,0-.93.12-1.33.38-.64.42-1.02,1.02-1.1,1.78-.08.73.14,1.38.64,1.92.47.51,1.06.76,1.75.76,2.1,0,4.2,0,6.3,0,.37,0,.73-.07,1.07-.24.79-.4,1.24-1.05,1.35-1.92.07-.6-.08-1.15-.43-1.64-.46-.65-1.09-1-1.88-1.03-.32-.01-.64,0-.96,0-1.07,0-2.15,0-3.22,0-.06,0-.11,0-.17,0v4.38h-.4v-.45c-.37,0-.73,0-1.09,0q-.08,0-.08.08c0,.1,0,.21,0,.31,0,.03,0,.06-.04.06-.11,0-.23,0-.35,0Zm-1.97,2.29c.45,0,.88,0,1.32,0,.35,0,.59.16.73.48,0,.02.03.03.05.03.06,0,.13,0,.19,0,.06,0,.09-.01.11-.07.12-.29.38-.45.68-.45.29,0,.55.18.66.46.02.05.05.06.1.06.79,0,1.58,0,2.37,0,.06,0,.09-.01.12-.08.13-.32.46-.5.79-.43.26.05.44.21.54.45.02.04.04.06.08.06.07,0,.13,0,.2,0,.04,0,.05-.01.07-.05.13-.31.38-.48.72-.48.41,0,.81,0,1.22,0,.04,0,.07,0,.11,0v-1.44H1.19v1.44ZM4.71,1.05c-.36,0-.71,0-1.06,0-.11,0-.11,0-.11.11,0,.09,0,.19,0,.28h1.17v-.39Zm0,3.14c-.38,0-.76,0-1.13,0-.04,0-.04.02-.04.05,0,.09,0,.19,0,.28,0,.05.02.06.06.06.34,0,.67,0,1.01,0,.03,0,.07,0,.1,0v-.39Zm-1.17-2.36s0,.04,0,.06c0,.08,0,.16,0,.24,0,.09-.02.09.1.09.34,0,.68,0,1.03,0,.02,0,.03,0,.05,0v-.39h-1.17Zm1.17,1.58s0,0-.01,0c-.37,0-.74,0-1.11,0-.04,0-.05.02-.05.05,0,.09,0,.18,0,.28,0,.05.01.07.06.07.33,0,.66,0,.99,0,.04,0,.08,0,.12,0v-.38Zm0-.8s-.05,0-.08,0c-.35,0-.7,0-1.05,0-.01,0-.04.02-.04.03,0,.12,0,.23,0,.35h1.17v-.38Zm-.7,6.03c.09.12.25.16.38.1.13-.06.22-.22.19-.36-.03-.16-.17-.27-.33-.27-.11,0-.22.06-.24.13.02,0,.03,0,.05,0,.07,0,.15,0,.22,0,.11.01.18.1.17.2,0,.1-.09.19-.2.19-.08,0-.16,0-.25,0Zm4.43-.4c-.08-.11-.24-.16-.37-.11-.14.05-.23.2-.21.34.02.16.13.27.29.3.11.02.24-.04.28-.12-.07,0-.15,0-.22,0-.05,0-.1-.02-.14-.04-.07-.04-.09-.13-.07-.21.02-.08.1-.14.19-.14.08,0,.17,0,.26,0Zm-5.64,0c-.07-.11-.22-.15-.35-.11-.14.04-.23.18-.23.33,0,.15.11.26.25.3.1.03.28-.02.32-.12-.07,0-.14,0-.21,0-.13,0-.22-.08-.23-.2,0-.12.09-.2.22-.21.08,0,.15,0,.23,0Zm6.84,0c.08,0,.16,0,.23,0,.04,0,.08.01.11.03.08.05.11.13.09.22-.02.09-.1.15-.19.15-.08,0-.16,0-.25,0,.07.11.22.15.35.11.14-.04.23-.17.22-.32,0-.14-.1-.27-.24-.31-.13-.04-.27,0-.34.11Zm-1.25-7.6h.39s0-.07,0-.11q0-.14-.15-.15c-.08,0-.16,0-.24,0v.25Zm-.41,0v-.26h-.38c0,.08,0,.15,0,.23,0,0,.02.03.03.03.11,0,.23,0,.35,0Z"/>
      <path class="cls-1" d="m8.15,5.11c-.84-.02-1.62-.71-1.6-1.7.02-.87.78-1.6,1.67-1.58.88.02,1.63.76,1.6,1.69-.02.88-.78,1.61-1.68,1.58Zm-1.2-1.64c0,.63.5,1.25,1.25,1.25.62,0,1.23-.51,1.23-1.23,0-.64-.52-1.26-1.23-1.26-.69,0-1.25.54-1.25,1.24Z"/>
      <path class="cls-1" d="m4.46,7.14h-.4c0-.16,0-.32,0-.49,0-.01.02-.03.03-.03.12,0,.24,0,.37,0v.52Z"/>
      <path class="cls-1" d="m2.09,7.14h-.39c0-.06,0-.12,0-.17,0-.1,0-.2,0-.3,0-.04.01-.06.06-.05.1,0,.2,0,.3,0,.01,0,.04.02.04.04,0,.15,0,.3,0,.45,0,0,0,.02,0,.03Z"/>
      <path class="cls-1" d="m8.39,7.14h-.4c0-.06,0-.11,0-.17,0-.1,0-.2,0-.3,0-.04.01-.05.05-.05.1,0,.21,0,.31,0,.04,0,.05.01.05.05,0,.16,0,.31,0,.47Z"/>
      <path class="cls-1" d="m6.02,7.14h-.39c0-.06,0-.12,0-.17,0-.1,0-.2,0-.3,0-.04.01-.06.05-.06.1,0,.2,0,.29,0,.02,0,.05.02.05.04,0,.15,0,.31,0,.46,0,0,0,.02,0,.02Z"/>
      <path class="cls-1" d="m9.56,7.14c0-.16,0-.32,0-.48,0-.02.03-.04.04-.04.1,0,.21,0,.31,0,.01,0,.04.02.04.03,0,.16,0,.33,0,.49h-.4Z"/>
      <path class="cls-1" d="m3.67,7.14h-.39s0-.09,0-.14c0-.11,0-.22,0-.33,0-.04.01-.06.06-.06.1,0,.19,0,.29,0,.02,0,.05.02.05.04,0,.16,0,.32,0,.48Z"/>
      <path class="cls-1" d="m7.21,7.14c0-.17,0-.33,0-.49,0-.01.03-.04.04-.04.1,0,.21,0,.31,0,.01,0,.04.03.04.04,0,.15,0,.3,0,.45,0,.01-.02.04-.04.04-.12,0-.23,0-.36,0Z"/>
      <path class="cls-1" d="m2.49,7.14c0-.17,0-.33,0-.49,0-.01.03-.03.04-.03.1,0,.21,0,.31,0,.04,0,.05.02.05.05,0,.14,0,.29,0,.43,0,.01-.02.04-.04.04-.11,0-.23,0-.36,0Z"/>
      <path class="cls-1" d="m10.35,7.14c0-.13,0-.26,0-.39,0-.13,0-.13.13-.13.07,0,.14,0,.21,0,.03,0,.05,0,.05.04,0,.16,0,.32,0,.48h-.39Z"/>
      <path class="cls-1" d="m5.24,7.14h-.39s0-.07,0-.11c0-.12,0-.24,0-.36,0-.04.01-.06.06-.06.1,0,.19,0,.29,0,.02,0,.05.02.05.04,0,.16,0,.32,0,.48Z"/>
      <path class="cls-1" d="m6.81,7.14h-.39s0-.04,0-.06c0-.14,0-.27,0-.41,0-.04.01-.05.05-.05.1,0,.2,0,.3,0,.02,0,.05.03.05.04,0,.16,0,.32,0,.48Z"/>
      <path class="cls-1" d="m9.17,7.14c-.12,0-.24,0-.35,0-.01,0-.04-.03-.04-.04,0-.14,0-.29,0-.43,0-.03.01-.05.05-.05.1,0,.2,0,.3,0,.01,0,.04.02.04.04,0,.16,0,.32,0,.49Z"/>
      <path class="cls-1" d="m8.19,2.38c.2.42.42.82.54,1.26.08.31-.13.62-.44.67-.32.05-.62-.17-.66-.48-.02-.13.02-.26.07-.37.16-.36.32-.71.48-1.06,0,0,0,0,.02-.02Zm.01.91s-.02,0-.03,0c-.05.16-.1.31-.15.47-.02.07.03.12.08.15.06.03.12.03.17-.01.06-.04.09-.1.07-.17-.05-.15-.1-.29-.14-.44Z"/>
    </g>
  </g>
</svg>