<?xml version="1.0" encoding="UTF-8"?>
<svg id="Layer_2" data-name="Layer 2" xmlns="http://www.w3.org/2000/svg" viewBox="0 0 7.55 12.58">
  <defs>
    <style>
      .cls-1 {
        fill: #e95c28;
      }
    </style>
  </defs>
  <g id="Layer_1-2" data-name="Layer 1">
    <g>
      <path class="cls-1" d="m5.06,0s.06.03.1.04c.3.07.49.3.49.6,0,.59,0,1.18,0,1.77,0,.11.03.16.14.19.96.27,1.53.9,1.71,1.88.05.26.04.54.04.81,0,1.3,0,2.6,0,3.91,0,.39-.05.77-.2,1.13-.16.37-.4.68-.73.92-.1.07-.13.15-.13.27.01.24,0,.48-.16.69-.19.27-.47.36-.78.37-1.18,0-2.35,0-3.53,0-.32,0-.61-.09-.8-.37-.13-.19-.18-.4-.17-.63.01-.16-.04-.27-.17-.37C.24,10.7,0,10.02,0,9.24c0-1.44-.01-2.87,0-4.31,0-1.01.46-1.77,1.4-2.2.12-.05.25-.09.37-.12.09-.02.12-.06.12-.15,0-.55,0-1.1,0-1.65,0-.11,0-.21.03-.32.06-.23.2-.39.44-.44.04,0,.07-.03.11-.05.86,0,1.72,0,2.58,0Zm2.06,7.08c0-.77,0-1.53,0-2.3,0-.8-.53-1.53-1.3-1.76-.22-.06-.47-.08-.7-.08-.93-.01-1.87,0-2.8,0-.64,0-1.15.25-1.53.76-.29.38-.38.82-.38,1.29,0,1.35,0,2.7,0,4.05,0,.2,0,.4.03.6.07.75.6,1.39,1.33,1.6.26.08.54.07.81.08.87,0,1.74,0,2.6,0,.57,0,1.04-.2,1.43-.61.34-.36.5-.79.51-1.28,0-.79,0-1.57,0-2.36ZM2.31,2.51h2.94c0-.56,0-1.11,0-1.66,0-.4-.03-.44-.44-.44-.63,0-1.25,0-1.88,0-.13,0-.27,0-.4,0-.15,0-.22.09-.22.24,0,.41,0,.81,0,1.22,0,.21,0,.42,0,.63Zm-.85,9.08c-.03.38.13.56.48.58.07,0,.15,0,.22,0,1.02,0,2.04,0,3.06-.01.16,0,.32,0,.48,0,.28-.02.46-.29.38-.57-.05.01-.11.04-.16.04-.22.04-.44.1-.66.1-.98.01-1.96,0-2.93,0-.19,0-.37-.05-.56-.08-.1-.02-.19-.05-.29-.07Z"/>
      <path class="cls-1" d="m3.77,9.85c-.3-.01-.59-.05-.87-.14-.88-.3-1.25-1.17-.82-2,.09-.17.22-.32.34-.47.06-.07.14-.12.25-.07.11.05.14.14.13.25,0,.04-.01.07,0,.11,0,.05,0,.13.02.13.06.01.14.02.2,0,.03-.01.06-.1.04-.15-.06-.17-.12-.33-.2-.48-.31-.62-.19-1.41.31-1.9.15-.15.33-.24.54-.28.11-.02.2,0,.26.11.06.1.03.2-.05.26-.27.2-.21.48,0,.69.23.24.48.45.74.67.33.28.62.58.81.97.27.57.3,1.13-.07,1.66-.23.33-.59.49-.97.56-.21.04-.42.05-.63.08Zm-1.34-1.98c-.1.22-.13.32-.12.59,0,.36.23.68.57.81.47.18.96.21,1.45.1.36-.07.69-.21.84-.58.14-.34.11-.69-.04-1.02-.15-.35-.41-.61-.69-.85-.23-.2-.46-.4-.68-.6-.2-.18-.36-.39-.4-.67,0-.03-.02-.05-.04-.09-.27.46-.36.9-.06,1.36.09.14.15.31.2.47.07.26-.03.49-.23.61-.2.12-.48.1-.68-.06-.03-.03-.07-.05-.11-.08Z"/>
      <path class="cls-1" d="m3.77,2.1c-.19,0-.38,0-.56,0-.3,0-.44-.13-.47-.43-.01-.15,0-.31.01-.46.02-.19.14-.3.32-.34.07-.02.15-.02.22-.02.34,0,.69,0,1.03,0,.32,0,.48.16.49.48,0,.11,0,.22,0,.33-.01.28-.16.44-.45.45-.2,0-.4,0-.6,0h0Zm.63-.43c0-.12,0-.23,0-.34,0-.03-.05-.07-.07-.07-.37,0-.74,0-1.11,0-.03,0-.08.04-.08.06,0,.11,0,.23,0,.34h1.26Z"/>
    </g>
  </g>
</svg>