<?xml version="1.0" encoding="UTF-8"?>
<svg id="Layer_2" data-name="Layer 2" xmlns="http://www.w3.org/2000/svg" viewBox="0 0 10.83 9.73">
  <defs>
    <style>
      .cls-1 {
        fill: #e95c28;
      }
    </style>
  </defs>
  <g id="Layer_1-2" data-name="Layer 1">
    <g>
      <path class="cls-1" d="m5.42.57c.34-.27.75-.36,1.16-.44C7.18.02,7.8,0,8.42.02c.59.02,1.17.08,1.73.27.15.05.29.12.43.2.08.05.14.12.19.2.08.12.07.25,0,.37-.03.05-.06.1-.1.13-.08.05-.1.12-.09.21,0,.26,0,.52,0,.79,0,.05.01.09.06.13.09.07.16.16.18.28.02.12-.01.22-.08.31-.02.03-.05.06-.08.08-.07.05-.08.11-.08.19,0,.69,0,1.37,0,2.06,0,.04.02.07.05.1.09.07.16.15.19.26.04.17-.03.3-.15.4-.06.05-.08.11-.08.18,0,.29,0,.57,0,.86,0,.04.01.06.04.08.04.03.07.06.11.1.14.16.13.38-.02.53-.13.13-.29.21-.46.28-.31.11-.62.18-.94.22-.48.07-.97.09-1.45.08-.03,0-.09.01-.09.02,0,.05-.03.11.03.16.03.02.05.05.08.07.18.18.18.4,0,.58-.1.1-.21.17-.34.22-.28.12-.58.19-.88.24-.58.1-1.17.12-1.76.1-.57-.02-1.14-.08-1.69-.25-.18-.05-.35-.12-.5-.23-.04-.03-.08-.06-.11-.09-.17-.18-.17-.4,0-.58.01-.01.03-.03.04-.04.08-.04.08-.12.06-.19,0-.01-.02-.04-.04-.04-.24-.01-.47-.02-.71-.04-.47-.04-.93-.11-1.37-.27-.16-.06-.31-.13-.43-.25-.19-.19-.2-.41,0-.6.09-.08.11-.16.11-.27,0-.26,0-.53,0-.79,0-.04-.01-.07-.04-.09-.08-.06-.14-.13-.18-.23-.06-.15,0-.33.14-.45.07-.05.09-.11.09-.19,0-.68,0-1.37,0-2.05,0-.05-.01-.08-.05-.11-.13-.1-.21-.22-.18-.39.02-.11.07-.21.16-.28.06-.04.08-.09.08-.16,0-.28,0-.56,0-.84,0-.04,0-.07-.04-.09-.03-.02-.06-.05-.08-.08-.16-.18-.16-.4,0-.57.09-.1.21-.16.33-.22.28-.13.58-.19.88-.25C1.97,0,2.61-.02,3.25.01c.48.02.96.08,1.43.2.22.06.43.13.62.26.04.03.08.06.12.09Zm2,4.04s-.05.01-.07.02c-.12.03-.23.07-.35.1-.52.12-1.04.17-1.58.18-.43,0-.86,0-1.29-.06-.34-.04-.68-.1-1.01-.22-.07-.03-.07-.02-.07.05,0,.25,0,.5,0,.75,0,.43,0,.87,0,1.3,0,.08-.03.14-.1.18-.03.02-.07.04-.1.07-.07.06-.07.09,0,.14.1.07.21.13.32.18.44.17.91.22,1.37.26.37.03.75.03,1.12.02.46-.02.92-.07,1.37-.19.19-.05.37-.11.53-.22.12-.09.12-.13,0-.21-.01,0-.02-.02-.03-.02-.09-.04-.12-.12-.12-.21,0-.68,0-1.37,0-2.05,0-.02,0-.04,0-.06Zm-4.38,3.03s0,0,0,0c0,.3,0,.6,0,.9,0,.09-.03.15-.11.19-.03.02-.06.04-.08.06-.08.07-.08.09,0,.16.01,0,.02.02.03.02.13.06.25.13.39.18.49.16,1.01.21,1.52.23.54.02,1.08,0,1.62-.07.3-.04.6-.1.88-.21.12-.04.23-.1.32-.18.05-.05.05-.07,0-.12-.03-.03-.06-.05-.09-.07-.09-.05-.12-.13-.12-.23,0-.21,0-.42,0-.62,0-.09,0-.17,0-.25-1.46.39-2.92.39-4.38,0Zm0-4.79s0,.03,0,.04c0,.28,0,.55,0,.83,0,.08-.02.15-.1.19-.04.02-.07.05-.1.07-.06.05-.06.08,0,.13.1.09.22.14.35.19.32.12.66.18.99.21.35.03.69.06,1.04.06.47,0,.93-.03,1.4-.11.29-.05.57-.11.83-.25.06-.03.12-.07.17-.11.05-.05.05-.07,0-.11-.03-.03-.07-.05-.1-.08-.07-.04-.1-.1-.1-.18,0-.27,0-.54,0-.8,0-.03,0-.05,0-.08-1.46.39-2.91.39-4.38,0Zm4.88.96s.01,0,.02,0c.11-.08.2-.08.28.04.09.13.18.26.26.4.17.3.32.6.35.95.03.29-.1.54-.35.63-.16.06-.33.08-.5.07-.07,0-.15-.01-.23-.02,0,.09,0,.18,0,.26,0,.03.01.04.04.04.08,0,.15,0,.23,0,.49,0,.97-.03,1.45-.11.25-.04.5-.1.73-.2.09-.04.17-.1.26-.16.03-.02.04-.06,0-.09-.04-.03-.07-.06-.11-.09-.08-.05-.11-.11-.11-.2,0-.47,0-.94,0-1.41,0-.23,0-.46,0-.71-.03,0-.06.01-.08.02-.54.18-1.1.24-1.66.26-.23.01-.46,0-.69,0-.02,0-.05,0-.05.02-.02.04,0,.13.03.16.04.04.08.08.13.12ZM.58,3.2s0,.06,0,.08c0,.69,0,1.37,0,2.06,0,.08-.03.14-.1.18-.04.02-.08.06-.12.09-.03.03-.03.07,0,.1.05.04.09.08.14.1.17.07.34.15.52.19.28.06.56.11.84.14.26.03.52.03.78.04.05,0,.06-.02.06-.06,0-.05,0-.11,0-.16,0-.05-.02-.06-.06-.06-.04,0-.08,0-.12-.01-.21-.05-.39-.14-.48-.35-.07-.17-.06-.34-.02-.51.07-.31.22-.58.38-.85.02-.04.05-.09.06-.13.02-.13.09-.22.18-.3.07-.07.09-.11.05-.22-.71-.02-1.42-.07-2.1-.3Zm2.2-1.81c.54,0,1.09-.04,1.64-.17.23-.05.46-.11.66-.24.16-.1.16-.15,0-.25-.15-.1-.32-.15-.49-.2-.46-.13-.92-.17-1.4-.2-.62-.03-1.24,0-1.85.1-.27.05-.54.11-.8.23-.06.03-.12.07-.17.11-.06.05-.06.08,0,.14.05.04.09.08.15.1.16.06.32.13.49.17.57.14,1.15.18,1.76.19Zm5.45.01c.21-.01.5-.03.8-.06.3-.03.6-.08.89-.16.17-.05.33-.11.47-.21.11-.08.11-.12,0-.19-.1-.07-.22-.13-.33-.17-.54-.19-1.11-.24-1.67-.26-.48-.02-.95,0-1.42.06-.34.04-.68.1-1,.23-.11.04-.21.11-.32.18-.05.04-.05.07,0,.11.06.05.12.09.19.12.27.14.56.19.86.25.48.08.96.1,1.54.11Zm-3.01,1.4s0,0,0,.01c.34-.02.68-.04,1.02-.08.33-.03.65-.09.97-.2.14-.05.28-.1.39-.2.07-.06.06-.08,0-.14-.11-.1-.24-.15-.38-.19-.55-.18-1.12-.23-1.69-.26-.45-.02-.9,0-1.35.06-.32.04-.63.09-.93.19-.14.05-.28.1-.4.2-.08.07-.08.09,0,.16.05.04.11.08.17.11.2.1.42.15.64.2.52.1,1.04.14,1.56.14Zm5.02,3.42s-.04,0-.05.01c-.09.03-.18.06-.27.08-.53.14-1.07.19-1.61.2-.17,0-.33,0-.5,0-.02,0-.05.02-.06.03,0,.07,0,.13.06.18.11.08.18.19.18.33,0,.15-.08.26-.19.35-.04.03-.06.07-.06.12,0,.13,0,.25,0,.38,0,.08,0,.08.08.08.49,0,.97-.01,1.45-.08.3-.04.59-.1.87-.21.11-.04.2-.11.3-.17.05-.04.05-.07,0-.12-.03-.03-.06-.05-.1-.07-.08-.05-.11-.12-.11-.21,0-.22,0-.44,0-.66,0-.08,0-.16,0-.24ZM7.44,1.71s0,0,0,.01c.02,0,.04.02.06.03.11.06.22.11.32.19.24.18.25.44.04.64-.02.02-.04.03-.06.06-.02.02-.03.04-.03.06,0,.14,0,.28,0,.42,0,.04.02.05.06.05.2,0,.4,0,.59,0,.39,0,.77-.05,1.15-.12.25-.05.5-.11.73-.22.06-.03.12-.08.18-.12.03-.03.04-.06,0-.09-.04-.04-.08-.07-.12-.1-.06-.04-.1-.09-.1-.16,0-.29,0-.57,0-.86,0-.05-.01-.06-.06-.04-.36.13-.73.19-1.1.23-.49.06-.99.06-1.48.05-.06,0-.11,0-.17-.01ZM.58,6.21s0,.02,0,.02c0,.3,0,.59,0,.89,0,.08-.03.15-.1.19-.04.02-.07.05-.11.08-.05.04-.05.07,0,.11.04.04.09.07.14.1.18.1.37.16.57.2.51.12,1.04.16,1.57.17.04,0,.05-.01.05-.05,0-.13,0-.26,0-.39,0-.06-.02-.1-.07-.14-.23-.19-.24-.45-.02-.65,0,0,0,0,0,0,.07-.04.08-.11.07-.19,0-.03-.02-.04-.05-.05-.32-.02-.64-.03-.96-.06-.36-.03-.72-.1-1.06-.23-.01,0-.03,0-.04,0Zm0-4.8c0,.05,0,.09,0,.13,0,.25,0,.49,0,.74,0,.1-.04.17-.12.22-.16.09-.16.15,0,.25.18.11.39.18.59.22.52.12,1.05.17,1.59.18.05,0,.06-.02.06-.06,0-.11,0-.21,0-.32,0-.08-.01-.14-.08-.19-.02-.02-.04-.04-.06-.06-.14-.17-.14-.36,0-.52.08-.1.18-.16.3-.21.05-.02.1-.05.14-.07,0,0,0-.01,0-.02-.82.01-1.63-.03-2.43-.3Zm7.49,2.8s-.02,0-.02,0c-.09.17-.18.34-.27.51-.01.02-.02.05-.02.07,0,.22,0,.44,0,.66,0,.04.02.07.07.08.15.04.31.04.46,0,.13-.03.2-.11.21-.23,0-.05,0-.1,0-.15-.04-.25-.15-.48-.28-.7-.05-.08-.09-.16-.14-.24Zm-5.36.78c0-.16,0-.31,0-.47,0-.03,0-.05,0-.08,0-.02-.02-.03-.02-.04-.01.01-.03.02-.04.03-.13.23-.25.47-.29.74-.03.19.04.3.2.35.04.01.07.01.11.02.05,0,.06,0,.06-.05,0-.16,0-.33,0-.49Zm2.71-3.58s.04,0,.06,0c.05,0,.06-.02.06-.07,0-.06,0-.11-.07-.15-.03-.02-.05-.06-.09-.02-.03.03-.07.05-.08.08-.04.12,0,.16.12.15Z"/>
      <path class="cls-1" d="m5.23,7.31c-.16,0-.32-.02-.46-.1-.21-.11-.31-.29-.31-.51,0-.25.07-.47.17-.69.11-.25.26-.49.41-.72.02-.02.03-.05.05-.07.09-.1.21-.1.29.01.12.18.24.36.34.55.12.22.22.45.27.7.03.15.03.3-.02.44-.09.24-.29.34-.52.38-.07.01-.14.01-.2.02Zm.01-1.69s-.02,0-.02,0c-.07.13-.15.26-.22.39-.1.18-.18.37-.2.58-.03.19.04.31.2.35.15.04.3.04.44,0,.17-.04.23-.12.22-.29-.02-.26-.11-.5-.25-.71-.04-.06-.07-.12-.11-.19-.02-.04-.04-.09-.06-.13Z"/>
    </g>
  </g>
</svg>