<?xml version="1.0" encoding="UTF-8"?>
<svg id="Layer_2" data-name="Layer 2" xmlns="http://www.w3.org/2000/svg" viewBox="0 0 8.79 10.3">
  <defs>
    <style>
      .cls-1 {
        fill: #e95c28;
      }
    </style>
  </defs>
  <g id="Layer_1-2" data-name="Layer 1">
    <g>
      <path class="cls-1" d="m7.76,8.15c.4-.23.68-.56.94-.94.01.13.03.23.03.34.02.77.04,1.55.05,2.32,0,.28-.16.43-.44.43-2.63,0-5.27,0-7.9,0-.28,0-.43-.15-.44-.43-.02-.86,0-1.72.08-2.58,0-.02,0-.03.01-.07.26.37.54.7.94.94-.02-.04-.03-.07-.04-.1-.26-.58-.52-1.16-.78-1.74-.02-.05-.02-.12-.01-.18.21-1.71.56-3.4,1.07-5.05.1-.32.22-.64.32-.97.02-.08.06-.11.14-.1.26,0,.53,0,.79,0,.01,0,.03,0,.06.01,0,.05,0,.09,0,.14,0,.75,0,1.5,0,2.24,0,.4.27.71.65.79.08.02.13,0,.18-.07.09-.12.16-.28.28-.34.12-.06.29-.02.44-.02.28,0,.57,0,.85,0,.05,0,.12.03.16.07.08.09.16.19.22.29.04.06.09.08.16.06.39-.07.67-.39.67-.8,0-.74,0-1.49,0-2.23,0-.05,0-.09,0-.16.19,0,.36,0,.54,0,.14,0,.31-.04.4.03.09.06.1.24.15.36.53,1.54.91,3.12,1.16,4.74.05.33.1.66.14,1,0,.07,0,.15-.03.22-.26.58-.52,1.16-.78,1.74,0,.01,0,.02-.02.05Zm-3.37-3.07c-.55,0-1.09,0-1.64,0-.3,0-.47.17-.47.47,0,.7,0,1.39,0,2.09,0,.29.17.47.46.47,1.1,0,2.2,0,3.3,0,.28,0,.46-.18.46-.46,0-.7,0-1.4,0-2.1,0-.3-.17-.47-.47-.47-.55,0-1.09,0-1.64,0Z"/>
      <path class="cls-1" d="m2.86,7.55c0-.31,0-.6,0-.88,0-.03.02-.07.05-.1.29-.29.57-.58.86-.86.03-.03.07-.05.11-.05.44,0,.88,0,1.33,0,.01,0,.02,0,.05.01-.03.03-.05.06-.07.08-.58.58-1.16,1.16-1.74,1.73-.04.04-.11.07-.17.07-.13.01-.27,0-.41,0Z"/>
      <path class="cls-1" d="m4.21,7.55c.58-.58,1.16-1.16,1.74-1.74,0,.24,0,.49,0,.74,0,.03-.03.06-.05.09-.28.29-.57.57-.86.85-.03.03-.08.06-.12.06-.23,0-.47,0-.7,0Z"/>
    </g>
  </g>
</svg>