<?xml version="1.0" encoding="UTF-8"?>
<svg id="Layer_2" data-name="Layer 2" xmlns="http://www.w3.org/2000/svg" viewBox="0 0 16.17 18.07">
  <defs>
    <style>
      .cls-1 {
        fill: #e95c28;
      }
    </style>
  </defs>
  <g id="Layer_1-2" data-name="Layer 1">
    <g>
      <path class="cls-1" d="m8.19,18.07h-.28s-.01-.01-.02-.01c-.3-.07-.6-.13-.89-.23-1.89-.63-3.43-1.75-4.63-3.33-.75-1-1.29-2.11-1.67-3.3C.23,9.69.03,8.15,0,6.58,0,5.52.01,4.47,0,3.41c0-.53.35-.95.81-1.11.24-.08.48-.07.72-.06.74.02,1.47-.02,2.2-.12.5-.07.99-.18,1.46-.41.75-.36,1.42-.85,2.04-1.41C7.51.05,7.84-.02,8.2,0c.3.03.54.18.78.35.46.34.93.68,1.4,1,.43.28.88.52,1.39.64.85.2,1.72.26,2.59.26.25,0,.5-.02.75,0,.51.05.93.44,1.03.93.01.06.02.11.03.17v2.84s0,.07-.01.11c0,.68-.04,1.36-.12,2.03-.1.87-.26,1.72-.5,2.55-.49,1.66-1.27,3.16-2.46,4.42-1.15,1.22-2.53,2.08-4.14,2.57-.25.08-.5.13-.76.19ZM1.24,3.37v.11c0,.86,0,1.72,0,2.58,0,.65.02,1.3.09,1.95.09.87.24,1.72.48,2.56.4,1.37,1.02,2.63,1.96,3.72,1.03,1.2,2.29,2.05,3.81,2.53.27.08.52.13.81.04,1.9-.56,3.4-1.68,4.54-3.29.66-.94,1.12-1.98,1.44-3.08.37-1.27.53-2.58.55-3.9.02-1.04,0-2.09,0-3.13,0-.03,0-.05,0-.08-.02,0-.04,0-.05,0-.85.03-1.7,0-2.55-.12-.51-.07-1.01-.17-1.49-.36-.81-.32-1.54-.78-2.23-1.31-.18-.14-.36-.29-.55-.44-.01.01-.03.02-.04.03-.46.41-.95.78-1.48,1.11-.54.34-1.11.63-1.73.78-.9.23-1.82.3-2.74.31-.27,0-.54,0-.82,0Z"/>
      <path class="cls-1" d="m7.1,9.99c.34-.31.66-.6.99-.9,1.27-1.15,2.53-2.3,3.8-3.45.27-.25.63-.3.94-.14.44.23.52.76.16,1.09-.44.41-.89.81-1.33,1.22-1.27,1.16-2.55,2.32-3.82,3.48-.02.02-.05.05-.07.07-.34.43-.97.43-1.32,0-.05-.07-.12-.12-.18-.18-.86-.78-1.72-1.57-2.58-2.35-.12-.11-.21-.23-.24-.38-.08-.37.17-.73.56-.81.28-.06.53.01.75.21.75.68,1.49,1.36,2.24,2.04.04.03.07.07.12.1Z"/>
    </g>
  </g>
</svg>