<?xml version="1.0" encoding="UTF-8"?>
<svg id="Layer_2" data-name="Layer 2" xmlns="http://www.w3.org/2000/svg" viewBox="0 0 16.02 10.61">
  <defs>
    <style>
      .cls-1 {
        fill: #e95c28;
      }
    </style>
  </defs>
  <g id="Layer_1-2" data-name="Layer 1">
    <g>
      <path class="cls-1" d="m2.16,10.05h-.66V3.65c-.35.2-.68.39-1.02.58-.16-.28-.32-.56-.48-.85.18-.1.35-.2.52-.29C2.31,2.07,4.09,1.06,5.88.04c.1-.06.19-.06.3,0,1.92,1.09,3.84,2.18,5.76,3.27.04.02.07.04.12.07-.16.28-.32.56-.48.85-.21-.12-.41-.23-.63-.35v3.15h-.66v-.13c0-1.09,0-2.18,0-3.27,0-.09-.03-.14-.1-.18-1.36-.77-2.72-1.54-4.07-2.31-.07-.04-.12-.04-.18,0-1.23.7-2.47,1.4-3.7,2.1-.07.04-.08.08-.08.15,0,2.18,0,4.36,0,6.54,0,.04,0,.08,0,.13Z"/>
      <path class="cls-1" d="m6.02,9.96v-1.61h5.86v-3.21h.12c.69,0,1.38,0,2.06,0,.07,0,.12.02.17.08.47.57.94,1.13,1.41,1.69.06.07.08.13.08.22,0,.36,0,.73,0,1.09,0,.03,0,.07,0,.11h.3v1.61s-.07,0-.1,0c-.19,0-.38,0-.57,0-.04,0-.09.03-.11.06-.21.37-.52.57-.94.58-.43,0-.75-.2-.96-.58-.03-.05-.06-.07-.12-.07-1.48,0-2.95,0-4.43,0-.06,0-.09.02-.12.07-.21.37-.52.58-.95.57-.42,0-.74-.2-.94-.57-.03-.05-.06-.07-.12-.07-.21,0-.43,0-.65,0Zm8.2-3.99c-.09-.11-.16-.2-.24-.28-.03-.03-.08-.06-.12-.06-.46,0-.93,0-1.39,0-.03,0-.06,0-.09,0v2.7h2.85v-.69h-2.48v-1.68h1.48Zm-.74,2.87h-4.94c.16.19.24.39.26.63.04,0,.08,0,.11,0,1.4,0,2.79,0,4.19,0,.02,0,.05,0,.07,0,.02,0,.05-.03.06-.05.03-.21.11-.4.25-.58Zm1.74-1.52c.02-.08,0-.14-.04-.21-.21-.25-.42-.5-.63-.75-.03-.04-.09-.07-.14-.07-.42,0-.83,0-1.25,0-.03,0-.06,0-.09,0v1.02h2.15Zm-.94,1.81c-.23,0-.42.18-.42.41,0,.23.18.41.41.42.23,0,.42-.18.42-.42,0-.23-.18-.41-.42-.41Zm-6.55,0c-.23,0-.42.19-.41.41,0,.23.19.41.42.41.23,0,.41-.19.41-.42,0-.23-.18-.41-.42-.41Zm7.4-.29c.07.17.14.33.2.5.04.14.04.14.2.11v-.62h-.4Zm-8.47.62c.02-.23.11-.44.26-.62h-.41v.62h.15Z"/>
      <path class="cls-1" d="m7.23,7.44h-1.99v-1.47h1.99v1.47Z"/>
      <path class="cls-1" d="m9.53,7.44h-1.99s0-.05,0-.08c0-.44,0-.87,0-1.31,0-.06,0-.09.08-.09.62,0,1.25,0,1.87,0,.01,0,.03,0,.05,0v1.47Z"/>
      <path class="cls-1" d="m5.24,5.74v-1.47h1.99v1.47h-1.99Z"/>
      <path class="cls-1" d="m7.54,4.27h1.99v1.47h-1.99v-1.47Z"/>
      <path class="cls-1" d="m2.98,5.74v-1.47h1.99v1.47h-1.99Zm.33-.33h1.34v-.81h-1.34v.81Z"/>
      <path class="cls-1" d="m2.98,7.62h2s0,.05,0,.08c0,.43,0,.87,0,1.3,0,.07-.01.1-.09.1-.61,0-1.21,0-1.82,0-.05,0-.09,0-.09-.07,0-.47,0-.93,0-1.41Zm.33.33v.82h1.34v-.82h-1.34Z"/>
      <path class="cls-1" d="m4.98,7.44h-1.99s0-.06,0-.09c0-.43,0-.86,0-1.29,0-.09.03-.1.11-.1.6,0,1.19,0,1.79,0,.08,0,.11.02.11.1,0,.43,0,.85,0,1.28,0,.03,0,.06,0,.1Zm-1.67-1.15v.82h1.33v-.82h-1.33Z"/>
    </g>
  </g>
</svg>